<?xml version="1.0" encoding="utf-8"?>
<!-- Generator: Adobe Illustrator 22.0.1, SVG Export Plug-In . SVG Version: 6.00 Build 0)  -->
<svg version="1.1" id="Capa_1" xmlns="http://www.w3.org/2000/svg" xmlns:xlink="http://www.w3.org/1999/xlink" x="0px" y="0px"
	 viewBox="0 0 430.1 430.1" style="enable-background:new 0 0 430.1 430.1;" xml:space="preserve">
<style type="text/css">
	.st0{fill:#FFFFFF;}
</style>
<g>
	<g id="XMLID_1_">
		<g>
			<path class="st0" d="M430.1,261.5v159h-92.2V272.2c0-37.3-13.3-62.7-46.7-62.7c-25.5,0-40.6,17.1-47.3,33.7
				c-2.4,5.9-3.1,14.2-3.1,22.5v154.9h-92.2c0,0,1.2-251.3,0-277.3h92.2v39.3c-0.2,0.3-0.4,0.6-0.6,0.9h0.6v-0.9
				c12.3-18.9,34.1-45.8,83.1-45.8C384.6,136.7,430.1,176.4,430.1,261.5z"/>
			<rect x="5.5" y="143.2" class="st0" width="92.2" height="277.3"/>
			<path class="st0" d="M103.7,57.5c0,26.6-20,47.9-52.2,47.9H51C20,105.4,0,84.1,0,57.5C0,30.3,20.6,9.6,52.2,9.6
				C83.7,9.6,103.1,30.3,103.7,57.5z"/>
		</g>
		<g>
		</g>
	</g>
</g>
</svg>
