<?xml version="1.0" encoding="utf-8"?>
<!-- Generator: Adobe Illustrator 22.0.1, SVG Export Plug-In . SVG Version: 6.00 Build 0)  -->
<svg version="1.1" xmlns="http://www.w3.org/2000/svg" xmlns:xlink="http://www.w3.org/1999/xlink" x="0px" y="0px"
	 viewBox="0 0 16 16" style="enable-background:new 0 0 16 16;" xml:space="preserve">
<style type="text/css">
	.st0{display:none;}
	.st1{display:inline;}
	.st2{fill:#ADADAD;}
	.st3{fill:#D3D3D3;}
	.st4{fill:#FFFFFF;}
	.st5{fill:#C6C6C6;}
	.st6{fill:#FF7F1F;}
	.st7{fill:#848281;}
	.st8{fill:#7C7C7C;}
	.st9{fill:#474747;}
	.st10{fill:#565656;}
	.st11{fill:#709348;}
	.st12{fill:#80AD51;}
	.st13{fill:#602C2C;}
	.st14{fill:#331919;}
	.st15{fill:#C1C1C1;}
	.st16{fill:#DDDDDD;}
	.st17{fill:#EAEAEA;}
	.st18{fill:#605555;}
	.st19{fill:#B5B5B5;}
	.st20{fill:#C9C9C9;}
</style>
<g id="yoda-sketch" class="st0">
</g>
<g id="blk_sub" class="st0">
	<rect x="0" class="st1" width="16" height="16"/>
</g>
<g id="blk_sub_copy" class="st0">
</g>
<g id="helmet_sketch" class="st0">
	<g class="st1">
		<g>
			<path d="M3.6,7.1c0.6,0,0.6-1,0-1C2.9,6.1,2.9,7.1,3.6,7.1L3.6,7.1z"/>
		</g>
	</g>
	<g class="st1">
		<g>
			<path d="M4.5,6c0.6,0,0.6-1,0-1C3.8,5,3.8,6,4.5,6L4.5,6z"/>
		</g>
	</g>
	<g class="st1">
		<g>
			<path d="M4.6,5.1c0.6,0,0.6-1,0-1C4,4.1,4,5.1,4.6,5.1L4.6,5.1z"/>
		</g>
	</g>
	<g class="st1">
		<g>
			<path d="M5.7,4.9c0.6,0,0.6-1,0-1C5,3.9,5,4.9,5.7,4.9L5.7,4.9z"/>
		</g>
	</g>
	<g class="st1">
		<g>
			<path d="M5.8,4.3c0.6,0,0.6-1,0-1C5.2,3.3,5.2,4.3,5.8,4.3L5.8,4.3z"/>
		</g>
	</g>
	<g class="st1">
		<g>
			<path d="M6.8,3.5c0.6,0,0.6-1,0-1C6.2,2.5,6.2,3.5,6.8,3.5L6.8,3.5z"/>
		</g>
	</g>
	<g class="st1">
		<g>
			<path d="M7.3,3.5c0.6,0,0.6-1,0-1C6.6,2.5,6.6,3.5,7.3,3.5L7.3,3.5z"/>
		</g>
	</g>
	<g class="st1">
		<g>
			<path d="M8.4,3.5c0.6,0,0.6-1,0-1C7.7,2.5,7.7,3.5,8.4,3.5L8.4,3.5z"/>
		</g>
	</g>
	<g class="st1">
		<g>
			<path d="M9.3,3.6c0.6,0,0.6-1,0-1C8.7,2.6,8.7,3.6,9.3,3.6L9.3,3.6z"/>
		</g>
	</g>
	<g class="st1">
		<g>
			<path d="M10,4.6c0.6,0,0.6-1,0-1C9.4,3.6,9.4,4.6,10,4.6L10,4.6z"/>
		</g>
	</g>
	<g class="st1">
		<g>
			<path d="M11.2,5.6c0.6,0,0.6-1,0-1C10.6,4.6,10.6,5.6,11.2,5.6L11.2,5.6z"/>
		</g>
	</g>
	<g class="st1">
		<g>
			<path d="M12.2,6.5c0.6,0,0.6-1,0-1C11.6,5.5,11.6,6.5,12.2,6.5L12.2,6.5z"/>
		</g>
	</g>
	<g class="st1">
		<g>
			<path d="M3.7,6.3c0.6,0,0.6-1,0-1C3.1,5.3,3.1,6.3,3.7,6.3L3.7,6.3z"/>
		</g>
	</g>
	<g class="st1">
		<g>
			<path d="M3.1,7.3c0.6,0,0.6-1,0-1C2.5,6.3,2.5,7.3,3.1,7.3L3.1,7.3z"/>
		</g>
	</g>
	<g class="st1">
		<g>
			<path d="M6,3.4c0.6,0,0.6-1,0-1C5.3,2.4,5.3,3.4,6,3.4L6,3.4z"/>
		</g>
	</g>
	<g class="st1">
		<g>
			<path d="M10.3,3.5c0.6,0,0.6-1,0-1C9.7,2.5,9.7,3.5,10.3,3.5L10.3,3.5z"/>
		</g>
	</g>
	<g class="st1">
		<g>
			<path d="M4.8,4.3c0.6,0,0.6-1,0-1C4.2,3.3,4.2,4.3,4.8,4.3L4.8,4.3z"/>
		</g>
	</g>
	<g class="st1">
		<g>
			<path d="M3.6,5.3c0.6,0,0.6-1,0-1C3,4.3,3,5.3,3.6,5.3L3.6,5.3z"/>
		</g>
	</g>
	<g class="st1">
		<g>
			<path d="M11.1,4.2c0.6,0,0.6-1,0-1C10.4,3.2,10.4,4.2,11.1,4.2L11.1,4.2z"/>
		</g>
	</g>
	<g class="st1">
		<g>
			<path d="M11.7,5.3c0.6,0,0.6-1,0-1C11.1,4.3,11.1,5.3,11.7,5.3L11.7,5.3z"/>
		</g>
	</g>
	<g class="st1">
		<g>
			<path d="M12.1,5.2c0.6,0,0.6-1,0-1C11.5,4.2,11.5,5.2,12.1,5.2L12.1,5.2z"/>
		</g>
	</g>
	<g class="st1">
		<g>
			<path d="M12.5,7.8c0.6,0,0.6-1,0-1C11.8,6.8,11.8,7.8,12.5,7.8L12.5,7.8z"/>
		</g>
	</g>
</g>
<g id="bb8sketch" class="st0">
</g>
<g id="bb8">
</g>
<g id="storm_trooper_helmet">
	<rect x="2" y="6" class="st4" width="12" height="1"/>
	<rect x="4" y="2" class="st4" width="9" height="1"/>
	<rect x="3" y="3" class="st4" width="11" height="1"/>
	<rect x="2" y="4" class="st4" width="12" height="1"/>
	<rect x="3" y="5" class="st4" width="10" height="1"/>
	<rect x="2" y="5" class="st3" width="12" height="1"/>
	<rect x="2" y="7" class="st4" width="12" height="1"/>
	<rect x="2" y="8" class="st4" width="13" height="1"/>
	<rect x="3" y="9" class="st4" width="10" height="1"/>
	<rect x="1" y="10" class="st4" width="14" height="1"/>
	<rect x="1" y="9" class="st4" width="14" height="1"/>
	<rect x="1" y="11" class="st4" width="14" height="1"/>
	<rect x="2" y="12" class="st4" width="12" height="1"/>
	<rect x="2" y="13" class="st4" width="12" height="1"/>
	<rect x="4" y="14" class="st4" width="2" height="1"/>
	<rect x="10" y="14" class="st4" width="2" height="1"/>
	<rect x="6" y="13" width="3" height="1"/>
	<rect x="3" y="6" width="4" height="1"/>
	<rect x="9" y="6" width="4" height="1"/>
	<rect x="3" y="7" width="3" height="1"/>
	<rect x="10" y="7" width="3" height="1"/>
	<rect x="2" y="4" width="12" height="1"/>
	<rect x="6" y="9" class="st8" width="1" height="1"/>
	<rect x="7" y="9" class="st2" width="2" height="1"/>
	<rect x="5" y="10" class="st2" width="1" height="1"/>
	<rect x="10" y="10" class="st2" width="1" height="1"/>
	<rect x="4" y="10" class="st8" width="1" height="1"/>
	<rect x="11" y="10" class="st8" width="1" height="1"/>
	<rect x="6" y="13" class="st9" width="4" height="1"/>
	<rect x="4" width="8" height="1"/>
	<rect x="2" y="2" width="1" height="1"/>
	<rect y="8" width="1" height="1"/>
	<rect x="1" y="3" width="1" height="5"/>
	<rect y="9" width="1" height="3"/>
	<rect x="1" y="12" width="1" height="1"/>
	<rect x="1" y="13" width="1" height="1"/>
	<rect x="2" y="14" width="1" height="1"/>
	<rect x="3" y="15" width="3" height="1"/>
	<rect x="10" y="15" width="3" height="1"/>
	<rect x="6" y="14" width="1" height="1"/>
	<rect x="9" y="14" width="1" height="1"/>
	<rect x="13" y="14" width="1" height="1"/>
	<rect x="14" y="13" width="1" height="1"/>
	<rect x="14" y="12" width="1" height="1"/>
	<rect x="15" y="9" width="1" height="3"/>
	<rect x="14" y="3" width="1" height="5"/>
	<rect x="15" y="8" width="1" height="1"/>
	<rect x="13" y="2" width="1" height="1"/>
	<rect x="7" y="12" class="st10" width="2" height="1"/>
	<rect x="1" y="8" class="st3" width="1" height="4"/>
	<rect x="3" y="2" class="st3" width="1" height="1"/>
	<rect x="2" y="3" class="st3" width="1" height="1"/>
	<rect x="4" y="1" class="st3" width="8" height="1"/>
	<rect x="2" y="6" class="st3" width="1" height="2"/>
	<rect x="2" y="12" class="st3" width="1" height="2"/>
	<rect x="3" y="14" class="st3" width="1" height="1"/>
	<rect x="4" y="14" class="st3" width="2" height="1"/>
	<rect x="10" y="14" class="st3" width="3" height="1"/>
	<rect x="10" y="13" class="st3" width="1" height="1"/>
	<rect x="9" y="9" class="st8" width="1" height="1"/>
	<rect x="4" y="13" width="1" height="1"/>
	<rect x="11" y="13" width="1" height="1"/>
	<rect x="3" y="1" width="1" height="1"/>
	<rect x="12" y="1" width="1" height="1"/>
	<rect x="3" y="13" class="st3" width="1" height="1"/>
	<rect x="2" y="11" class="st3" width="1" height="1"/>
</g>
<g id="yoda">
</g>
</svg>
