<?xml version="1.0" encoding="utf-8"?>
<!-- Generator: Adobe Illustrator 22.0.1, SVG Export Plug-In . SVG Version: 6.00 Build 0)  -->
<svg version="1.1" xmlns="http://www.w3.org/2000/svg" xmlns:xlink="http://www.w3.org/1999/xlink" x="0px" y="0px"
	 viewBox="0 0 16 16" style="enable-background:new 0 0 16 16;" xml:space="preserve">
<style type="text/css">
	.st0{display:none;}
	.st1{display:inline;}
	.st2{fill:#ADADAD;}
	.st3{fill:#D3D3D3;}
	.st4{fill:#FFFFFF;}
	.st5{fill:#C6C6C6;}
	.st6{fill:#FF7F1F;}
	.st7{fill:#848281;}
	.st8{fill:#7C7C7C;}
	.st9{fill:#474747;}
	.st10{fill:#565656;}
	.st11{fill:#709348;}
	.st12{fill:#80AD51;}
	.st13{fill:#602C2C;}
	.st14{fill:#331919;}
	.st15{fill:#C1C1C1;}
	.st16{fill:#DDDDDD;}
	.st17{fill:#EAEAEA;}
	.st18{fill:#605555;}
	.st19{fill:#B5B5B5;}
	.st20{fill:#C9C9C9;}
</style>
<g id="yoda-sketch" class="st0">
	<rect x="-21" y="4" class="st1" width="1" height="1"/>
	<rect x="-20" y="4" class="st1" width="1" height="1"/>
	<rect x="-19" y="4" class="st1" width="1" height="1"/>
	<rect x="-18" y="4" class="st1" width="1" height="1"/>
	<g class="st1">
		<g>
			<path d="M-19.3,5.6c0.6,0,0.6-1,0-1C-20,4.6-20,5.6-19.3,5.6L-19.3,5.6z"/>
		</g>
	</g>
	<g class="st1">
		<g>
			<path d="M-18.6,5.9c0.6,0,0.6-1,0-1C-19.3,4.9-19.3,5.9-18.6,5.9L-18.6,5.9z"/>
		</g>
	</g>
	<g class="st1">
		<g>
			<path d="M-17.4,6.7c0.6,0,0.6-1,0-1C-18,5.7-18,6.7-17.4,6.7L-17.4,6.7z"/>
		</g>
	</g>
	<g class="st1">
		<g>
			<path d="M-16.5,4.1c0.6,0,0.6-1,0-1C-17.1,3.1-17.1,4.1-16.5,4.1L-16.5,4.1z"/>
		</g>
	</g>
	<g class="st1">
		<g>
			<path d="M-15.6,4.2c0.6,0,0.6-1,0-1C-16.2,3.2-16.2,4.2-15.6,4.2L-15.6,4.2z"/>
		</g>
	</g>
	<g class="st1">
		<g>
			<path d="M-15.2,3.4c0.6,0,0.6-1,0-1C-15.9,2.4-15.9,3.4-15.2,3.4L-15.2,3.4z"/>
		</g>
	</g>
	<g class="st1">
		<g>
			<path d="M-14.6,3.4c0.6,0,0.6-1,0-1C-15.2,2.4-15.2,3.4-14.6,3.4L-14.6,3.4z"/>
		</g>
	</g>
	<g class="st1">
		<g>
			<path d="M-13.5,3.4c0.6,0,0.6-1,0-1C-14.1,2.4-14.1,3.4-13.5,3.4L-13.5,3.4z"/>
		</g>
	</g>
	<g class="st1">
		<g>
			<path d="M-12.5,3.7c0.6,0,0.6-1,0-1C-13.1,2.7-13.1,3.7-12.5,3.7L-12.5,3.7z"/>
		</g>
	</g>
	<g class="st1">
		<g>
			<path d="M-11.3,3.8c0.6,0,0.6-1,0-1C-11.9,2.8-11.9,3.8-11.3,3.8L-11.3,3.8z"/>
		</g>
	</g>
	<g class="st1">
		<g>
			<path d="M-10.6,4.2c0.6,0,0.6-1,0-1C-11.2,3.2-11.2,4.2-10.6,4.2L-10.6,4.2z"/>
		</g>
	</g>
	<g class="st1">
		<g>
			<path d="M-9.4,5.3c0.6,0,0.6-1,0-1C-10.1,4.3-10.1,5.3-9.4,5.3L-9.4,5.3z"/>
		</g>
	</g>
	<g class="st1">
		<g>
			<path d="M-8.4,5c0.6,0,0.6-1,0-1C-9.1,4-9.1,5-8.4,5L-8.4,5z"/>
		</g>
	</g>
	<g class="st1">
		<g>
			<path d="M-7.5,5c0.6,0,0.6-1,0-1C-8.2,4-8.2,5-7.5,5L-7.5,5z"/>
		</g>
	</g>
	<g class="st1">
		<g>
			<path d="M-6.4,5c0.6,0,0.6-1,0-1C-7.1,4-7.1,5-6.4,5L-6.4,5z"/>
		</g>
	</g>
	<g class="st1">
		<g>
			<path d="M-5.5,5c0.6,0,0.6-1,0-1C-6.1,4-6.1,5-5.5,5L-5.5,5z"/>
		</g>
	</g>
	<g class="st1">
		<g>
			<path d="M-12,3.3c0.6,0,0.6-1,0-1C-12.7,2.3-12.7,3.3-12,3.3L-12,3.3z"/>
		</g>
	</g>
	<g class="st1">
		<g>
			<path d="M-11.6,3.3c0.6,0,0.6-1,0-1C-12.2,2.3-12.2,3.3-11.6,3.3L-11.6,3.3z"/>
		</g>
	</g>
	<g class="st1">
		<g>
			<path d="M-10.6,3.6c0.6,0,0.6-1,0-1C-11.2,2.6-11.2,3.6-10.6,3.6L-10.6,3.6z"/>
		</g>
	</g>
	<g class="st1">
		<g>
			<path d="M-9.7,4.6c0.6,0,0.6-1,0-1C-10.3,3.6-10.3,4.6-9.7,4.6L-9.7,4.6z"/>
		</g>
	</g>
	<g class="st1">
		<g>
			<path d="M-16.2,7c0.6,0,0.6-1,0-1C-16.9,6-16.9,7-16.2,7L-16.2,7z"/>
		</g>
	</g>
	<g class="st1">
		<g>
			<path d="M-15.3,8.3c0.6,0,0.6-1,0-1C-16,7.3-16,8.3-15.3,8.3L-15.3,8.3z"/>
		</g>
	</g>
	<g class="st1">
		<g>
			<path d="M-14.5,8.5c0.6,0,0.6-1,0-1C-15.1,7.5-15.1,8.5-14.5,8.5L-14.5,8.5z"/>
		</g>
	</g>
	<g class="st1">
		<g>
			<path d="M-13.6,8.6c0.6,0,0.6-1,0-1C-14.3,7.6-14.3,8.6-13.6,8.6L-13.6,8.6z"/>
		</g>
	</g>
	<g class="st1">
		<g>
			<path d="M-12.5,8.6c0.6,0,0.6-1,0-1C-13.1,7.6-13.1,8.6-12.5,8.6L-12.5,8.6z"/>
		</g>
	</g>
	<g class="st1">
		<g>
			<path d="M-12.5,8.6c0.6,0,0.6-1,0-1C-13.1,7.6-13.1,8.6-12.5,8.6L-12.5,8.6z"/>
		</g>
	</g>
	<g class="st1">
		<g>
			<path d="M-11.8,8.6c0.6,0,0.6-1,0-1C-12.4,7.6-12.4,8.6-11.8,8.6L-11.8,8.6z"/>
		</g>
	</g>
	<g class="st1">
		<g>
			<path d="M-10.7,7.6c0.6,0,0.6-1,0-1C-11.3,6.6-11.3,7.6-10.7,7.6L-10.7,7.6z"/>
		</g>
	</g>
	<g class="st1">
		<g>
			<path d="M-9.9,6.7c0.6,0,0.6-1,0-1C-10.5,5.7-10.5,6.7-9.9,6.7L-9.9,6.7z"/>
		</g>
	</g>
	<g class="st1">
		<g>
			<path d="M-7.7,5.9c0.6,0,0.6-1,0-1C-8.3,4.9-8.3,5.9-7.7,5.9L-7.7,5.9z"/>
		</g>
	</g>
	<g class="st1">
		<g>
			<path class="st2" d="M-15.2,9.6c0.1,0.5,0,1.1,0,1.5c0,0.5,0,1.1,0,1.6c0,0.6,1,0.6,1,0c0-0.6,0-1.2,0-1.8c0-0.5,0.1-1.1,0-1.6
				C-14.5,8.7-15.4,9-15.2,9.6L-15.2,9.6z"/>
		</g>
	</g>
	<g class="st1">
		<g>
			<path class="st2" d="M-16.2,11.1c0.6,0,0.6-1,0-1C-16.8,10.1-16.8,11.1-16.2,11.1L-16.2,11.1z"/>
		</g>
	</g>
	<g class="st1">
		<g>
			<path class="st2" d="M-12.5,9.8c0.3,0,0.8,0,1.1,0.1c0.2,0.1-0.1-0.2,0.1,0.1c0,0,0.2,0.4,0.2,0.2c-0.1,0.6,0.9,0.9,1,0.3
				c0-0.3,0-0.5-0.2-0.7c-0.1-0.2-0.2-0.4-0.4-0.6c-0.4-0.3-1.3-0.4-1.9-0.4C-13.2,8.8-13.2,9.8-12.5,9.8L-12.5,9.8z"/>
		</g>
	</g>
	<g class="st1">
		<g>
			<path class="st2" d="M-10.6,9.1c0.6,0,0.6-1,0-1C-11.2,8.1-11.2,9.1-10.6,9.1L-10.6,9.1z"/>
		</g>
	</g>
	<g class="st1">
		<g>
			<path class="st2" d="M-10.9,9.1c1,0.8,0.8,2,0.7,3.2c-0.1,0.6,0.9,0.6,1,0c0.2-1.4,0.2-2.9-1-3.9C-10.6,8-11.4,8.7-10.9,9.1
				L-10.9,9.1z"/>
		</g>
	</g>
	<g class="st1">
		<g>
			<path class="st2" d="M-14.3,12.6c1.4,0,2.7,0,4.1,0c0.6,0,0.6-1,0-1c-1.4,0-2.7,0-4.1,0C-15,11.6-15,12.6-14.3,12.6L-14.3,12.6z"
				/>
		</g>
	</g>
	<g class="st1">
		<g>
			<path class="st2" d="M-12.1,11c0.6,0,0.6-1,0-1C-12.7,10-12.7,11-12.1,11L-12.1,11z"/>
		</g>
	</g>
	<g class="st1">
		<g>
			<path class="st2" d="M-11.7,11c0.6,0,0.6-1,0-1C-12.3,10-12.3,11-11.7,11L-11.7,11z"/>
		</g>
	</g>
</g>
<g id="blk_sub" class="st0">
	<rect x="0" class="st1" width="16" height="16"/>
</g>
<g id="blk_sub_copy" class="st0">
	<rect x="21" class="st1" width="16" height="16"/>
</g>
<g id="helmet_sketch" class="st0">
	<g class="st1">
		<g>
			<path d="M3.6,7.1c0.6,0,0.6-1,0-1C2.9,6.1,2.9,7.1,3.6,7.1L3.6,7.1z"/>
		</g>
	</g>
	<g class="st1">
		<g>
			<path d="M4.5,6c0.6,0,0.6-1,0-1C3.8,5,3.8,6,4.5,6L4.5,6z"/>
		</g>
	</g>
	<g class="st1">
		<g>
			<path d="M4.6,5.1c0.6,0,0.6-1,0-1C4,4.1,4,5.1,4.6,5.1L4.6,5.1z"/>
		</g>
	</g>
	<g class="st1">
		<g>
			<path d="M5.7,4.9c0.6,0,0.6-1,0-1C5,3.9,5,4.9,5.7,4.9L5.7,4.9z"/>
		</g>
	</g>
	<g class="st1">
		<g>
			<path d="M5.8,4.3c0.6,0,0.6-1,0-1C5.2,3.3,5.2,4.3,5.8,4.3L5.8,4.3z"/>
		</g>
	</g>
	<g class="st1">
		<g>
			<path d="M6.8,3.5c0.6,0,0.6-1,0-1C6.2,2.5,6.2,3.5,6.8,3.5L6.8,3.5z"/>
		</g>
	</g>
	<g class="st1">
		<g>
			<path d="M7.3,3.5c0.6,0,0.6-1,0-1C6.6,2.5,6.6,3.5,7.3,3.5L7.3,3.5z"/>
		</g>
	</g>
	<g class="st1">
		<g>
			<path d="M8.4,3.5c0.6,0,0.6-1,0-1C7.7,2.5,7.7,3.5,8.4,3.5L8.4,3.5z"/>
		</g>
	</g>
	<g class="st1">
		<g>
			<path d="M9.3,3.6c0.6,0,0.6-1,0-1C8.7,2.6,8.7,3.6,9.3,3.6L9.3,3.6z"/>
		</g>
	</g>
	<g class="st1">
		<g>
			<path d="M10,4.6c0.6,0,0.6-1,0-1C9.4,3.6,9.4,4.6,10,4.6L10,4.6z"/>
		</g>
	</g>
	<g class="st1">
		<g>
			<path d="M11.2,5.6c0.6,0,0.6-1,0-1C10.6,4.6,10.6,5.6,11.2,5.6L11.2,5.6z"/>
		</g>
	</g>
	<g class="st1">
		<g>
			<path d="M12.2,6.5c0.6,0,0.6-1,0-1C11.6,5.5,11.6,6.5,12.2,6.5L12.2,6.5z"/>
		</g>
	</g>
	<g class="st1">
		<g>
			<path d="M3.7,6.3c0.6,0,0.6-1,0-1C3.1,5.3,3.1,6.3,3.7,6.3L3.7,6.3z"/>
		</g>
	</g>
	<g class="st1">
		<g>
			<path d="M3.1,7.3c0.6,0,0.6-1,0-1C2.5,6.3,2.5,7.3,3.1,7.3L3.1,7.3z"/>
		</g>
	</g>
	<g class="st1">
		<g>
			<path d="M6,3.4c0.6,0,0.6-1,0-1C5.3,2.4,5.3,3.4,6,3.4L6,3.4z"/>
		</g>
	</g>
	<g class="st1">
		<g>
			<path d="M10.3,3.5c0.6,0,0.6-1,0-1C9.7,2.5,9.7,3.5,10.3,3.5L10.3,3.5z"/>
		</g>
	</g>
	<g class="st1">
		<g>
			<path d="M4.8,4.3c0.6,0,0.6-1,0-1C4.2,3.3,4.2,4.3,4.8,4.3L4.8,4.3z"/>
		</g>
	</g>
	<g class="st1">
		<g>
			<path d="M3.6,5.3c0.6,0,0.6-1,0-1C3,4.3,3,5.3,3.6,5.3L3.6,5.3z"/>
		</g>
	</g>
	<g class="st1">
		<g>
			<path d="M11.1,4.2c0.6,0,0.6-1,0-1C10.4,3.2,10.4,4.2,11.1,4.2L11.1,4.2z"/>
		</g>
	</g>
	<g class="st1">
		<g>
			<path d="M11.7,5.3c0.6,0,0.6-1,0-1C11.1,4.3,11.1,5.3,11.7,5.3L11.7,5.3z"/>
		</g>
	</g>
	<g class="st1">
		<g>
			<path d="M12.1,5.2c0.6,0,0.6-1,0-1C11.5,4.2,11.5,5.2,12.1,5.2L12.1,5.2z"/>
		</g>
	</g>
	<g class="st1">
		<g>
			<path d="M12.5,7.8c0.6,0,0.6-1,0-1C11.8,6.8,11.8,7.8,12.5,7.8L12.5,7.8z"/>
		</g>
	</g>
</g>
<g id="bb8sketch" class="st0">
	<g class="st1">
		<g>
			<path class="st3" d="M27.5,5c0.6,0,0.6-1,0-1C26.9,4,26.9,5,27.5,5L27.5,5z"/>
		</g>
	</g>
	<g class="st1">
		<g>
			<path class="st3" d="M27.5,5c1,0,2.1-0.2,3.1-0.1C31.2,5,31.4,4,30.8,4c-1.1-0.2-2.2,0-3.3,0C26.8,4,26.8,5,27.5,5L27.5,5z"/>
		</g>
	</g>
	<g class="st1">
		<g>
			<path class="st3" d="M28.9,3.5c0.6,0,0.6-1,0-1C28.3,2.5,28.3,3.5,28.9,3.5L28.9,3.5z"/>
		</g>
	</g>
	<g class="st1">
		<g>
			<path class="st3" d="M29.4,3.4c0.6,0,0.6-1,0-1C28.7,2.4,28.7,3.4,29.4,3.4L29.4,3.4z"/>
		</g>
	</g>
	<g class="st1">
		<g>
			<path class="st3" d="M26.8,4.4c0.6,0,0.6-1,0-1C26.2,3.4,26.2,4.4,26.8,4.4L26.8,4.4z"/>
		</g>
	</g>
	<g class="st1">
		<g>
			<path class="st3" d="M28.1,3.5c0.6,0,0.6-1,0-1C27.5,2.5,27.5,3.5,28.1,3.5L28.1,3.5z"/>
		</g>
	</g>
	<g class="st1">
		<g>
			<path class="st3" d="M27.6,3.2c0.6,0,0.6-1,0-1C27,2.2,27,3.2,27.6,3.2L27.6,3.2z"/>
		</g>
	</g>
	<g class="st1">
		<g>
			<path class="st3" d="M26.9,4.5c0.6,0,0.6-1,0-1C26.2,3.5,26.2,4.5,26.9,4.5L26.9,4.5z"/>
		</g>
	</g>
	<g class="st1">
		<g>
			<path class="st3" d="M27.2,4.5c0.6,0,0.6-1,0-1C26.6,3.5,26.6,4.5,27.2,4.5L27.2,4.5z"/>
		</g>
	</g>
	<g class="st1">
		<g>
			<path class="st3" d="M26.9,4.6c0.6,0,0.6-1,0-1C26.3,3.6,26.3,4.6,26.9,4.6L26.9,4.6z"/>
		</g>
	</g>
	<g class="st1">
		<g>
			<path class="st3" d="M31.3,4.3c0.6,0,0.6-1,0-1C30.6,3.3,30.6,4.3,31.3,4.3L31.3,4.3z"/>
		</g>
	</g>
	<g class="st1">
		<g>
			<path class="st3" d="M30.2,3c0.6,0,0.6-1,0-1C29.6,2,29.6,3,30.2,3L30.2,3z"/>
		</g>
	</g>
	<g class="st1">
		<g>
			<path class="st3" d="M28.4,2.1c0.6,0,0.6-1,0-1C27.7,1.1,27.7,2.1,28.4,2.1L28.4,2.1z"/>
		</g>
	</g>
	<g class="st1">
		<g>
			<path class="st3" d="M28.5,1c0.6,0,0.6-1,0-1C27.9,0,27.9,1,28.5,1L28.5,1z"/>
		</g>
	</g>
	<g class="st1">
		<g>
			<path class="st3" d="M27.6,6.2c0.6,0,0.6-1,0-1C27,5.2,27,6.2,27.6,6.2L27.6,6.2z"/>
		</g>
	</g>
	<g class="st1">
		<g>
			<path class="st3" d="M26,7.1c0.6,0,0.6-1,0-1C25.4,6.1,25.4,7.1,26,7.1L26,7.1z"/>
		</g>
	</g>
	<g class="st1">
		<g>
			<path class="st3" d="M25.3,8.1c0.6,0,0.6-1,0-1C24.6,7.1,24.6,8.1,25.3,8.1L25.3,8.1z"/>
		</g>
	</g>
	<g class="st1">
		<g>
			<path class="st3" d="M25.7,7c0.6,0,0.6-1,0-1C25.1,6,25.1,7,25.7,7L25.7,7z"/>
		</g>
	</g>
	<g class="st1">
		<g>
			<path class="st3" d="M24.5,8.3c0.6,0,0.6-1,0-1C23.9,7.3,23.9,8.3,24.5,8.3L24.5,8.3z"/>
		</g>
	</g>
	<g class="st1">
		<g>
			<path class="st3" d="M29.9,6c0.6,0,0.6-1,0-1C29.2,5,29.2,6,29.9,6L29.9,6z"/>
		</g>
	</g>
	<g class="st1">
		<g>
			<path class="st3" d="M30.2,6c0.6,0,0.6-1,0-1C29.5,5,29.5,6,30.2,6L30.2,6z"/>
		</g>
	</g>
	<g class="st1">
		<g>
			<path class="st3" d="M31.6,7.4c0.6,0,0.6-1,0-1C31,6.4,31,7.4,31.6,7.4L31.6,7.4z"/>
		</g>
	</g>
	<g class="st1">
		<g>
			<path class="st3" d="M32.3,7.3c0.6,0,0.6-1,0-1C31.6,6.3,31.6,7.3,32.3,7.3L32.3,7.3z"/>
		</g>
	</g>
	<g class="st1">
		<g>
			<path class="st3" d="M33.6,8.3c0.6,0,0.6-1,0-1C33,7.3,33,8.3,33.6,8.3L33.6,8.3z"/>
		</g>
	</g>
	<g class="st1">
		<g>
			<path class="st3" d="M24.7,8.6c0.6,0,0.6-1,0-1C24.1,7.6,24.1,8.6,24.7,8.6L24.7,8.6z"/>
		</g>
	</g>
	<g class="st1">
		<g>
			<path class="st3" d="M24.3,9.3c0.1,0.2-0.2,0.8-0.2,1.1c-0.1,0.6,0.9,0.6,1,0c0.1-0.6,0.3-1,0-1.6C24.9,8.2,24.1,8.7,24.3,9.3
				L24.3,9.3z"/>
		</g>
	</g>
	<g class="st1">
		<g>
			<path class="st3" d="M32.8,9c0.1,0.5-0.1,1-0.1,1.6c0,0.6,1,0.6,1,0c0-0.5,0.1-1,0.1-1.6C33.7,8.4,32.7,8.4,32.8,9L32.8,9z"/>
		</g>
	</g>
	<g class="st1">
		<g>
			<path class="st3" d="M25.8,11.9c2.3,0.2,4.5,0.2,6.8,0.1c0.6,0,0.6-1,0-1c-2.3,0.1-4.5,0-6.8-0.1C25.1,10.9,25.1,11.9,25.8,11.9
				L25.8,11.9z"/>
		</g>
	</g>
	<g class="st1">
		<g>
			<path class="st3" d="M26.5,13c1.6,0.1,3.2,0.2,4.8,0.1c0.6,0,0.6-1,0-1c-1.6,0.1-3.2,0-4.8-0.1C25.9,12,25.9,13,26.5,13L26.5,13z
				"/>
		</g>
	</g>
	<g class="st1">
		<g>
			<path class="st3" d="M27.5,13.7c0.9,0.1,1.9,0.2,2.8,0.2c0.6,0,0.6-1,0-1c-0.9-0.1-1.9-0.1-2.8-0.2
				C26.9,12.7,26.9,13.7,27.5,13.7L27.5,13.7z"/>
		</g>
	</g>
	<g class="st1">
		<g>
			<path class="st3" d="M30.5,12.9c-0.6-0.2-0.6-1.7-0.6-2.2c0-0.7,0-1.3,0-2c0-0.6-1-0.6-1,0c0,1.4-0.4,4.6,1.3,5.2
				C30.9,14.1,31.1,13.1,30.5,12.9L30.5,12.9z"/>
		</g>
	</g>
	<g class="st1">
		<g>
			<path class="st3" d="M26.6,7.2c0.6,0,0.6-1,0-1C26,6.2,26,7.2,26.6,7.2L26.6,7.2z"/>
		</g>
	</g>
	<g class="st1">
		<g>
			<path class="st3" d="M26.1,7.2c0.6,0,0.6-1,0-1C25.5,6.2,25.5,7.2,26.1,7.2L26.1,7.2z"/>
		</g>
	</g>
	<g class="st1">
		<g>
			<path class="st3" d="M26.1,7.2c0.6,0,0.6-1,0-1C25.5,6.2,25.5,7.2,26.1,7.2L26.1,7.2z"/>
		</g>
	</g>
	<g class="st1">
		<g>
			<path class="st3" d="M25.8,7.2c0.6,0,0.6-1,0-1C25.2,6.2,25.2,7.2,25.8,7.2L25.8,7.2z"/>
		</g>
	</g>
	<g class="st1">
		<g>
			<path class="st3" d="M25.8,7.2c0.6,0,0.6-1,0-1C25.2,6.2,25.2,7.2,25.8,7.2L25.8,7.2z"/>
		</g>
	</g>
	<g class="st1">
		<g>
			<path class="st3" d="M25.8,7.2c0.6,0,0.6-1,0-1C25.2,6.2,25.2,7.2,25.8,7.2L25.8,7.2z"/>
		</g>
	</g>
	<g class="st1">
		<g>
			<path class="st3" d="M24.8,8.2c0.6,0,0.6-1,0-1C24.1,7.2,24.1,8.2,24.8,8.2L24.8,8.2z"/>
		</g>
	</g>
	<g class="st1">
		<g>
			<path class="st3" d="M24.8,8.2c0.6,0,0.6-1,0-1C24.1,7.2,24.1,8.2,24.8,8.2L24.8,8.2z"/>
		</g>
	</g>
	<g class="st1">
		<g>
			<path class="st3" d="M24.8,8.2c0.6,0,0.6-1,0-1C24.1,7.2,24.1,8.2,24.8,8.2L24.8,8.2z"/>
		</g>
	</g>
	<g class="st1">
		<g>
			<path class="st3" d="M24.7,9.5c0.6,0,0.6-1,0-1C24.1,8.5,24.1,9.5,24.7,9.5L24.7,9.5z"/>
		</g>
	</g>
	<g class="st1">
		<g>
			<path class="st3" d="M24.8,10.6c0.6,0,0.6-1,0-1C24.1,9.6,24.1,10.6,24.8,10.6L24.8,10.6z"/>
		</g>
	</g>
	<g class="st1">
		<g>
			<path class="st3" d="M24.8,10.6c0.6,0,0.6-1,0-1C24.1,9.6,24.1,10.6,24.8,10.6L24.8,10.6z"/>
		</g>
	</g>
	<g class="st1">
		<g>
			<path class="st3" d="M25.9,11.5c0.6,0,0.6-1,0-1C25.2,10.5,25.2,11.5,25.9,11.5L25.9,11.5z"/>
		</g>
	</g>
	<g class="st1">
		<g>
			<path class="st3" d="M25.9,11.5c0.6,0,0.6-1,0-1C25.2,10.5,25.2,11.5,25.9,11.5L25.9,11.5z"/>
		</g>
	</g>
	<g class="st1">
		<g>
			<path class="st3" d="M25.9,11.5c0.6,0,0.6-1,0-1C25.2,10.5,25.2,11.5,25.9,11.5L25.9,11.5z"/>
		</g>
	</g>
	<g class="st1">
		<g>
			<path class="st3" d="M25.9,11.5c0.6,0,0.6-1,0-1C25.2,10.5,25.2,11.5,25.9,11.5L25.9,11.5z"/>
		</g>
	</g>
	<g class="st1">
		<g>
			<path class="st3" d="M25.5,11.9c0.6,0,0.6-1,0-1C24.9,10.9,24.9,11.9,25.5,11.9L25.5,11.9z"/>
		</g>
	</g>
	<g class="st1">
		<g>
			<path class="st3" d="M25.5,11.9c0.6,0,0.6-1,0-1C24.9,10.9,24.9,11.9,25.5,11.9L25.5,11.9z"/>
		</g>
	</g>
	<g class="st1">
		<g>
			<path class="st3" d="M25.5,11.9c0.6,0,0.6-1,0-1C24.9,10.9,24.9,11.9,25.5,11.9L25.5,11.9z"/>
		</g>
	</g>
	<g class="st1">
		<g>
			<path class="st3" d="M28,13.9c0.6,0,0.6-1,0-1C27.3,12.9,27.3,13.9,28,13.9L28,13.9z"/>
		</g>
	</g>
	<g class="st1">
		<g>
			<path class="st3" d="M28,13.9c0.6,0,0.6-1,0-1C27.3,12.9,27.3,13.9,28,13.9L28,13.9z"/>
		</g>
	</g>
	<g class="st1">
		<g>
			<path class="st3" d="M28,13.9c0.6,0,0.6-1,0-1C27.3,12.9,27.3,13.9,28,13.9L28,13.9z"/>
		</g>
	</g>
	<g class="st1">
		<g>
			<path class="st3" d="M29.7,13.8c0.6,0,0.6-1,0-1C29,12.8,29,13.8,29.7,13.8L29.7,13.8z"/>
		</g>
	</g>
	<g class="st1">
		<g>
			<path class="st3" d="M29.7,13.8c0.6,0,0.6-1,0-1C29,12.8,29,13.8,29.7,13.8L29.7,13.8z"/>
		</g>
	</g>
	<g class="st1">
		<g>
			<path class="st3" d="M30.6,5.5C30.6,5.5,30.6,5.5,30.6,5.5c-0.5-0.5-1.2,0.2-0.8,0.7c0,0,0,0,0,0C30.4,6.7,31.1,6,30.6,5.5
				L30.6,5.5z"/>
		</g>
	</g>
	<g class="st1">
		<g>
			<path class="st3" d="M29.8,6.1c0,0.2,0.1,0.3,0.1,0.5c0.1,0.6,1.1,0.4,1-0.3c0-0.2-0.1-0.3-0.1-0.5C30.7,5.2,29.7,5.4,29.8,6.1
				L29.8,6.1z"/>
		</g>
	</g>
	<g class="st1">
		<g>
			<path class="st3" d="M32.2,6.3c-0.4,0-0.8,0-1.1,0.1c-0.6,0.1-0.4,1.1,0.3,1c0.3-0.1,0.6-0.1,0.9,0C32.9,7.3,32.9,6.3,32.2,6.3
				L32.2,6.3z"/>
		</g>
	</g>
	<g class="st1">
		<g>
			<path class="st3" d="M32.6,7.8c0,0.3,0.1,0.5,0.1,0.8c0,0.6,1,0.6,1,0c0-0.4-0.1-0.7-0.1-1.1C33.4,6.9,32.4,7.1,32.6,7.8
				L32.6,7.8z"/>
		</g>
	</g>
	<g class="st1">
		<g>
			<path class="st3" d="M28,6.1c0.6,0,0.6-1,0-1C27.4,5.1,27.4,6.1,28,6.1L28,6.1z"/>
		</g>
	</g>
	<g class="st1">
		<g>
			<path class="st3" d="M28,6.1c0.6,0,0.6-1,0-1C27.4,5.1,27.4,6.1,28,6.1L28,6.1z"/>
		</g>
	</g>
	<g class="st1">
		<g>
			<path class="st3" d="M28,6.1c0.6,0,0.6-1,0-1C27.4,5.1,27.4,6.1,28,6.1L28,6.1z"/>
		</g>
	</g>
	<g class="st1">
		<g>
			<path class="st3" d="M28,6.1c0.6,0,0.6-1,0-1C27.4,5.1,27.4,6.1,28,6.1L28,6.1z"/>
		</g>
	</g>
	<g class="st1">
		<g>
			<path class="st3" d="M27.8,6.1c0.6,0,0.6-1,0-1C27.2,5.1,27.2,6.1,27.8,6.1L27.8,6.1z"/>
		</g>
	</g>
	<g class="st1">
		<g>
			<path class="st3" d="M27.8,6.1c0.6,0,0.6-1,0-1C27.2,5.1,27.2,6.1,27.8,6.1L27.8,6.1z"/>
		</g>
	</g>
	<g class="st1">
		<g>
			<path class="st3" d="M26.8,12.7c0.6,0,0.6-1,0-1C26.2,11.7,26.2,12.7,26.8,12.7L26.8,12.7z"/>
		</g>
	</g>
	<g class="st1">
		<g>
			<path class="st3" d="M26.8,12.7c0.6,0,0.6-1,0-1C26.2,11.7,26.2,12.7,26.8,12.7L26.8,12.7z"/>
		</g>
	</g>
	<g class="st1">
		<g>
			<path class="st3" d="M26.8,12.7c0.6,0,0.6-1,0-1C26.2,11.7,26.2,12.7,26.8,12.7L26.8,12.7z"/>
		</g>
	</g>
	<g class="st1">
		<g>
			<path class="st3" d="M26.8,12.7c0.6,0,0.6-1,0-1C26.2,11.7,26.2,12.7,26.8,12.7L26.8,12.7z"/>
		</g>
	</g>
	<g class="st1">
		<g>
			<path class="st3" d="M26.8,12.7c0.6,0,0.6-1,0-1C26.2,11.7,26.2,12.7,26.8,12.7L26.8,12.7z"/>
		</g>
	</g>
	<g class="st1">
		<g>
			<path class="st3" d="M26.8,12.7c0.6,0,0.6-1,0-1C26.2,11.7,26.2,12.7,26.8,12.7L26.8,12.7z"/>
		</g>
	</g>
	<g class="st1">
		<g>
			<path class="st3" d="M26.8,12.7c0.6,0,0.6-1,0-1C26.2,11.7,26.2,12.7,26.8,12.7L26.8,12.7z"/>
		</g>
	</g>
	<g class="st1">
		<g>
			<path class="st3" d="M26.8,12.7c0.6,0,0.6-1,0-1C26.2,11.7,26.2,12.7,26.8,12.7L26.8,12.7z"/>
		</g>
	</g>
	<g class="st1">
		<g>
			<path class="st3" d="M26.8,12.7c0.6,0,0.6-1,0-1C26.2,11.7,26.2,12.7,26.8,12.7L26.8,12.7z"/>
		</g>
	</g>
	<g class="st1">
		<g>
			<path class="st3" d="M26.8,12.7c0.6,0,0.6-1,0-1C26.2,11.7,26.2,12.7,26.8,12.7L26.8,12.7z"/>
		</g>
	</g>
	<g class="st1">
		<g>
			<path class="st3" d="M26.8,12.7c0.6,0,0.6-1,0-1C26.2,11.7,26.2,12.7,26.8,12.7L26.8,12.7z"/>
		</g>
	</g>
	<g class="st1">
		<g>
			<path class="st3" d="M26.8,12.7c0.6,0,0.6-1,0-1C26.2,11.7,26.2,12.7,26.8,12.7L26.8,12.7z"/>
		</g>
	</g>
	<g class="st1">
		<g>
			<path class="st3" d="M26.8,12.7c0.6,0,0.6-1,0-1C26.2,11.7,26.2,12.7,26.8,12.7L26.8,12.7z"/>
		</g>
	</g>
	<g class="st1">
		<g>
			<path class="st3" d="M31.3,12.7c0.6,0,0.6-1,0-1C30.6,11.7,30.6,12.7,31.3,12.7L31.3,12.7z"/>
		</g>
	</g>
	<g class="st1">
		<g>
			<path class="st3" d="M31.3,12.7c0.6,0,0.6-1,0-1C30.6,11.7,30.6,12.7,31.3,12.7L31.3,12.7z"/>
		</g>
	</g>
	<g class="st1">
		<g>
			<path class="st3" d="M31.3,12.7c0.6,0,0.6-1,0-1C30.6,11.7,30.6,12.7,31.3,12.7L31.3,12.7z"/>
		</g>
	</g>
	<g class="st1">
		<g>
			<path class="st3" d="M31.3,12.7c0.6,0,0.6-1,0-1C30.6,11.7,30.6,12.7,31.3,12.7L31.3,12.7z"/>
		</g>
	</g>
	<g class="st1">
		<g>
			<path class="st3" d="M31.3,12.7c0.6,0,0.6-1,0-1C30.6,11.7,30.6,12.7,31.3,12.7L31.3,12.7z"/>
		</g>
	</g>
</g>
<g id="bb8">
	<rect x="26" y="3" class="st4" width="7" height="1"/>
	<rect x="26" y="4" class="st4" width="7" height="1"/>
	<rect x="27" y="2" class="st4" width="5" height="1"/>
	<rect x="27" y="6" class="st5" width="5" height="1"/>
	<rect x="26" y="14" class="st4" width="7" height="1"/>
	<rect x="24" y="10" class="st4" width="11" height="1"/>
	<rect x="24" y="11" class="st4" width="11" height="1"/>
	<rect x="24" y="12" class="st4" width="11" height="1"/>
	<rect x="25" y="13" class="st4" width="9" height="1"/>
	<rect x="27" y="15" class="st4" width="5" height="1"/>
	<rect x="28" class="st5" width="1" height="1"/>
	<rect x="25" y="8" class="st4" width="9" height="1"/>
	<rect x="26" y="7" class="st4" width="7" height="1"/>
	<rect x="28" y="1" class="st5" width="3" height="1"/>
	<rect x="26" y="5" class="st4" width="7" height="1"/>
	<rect x="28" y="3" width="2" height="2"/>
	<rect x="24" y="9" class="st4" width="11" height="1"/>
	<rect x="26" y="7" class="st6" width="1" height="1"/>
	<rect x="27" y="8" class="st6" width="1" height="1"/>
	<rect x="26" y="8" class="st6" width="1" height="1"/>
	<rect x="27" y="9" class="st6" width="1" height="1"/>
	<rect x="24" y="10" class="st6" width="1" height="1"/>
	<rect x="27" y="10" class="st6" width="1" height="1"/>
	<rect x="26" y="11" class="st6" width="1" height="1"/>
	<rect x="26" y="10" class="st6" width="1" height="1"/>
	<rect x="25" y="11" class="st6" width="1" height="1"/>
	<rect x="24" y="11" class="st6" width="1" height="1"/>
	<rect x="30" y="13" class="st6" width="3" height="1"/>
	<rect x="29" y="14" class="st6" width="2" height="1"/>
	<rect x="32" y="14" class="st6" width="1" height="1"/>
	<rect x="29" y="15" class="st6" width="1" height="1"/>
	<rect x="30" y="7" class="st6" width="1" height="3"/>
	<rect x="31" y="9" class="st6" width="1" height="2"/>
	<rect x="32" y="10" class="st6" width="2" height="1"/>
	<rect x="33" y="9" class="st6" width="1" height="1"/>
	<rect x="31" y="7" class="st6" width="1" height="1"/>
	<rect x="34" y="9" class="st6" width="1" height="1"/>
	<rect x="24" y="9" class="st7" width="1" height="1"/>
	<rect x="25" y="9" class="st7" width="1" height="1"/>
	<rect x="25" y="8" class="st5" width="1" height="1"/>
	<rect x="33" y="8" class="st5" width="1" height="1"/>
	<rect x="27" y="5" transform="matrix(-1 -1.224647e-16 1.224647e-16 -1 53.99 11)" class="st6" width="0" height="1"/>
	<rect x="26" y="5" class="st6" width="2" height="1"/>
	<rect x="30" y="5" class="st6" width="1" height="1"/>
	<rect x="32" y="5" class="st6" width="1" height="1"/>
	<rect x="30" y="15" class="st7" width="1" height="1"/>
</g>
<g id="storm_trooper_helmet">
	<rect x="2" y="6" class="st4" width="12" height="1"/>
	<rect x="4" y="2" class="st4" width="9" height="1"/>
	<rect x="3" y="3" class="st4" width="11" height="1"/>
	<rect x="2" y="4" class="st4" width="12" height="1"/>
	<rect x="3" y="5" class="st4" width="10" height="1"/>
	<rect x="2" y="5" class="st3" width="12" height="1"/>
	<rect x="2" y="7" class="st4" width="12" height="1"/>
	<rect x="2" y="8" class="st4" width="13" height="1"/>
	<rect x="3" y="9" class="st4" width="10" height="1"/>
	<rect x="1" y="10" class="st4" width="14" height="1"/>
	<rect x="1" y="9" class="st4" width="14" height="1"/>
	<rect x="1" y="11" class="st4" width="14" height="1"/>
	<rect x="2" y="12" class="st4" width="12" height="1"/>
	<rect x="2" y="13" class="st4" width="12" height="1"/>
	<rect x="4" y="14" class="st4" width="2" height="1"/>
	<rect x="10" y="14" class="st4" width="2" height="1"/>
	<rect x="6" y="13" width="3" height="1"/>
	<rect x="3" y="6" width="4" height="1"/>
	<rect x="9" y="6" width="4" height="1"/>
	<rect x="3" y="7" width="3" height="1"/>
	<rect x="10" y="7" width="3" height="1"/>
	<rect x="2" y="4" width="12" height="1"/>
	<rect x="6" y="9" class="st8" width="1" height="1"/>
	<rect x="7" y="9" class="st2" width="2" height="1"/>
	<rect x="5" y="10" class="st2" width="1" height="1"/>
	<rect x="10" y="10" class="st2" width="1" height="1"/>
	<rect x="4" y="10" class="st8" width="1" height="1"/>
	<rect x="11" y="10" class="st8" width="1" height="1"/>
	<rect x="6" y="13" class="st9" width="4" height="1"/>
	<rect x="4" width="8" height="1"/>
	<rect x="2" y="2" width="1" height="1"/>
	<rect y="8" width="1" height="1"/>
	<rect x="1" y="3" width="1" height="5"/>
	<rect y="9" width="1" height="3"/>
	<rect x="1" y="12" width="1" height="1"/>
	<rect x="1" y="13" width="1" height="1"/>
	<rect x="2" y="14" width="1" height="1"/>
	<rect x="3" y="15" width="3" height="1"/>
	<rect x="10" y="15" width="3" height="1"/>
	<rect x="6" y="14" width="1" height="1"/>
	<rect x="9" y="14" width="1" height="1"/>
	<rect x="13" y="14" width="1" height="1"/>
	<rect x="14" y="13" width="1" height="1"/>
	<rect x="14" y="12" width="1" height="1"/>
	<rect x="15" y="9" width="1" height="3"/>
	<rect x="14" y="3" width="1" height="5"/>
	<rect x="15" y="8" width="1" height="1"/>
	<rect x="13" y="2" width="1" height="1"/>
	<rect x="7" y="12" class="st10" width="2" height="1"/>
	<rect x="1" y="8" class="st3" width="1" height="4"/>
	<rect x="3" y="2" class="st3" width="1" height="1"/>
	<rect x="2" y="3" class="st3" width="1" height="1"/>
	<rect x="4" y="1" class="st3" width="8" height="1"/>
	<rect x="2" y="6" class="st3" width="1" height="2"/>
	<rect x="2" y="12" class="st3" width="1" height="2"/>
	<rect x="3" y="14" class="st3" width="1" height="1"/>
	<rect x="4" y="14" class="st3" width="2" height="1"/>
	<rect x="10" y="14" class="st3" width="3" height="1"/>
	<rect x="10" y="13" class="st3" width="1" height="1"/>
	<rect x="9" y="9" class="st8" width="1" height="1"/>
	<rect x="4" y="13" width="1" height="1"/>
	<rect x="11" y="13" width="1" height="1"/>
	<rect x="3" y="1" width="1" height="1"/>
	<rect x="12" y="1" width="1" height="1"/>
	<rect x="3" y="13" class="st3" width="1" height="1"/>
	<rect x="2" y="11" class="st3" width="1" height="1"/>
</g>
<g id="yoda">
	<rect x="-21" y="4" class="st11" width="4" height="1"/>
	<rect x="-20" y="5" class="st11" width="3" height="1"/>
	<rect x="-17" y="6" class="st12" width="8" height="1"/>
	<rect x="-17" y="7" class="st12" width="7" height="1"/>
	<rect x="-16" y="8" class="st12" width="5" height="1"/>
	<rect x="-17" y="3" class="st12" width="7" height="1"/>
	<rect x="-18" y="6" class="st11" width="1" height="1"/>
	<rect x="-16" y="2" class="st12" width="5" height="1"/>
	<rect x="-17" y="4" class="st12" width="11" height="1"/>
	<rect x="-17" y="5" class="st12" width="9" height="1"/>
	<rect x="-16" y="6" width="1" height="1"/>
	<rect x="-13" y="6" width="1" height="1"/>
	<rect x="-14" y="9" class="st13" width="1" height="4"/>
	<rect x="-14" y="11" class="st14" width="1" height="1"/>
	<rect x="-15" y="9" class="st15" width="1" height="4"/>
	<rect x="-16" y="9.9" class="st16" width="1" height="3.1"/>
	<rect x="-17" y="10" class="st16" width="1" height="1"/>
	<rect x="-16" y="13" class="st12" width="2" height="1"/>
	<rect x="-13" y="13" class="st12" width="2" height="1"/>
	<rect x="-18" y="10" class="st12" width="1" height="1"/>
	<rect x="-16" y="9" class="st17" width="1" height="1"/>
	<rect x="-18" y="11" class="st18" width="1" height="3"/>
	<rect x="-13" y="9" class="st15" width="1" height="4"/>
	<rect x="-11" y="9" class="st19" width="1" height="1"/>
	<rect x="-12" y="9.9" class="st20" width="1" height="3.1"/>
	<rect x="-12" y="9" class="st15" width="1" height="1"/>
	<rect x="-11" y="10" class="st20" width="1" height="1"/>
	<rect x="-11" y="11" class="st12" width="1" height="1"/>
</g>
</svg>
