<?xml version="1.0" encoding="utf-8"?>
<!-- Generator: Adobe Illustrator 22.0.1, SVG Export Plug-In . SVG Version: 6.00 Build 0)  -->
<svg version="1.1" id="Hand-drawn_Icon_Set" xmlns="http://www.w3.org/2000/svg" xmlns:xlink="http://www.w3.org/1999/xlink"
	 x="0px" y="0px" viewBox="0 0 500 500" style="enable-background:new 0 0 500 500;" xml:space="preserve">
<style type="text/css">
	.st0{fill:#231F20;}
</style>
<path id="Message_Bubble" class="st0" d="M293.6,228.5c-7.4-10.3-23.4-15.8-35.5-16.9c-13.4-0.7-28,1.1-39.7,8.1
	c-10.2,6.1-19.1,17.5-17.8,29.9c1.3,12.6,12.2,20.9,23.6,24.2c14.5,4.3,30.6,3.3,45.1-0.7c4.5,1.5,7.5,6.3,6.7,11
	c-0.2,1.3,0.5,2.3,1.5,2.8c0.5,1.3,2,2.2,3.5,1.3c9.1-5.2,12.9-14.9,11.9-25C302.5,254.5,300.7,238.4,293.6,228.5z M281,282.2
	c-0.2-5.9-3.8-11.3-9.5-13.5c-0.5-0.6-1.4-1-2.4-0.7c-12.5,3.5-25.9,4.6-38.7,2.2c-11.3-2.2-24.4-9.1-25-22.1
	c-0.6-11.5,9.1-21.3,18.8-25.9c10.5-5,22.4-6.2,33.8-5.6c10.3,0.9,22.4,5.3,29.8,12.8c7.6,7.7,9.7,23.1,1.2,30.7
	c-0.6,0.2-1,0.7-1.2,1.3c-0.2,0.5-0.2,1.1,0,1.6C288.7,270.4,286.8,277.6,281,282.2z"/>
</svg>
