<?xml version="1.0" encoding="utf-8"?>
<!-- Generator: Adobe Illustrator 28.1.0, SVG Export Plug-In . SVG Version: 6.00 Build 0)  -->
<svg version="1.1" id="Layer_8" xmlns="http://www.w3.org/2000/svg" xmlns:xlink="http://www.w3.org/1999/xlink" x="0px" y="0px"
	 viewBox="0 0 634.4 648.4" style="enable-background:new 0 0 634.4 648.4;" xml:space="preserve">
<style type="text/css">
	.st0{fill:#99F6DA;}
	.st1{fill:#FF8B00;}
	.st2{fill:#FF3358;}
	.st3{fill:#AFAFAF;}
	.st4{fill:#99C3FF;stroke:#000000;stroke-width:2;stroke-miterlimit:10;}
	.st5{fill:#D0D7EB;}
	.st6{fill:#7D8CB7;}
	.st7{fill:#221F20;}
	.st8{fill:#D0D7EB;stroke:#221F20;stroke-width:8;stroke-miterlimit:10;}
	.st9{fill:#221F20;stroke:#221F20;stroke-width:8;stroke-miterlimit:10;}
	.st10{fill:#D1D6EA;}
	.st11{fill:none;stroke:#221F20;stroke-width:7;stroke-linecap:round;stroke-miterlimit:10;}
	.st12{fill:#FFFFFF;}
	.st13{fill:#F9F9F9;}
	.st14{fill:#FF3358;stroke:#000000;stroke-width:10;stroke-miterlimit:10;}
	.st15{fill:none;stroke:#FFADBC;stroke-width:10;stroke-miterlimit:10;}
	.st16{fill:none;stroke:#FFFFFF;stroke-width:6;stroke-miterlimit:10;}
</style>
<path class="st0" d="M456.3,56.5c-50.5-21-105.9-30.1-160.4-26.2c-26.6,1.9-53.6,7-76.5,20.6c-15.6,9.3-28.8,22.2-40.6,36
	c-67,78-92.8,189.5-66.9,289c3.8,14.5,8.7,29,16.9,41.6c23.6,36.5,70.2,51,113.6,53.3c43.4,2.3,87.1-5,130.2,0.1
	c38.5,4.6,75.9,18.9,114.7,18.2c43.7-0.7,86.6-21.7,114-55.7c27.4-34,38.8-80.4,30.3-123.2c-14.6-73.1-79.8-124.2-114.2-190.4
	c-7.9-15.1-14.3-31.3-25.6-44c-17.2-19.3-43.2-27.9-68-35.6"/>
<g>
	<path class="st1" d="M216.6,381.4c-25.3,3-50.9,7.5-73.9,18.5c-23,11-43.5,29.2-52.5,53.1c-7.5,19.9-6.7,42.1-14.4,61.9
		c27.8-3.6,53.6-20.2,68.3-44c6.8,28.2-12.6,55.4-31,77.8s-38.1,49.2-32.2,77.5c6.5-12.6,13.6-25.9,25.8-33.2
		c9.6-5.8,21.2-7,32.2-9.4c34.7-7.6,66.4-28.7,86.8-57.8c0.7,17.3-4.2,34.8-13.9,49.3c31.6-14.4,52.2-45.1,70.4-74.6
		c6-9.7,12.1-20.1,12-31.5c-0.1-10-5.1-19.3-10.4-27.8c-14.3-22.8-32.3-43.4-52.9-60.7c-3.9-3.3-9.7-6.6-13.8-3.5"/>
	<path d="M216.6,376.4c-15.5,1.8-31,4.1-46.1,8.1c-14.2,3.8-28.3,9.1-40.9,16.7c-11.3,6.8-21.7,15.3-30,25.6
		c-4.2,5.2-7.9,10.8-10.8,16.7c-3.2,6.6-5.6,13.5-7.2,20.7c-3.4,14.6-4.3,29.7-8.8,44c-0.6,1.8-1.2,3.5-1.9,5.3
		c-1.1,2.8,1.8,6.7,4.8,6.3c23.1-3,44.7-14,60.7-31c4.5-4.8,8.5-10,11.9-15.5l-9.1-1.2c0.3,1.4,0.6,2.7,0.8,4.1s-0.1-0.7,0,0.1
		c0,0.3,0.1,0.7,0.1,1c0.1,0.8,0.1,1.5,0.2,2.2c0.2,2.8,0.1,5.5-0.2,8.3c0,0.3-0.1,0.5-0.1,0.8c0,0-0.2,1.3-0.1,0.5
		s-0.1,0.5-0.1,0.5c0,0.3-0.1,0.5-0.1,0.8c-0.2,1.5-0.6,2.9-0.9,4.4c-0.6,2.7-1.5,5.3-2.4,7.9c-0.2,0.7-0.5,1.3-0.8,2
		c-0.1,0.3-0.2,0.5-0.3,0.8c-0.5,1.3,0.4-0.9-0.1,0.3s-1.1,2.6-1.8,3.8c-1.2,2.6-2.6,5.1-4,7.6c-3,5.2-6.3,10.1-9.8,14.9
		c-0.8,1.1-1.6,2.1-2.3,3.2c-0.4,0.6-0.9,1.2-1.3,1.7c0.7-0.9-0.2,0.3-0.3,0.4c-0.3,0.3-0.5,0.7-0.8,1c-1.8,2.2-3.6,4.5-5.4,6.7
		c-3.8,4.7-7.6,9.4-11.2,14.2c-7,9.4-13.4,19.3-17.9,30.2c-5,12-7,25.1-4.4,38c0.9,4.2,7.2,4.9,9.1,1.2c2.7-5.3,5.4-10.5,8.7-15.5
		c0.8-1.2,1.6-2.4,2.4-3.6c0.4-0.5,0.8-1,1.2-1.6c-0.7,1,0.1-0.1,0.2-0.2c0.3-0.3,0.6-0.7,0.9-1c1.9-2.2,3.9-4.3,6.1-6.2
		c0.5-0.4,1-0.9,1.5-1.2c-1,0.7,0.1,0,0.2-0.2c0.3-0.2,0.6-0.5,0.9-0.7c1.2-0.8,2.5-1.6,3.8-2.3c0.8-0.4,1.5-0.8,2.3-1.1
		c0.3-0.1,0.5-0.2,0.8-0.3c-1.1,0.5,0.2-0.1,0.4-0.2c1.6-0.6,3.2-1.2,4.9-1.7c6.1-1.8,12.4-2.8,18.6-4.1c23.6-4.9,45.7-15.7,64.4-31
		c10.5-8.5,19.7-18.5,27.4-29.6l-9.3-2.5c0.2,4.3,0,8.7-0.5,13c0,0.1-0.2,1.6,0,0.4c-0.1,0.6-0.2,1.1-0.3,1.7c-0.2,1-0.3,2-0.5,3
		c-0.4,2.1-0.9,4.2-1.5,6.3s-1.2,4.2-2,6.2c-0.4,1-0.7,1.9-1.1,2.8c-0.2,0.5-0.2,0.5,0,0c-0.1,0.3-0.2,0.5-0.3,0.8
		c-0.2,0.4-0.4,0.8-0.5,1.2c-1.8,3.9-3.9,7.7-6.3,11.3c-1.2,1.8-0.8,4.6,0.8,6.1c1.8,1.6,3.9,1.8,6.1,0.8c15.3-7,28.4-18,39.6-30.5
		c11.3-12.8,20.8-27,29.9-41.4c5-8,10.1-16,13.2-24.9s2.9-19.2-0.7-28.4c-3.5-8.9-8.8-17-14.2-24.8c-5.4-7.8-11.2-15.3-17.3-22.5
		c-6-7-12.4-13.7-19.1-20.1c-3.3-3.1-6.8-6.2-10.3-9.2c-3.9-3.3-8.1-6.3-13.4-6.8c-2.5-0.3-5.2,0.4-7.3,1.9s-3.4,4.4-1.8,6.8
		c1.4,2.1,4.6,3.4,6.8,1.8c0.2-0.1,0.4-0.3,0.6-0.4c0.6-0.5,0.1,0.3-0.2,0c-0.1-0.1,1.8-0.1,0.7-0.2c-0.9-0.1,0.8,0.1,0.8,0
		c0-0.1-1-0.2-0.2,0c0.3,0.1,0.6,0.1,0.9,0.2c0.4,0.1,1.4,0.5,0.4,0.1c0.4,0.2,0.9,0.4,1.3,0.6c1,0.5,1.9,1.1,2.8,1.7
		c0.1,0.1,0.8,0.6,0.3,0.2c-0.5-0.4,0,0,0.1,0.1c0.4,0.4,0.9,0.7,1.3,1.1c0.9,0.8,1.8,1.5,2.6,2.3c1.6,1.4,3.3,2.9,4.9,4.4
		c6.6,6,12.8,12.3,18.7,19c2.9,3.3,5.8,6.7,8.6,10.2c0.7,0.8,1.4,1.7,2,2.6c0.2,0.2,0.4,0.5,0.5,0.7c-0.1-0.1-0.5-0.6-0.1-0.2
		c0.4,0.5,0.8,1,1.2,1.6c1.3,1.7,2.6,3.5,3.9,5.3c5.1,7.2,10.3,14.6,14.2,22.6c0.5,1,0.9,2,1.4,3c0.2,0.5-0.1-0.1-0.1-0.2
		c0.1,0.3,0.2,0.5,0.3,0.8c0.2,0.5,0.4,1.1,0.6,1.6c0.7,2.1,1.3,4.2,1.7,6.5c0.1,0.4,0.2,1.6,0.1,0.6c0.1,0.6,0.1,1.1,0.2,1.7
		c0.1,1.2,0.1,2.3,0,3.5c0,0.5-0.1,1-0.1,1.5c0,0.3-0.2,1.6-0.1,0.6c-0.2,1.1-0.4,2.3-0.7,3.4c-0.5,2.1-1.2,4.2-2,6.2
		c-0.1,0.3-0.2,0.5-0.3,0.8c0.1-0.2,0.4-0.9,0,0c-0.2,0.5-0.4,0.9-0.6,1.4c-0.5,1.1-1,2.1-1.6,3.2c-2.1,3.9-4.4,7.7-6.7,11.5
		c-4.3,6.9-8.6,13.7-13.1,20.4c-2.3,3.3-4.6,6.6-7.1,9.9c-0.6,0.8-1.2,1.6-1.8,2.4c-0.1,0.1-0.5,0.6-0.1,0.1
		c0.4-0.5-0.1,0.2-0.2,0.3c-0.3,0.4-0.6,0.8-1,1.2c-1.3,1.6-2.6,3.2-3.9,4.8c-5.1,6.1-10.6,11.8-16.7,17c-1.5,1.3-3,2.5-4.5,3.7
		c-0.7,0.6,0,0,0.1-0.1c-0.2,0.2-0.4,0.3-0.6,0.5c-0.4,0.3-0.7,0.5-1.1,0.8c-0.8,0.6-1.7,1.2-2.5,1.8c-3.2,2.2-6.6,4.3-10.1,6.2
		c-1.7,0.9-3.5,1.8-5.3,2.6c2.3,2.3,4.6,4.6,6.8,6.8c10.1-15.2,15.2-33.6,14.5-51.8c-0.1-2.1-1.5-4.3-3.7-4.8
		c-2.3-0.5-4.3,0.4-5.6,2.3c-0.8,1.2-1.7,2.3-2.5,3.5c-0.2,0.3-0.5,0.6-0.7,0.9c-0.8,1,0.4-0.5-0.1,0.1c-0.5,0.7-1.1,1.3-1.6,2
		c-1.8,2.2-3.7,4.4-5.6,6.5c-4,4.3-8.2,8.4-12.7,12.3c-1.1,0.9-2.2,1.8-3.3,2.8c-0.5,0.4-1,0.8-1.5,1.2c-0.1,0.1-1.2,0.9-0.2,0.2
		c-0.3,0.2-0.6,0.5-0.9,0.7c-2.4,1.8-4.9,3.5-7.4,5.2c-4.8,3.2-9.8,6.1-14.9,8.7c-2.7,1.3-5.4,2.6-8.2,3.8c-0.9,0.4,0,0,0.1,0
		c-0.4,0.2-0.7,0.3-1.1,0.5c-0.7,0.3-1.3,0.5-2,0.8c-1.4,0.5-2.8,1.1-4.2,1.6c-5.5,2-11.2,3.6-16.9,4.9c-12.6,2.8-25.9,4.2-36.6,12
		c-11.3,8.3-18.1,20.7-24.3,32.9c3.1,0.4,6.1,0.8,9.1,1.2c-0.1-0.7-0.3-1.4-0.4-2c-0.1-0.3-0.1-0.7-0.2-1c-0.1-0.8,0.1,1.2,0-0.1
		c-0.1-1.4-0.3-2.8-0.3-4.3c-0.1-2.8,0.1-5.5,0.4-8.2c0-0.2,0.1-1,0,0.1c0-0.3,0.1-0.7,0.1-1c0.1-0.6,0.2-1.2,0.3-1.8
		c0.3-1.5,0.6-2.9,1-4.3c0.7-2.6,1.5-5.2,2.5-7.8c0.2-0.6,0.5-1.3,0.8-1.9c0.4-0.9,0.1-0.1,0,0c0.2-0.4,0.3-0.8,0.5-1.1
		c0.6-1.3,1.2-2.5,1.8-3.8c1.3-2.5,2.6-5,4.1-7.4c3-5.1,6.3-9.9,9.8-14.7c0.8-1,1.6-2.1,2.3-3.1c0.3-0.3,0.5-0.7,0.8-1
		c-0.6,0.7-0.1,0.1,0,0c0.5-0.7,1.1-1.3,1.6-2c1.8-2.2,3.5-4.4,5.3-6.6c3.9-4.7,7.7-9.5,11.3-14.4c7.1-9.5,13.4-19.6,17.8-30.6
		c4.9-12.2,6.7-25.5,3.7-38.3c-1-4.3-6.9-4.7-9.1-1.2c-1.4,2.3-2.9,4.5-4.5,6.6c-0.2,0.3-0.4,0.6-0.7,0.9c0.7-0.8,0.2-0.3,0.1-0.1
		c-0.4,0.5-0.9,1.1-1.3,1.6c-0.9,1-1.7,2-2.6,3c-3.6,4-7.5,7.6-11.7,11c-0.2,0.1-1.2,0.9-0.2,0.2c-0.2,0.2-0.5,0.4-0.8,0.6
		c-0.5,0.4-1,0.8-1.5,1.1c-1.1,0.8-2.2,1.5-3.3,2.3c-2.2,1.5-4.5,2.9-6.9,4.1s-4.9,2.5-7.4,3.6c-0.3,0.1-0.6,0.2-0.9,0.4
		c-1.1,0.5,0.7-0.3,0,0c-0.6,0.2-1.2,0.5-1.8,0.7c-1.3,0.5-2.6,1-3.9,1.5c-2.8,1-5.7,1.8-8.6,2.5c-1.5,0.3-3,0.7-4.5,1
		c-0.8,0.1-1.5,0.3-2.3,0.4c-0.2,0-0.5,0.1-0.8,0.1c-0.3,0-2,0.3-0.6,0.1l4.8,6.3c5.4-13.9,6.6-28.8,9.4-43.3
		c1.4-7.1,3.1-14,5.8-20.7c0.5-1.2-0.3,0.7,0,0c0.1-0.3,0.3-0.6,0.4-0.9c0.3-0.7,0.6-1.4,1-2.1c0.7-1.5,1.5-3,2.3-4.4
		c1.6-2.8,3.3-5.5,5.1-8c0.4-0.5,0.8-1,1.1-1.5c0.1-0.2,0.9-1.2,0.1-0.2c0.2-0.3,0.5-0.6,0.7-0.9c1-1.3,2.1-2.6,3.2-3.8
		c2.1-2.4,4.4-4.7,6.7-6.9s4.6-4.1,7-6c1-0.8-0.8,0.6,0.2-0.2c0.3-0.2,0.6-0.5,0.9-0.7c0.6-0.5,1.2-0.9,1.9-1.4
		c1.4-1,2.8-1.9,4.2-2.8c5.4-3.5,11.1-6.6,17-9.3c0.8-0.4,1.7-0.8,2.5-1.1c0.3-0.1,0.6-0.2,0.8-0.4c-1,0.4,0.4-0.2,0.5-0.2
		c1.8-0.8,3.7-1.5,5.5-2.2c3.6-1.3,7.2-2.5,10.9-3.6c8.1-2.4,16.3-4.2,24.6-5.7c4.1-0.7,8.2-1.4,12.3-2c1.1-0.2,2.1-0.3,3.2-0.5
		c1.5-0.2-1,0.1,0.5-0.1c0.6-0.1,1.2-0.2,1.8-0.2c2.1-0.3,4.2-0.5,6.4-0.8c2.6-0.3,5.1-2.1,5-5C221.5,379,219.4,376.1,216.6,376.4
		L216.6,376.4L216.6,376.4z"/>
</g>
<g>
	<path class="st2" d="M433.5,417.3c5.5,26.8,11,54.4,5.8,81.2c-5.8,29.9-24.5,55.8-46,77.4c-30.6,30.8-68.1,55.2-109.7,67.5
		c-2.5-14.5,1.5-29.2,6.1-43.1c7.7-23.4,43.6-119.4,45.5-136.2c0.8-7.5-1.3-8.9,3.5-14.7c2.7-3.4,7.3-4,11.2-5.9
		c27.3-13.6,55.5-15.1,82.8-28.6"/>
	<path d="M428.7,418.7c2.2,10.8,4.4,21.7,6,32.6c0,0.3,0.1,0.6,0.1,1c-0.1-0.9,0,0,0,0.1c0.1,0.6,0.2,1.3,0.2,1.9
		c0.2,1.5,0.3,2.9,0.5,4.3c0.3,2.7,0.5,5.5,0.6,8.2c0.3,5.5,0.4,10.9,0,16.4c-0.1,2.7-0.4,5.4-0.7,8.2c0,0.2-0.1,1,0,0.1
		c-0.1,0.3-0.1,0.6-0.1,1c-0.1,0.6-0.2,1.3-0.3,1.9c-0.2,1.4-0.5,2.7-0.8,4.1c-0.9,4.5-2.2,8.9-3.6,13.3c-0.8,2.2-1.6,4.4-2.4,6.5
		c-0.1,0.2-0.2,0.5-0.3,0.8c-0.3,0.7,0.3-0.7,0-0.1c-0.2,0.6-0.5,1.1-0.7,1.7c-0.5,1.1-1,2.1-1.5,3.2c-2,4.2-4.3,8.3-6.7,12.3
		c-2.4,4-5,7.8-7.7,11.5c-0.7,1-1.4,1.9-2.1,2.8c-0.2,0.2-0.3,0.4-0.5,0.7c-0.1,0.1-0.6,0.8-0.2,0.3s-0.2,0.2-0.2,0.3
		c-0.2,0.3-0.4,0.5-0.6,0.8c-1.5,1.8-3,3.7-4.5,5.5c-6.1,7.2-12.7,14-19.5,20.5c-6.9,6.5-14.1,12.7-21.6,18.6c-0.1,0.1-0.8,0.6,0,0
		c-0.2,0.2-0.4,0.3-0.7,0.5c-0.4,0.3-0.9,0.7-1.3,1c-1,0.8-2,1.5-3,2.2c-1.9,1.4-3.9,2.8-5.8,4.1c-3.8,2.7-7.8,5.2-11.7,7.7
		c-8.1,5-16.4,9.5-24.9,13.6c-2.1,1-4.3,2-6.5,3c-0.5,0.2-1,0.5-1.5,0.7c-0.3,0.1-0.5,0.2-0.8,0.3c-0.7,0.3,0.7-0.3,0,0
		c-1.1,0.5-2.2,0.9-3.3,1.3c-4.4,1.8-8.9,3.4-13.3,4.9c-2.2,0.8-4.5,1.5-6.8,2.1l6.1,3.5c-0.1-0.5-0.1-0.9-0.2-1.4
		c0.2,1.1-0.1-0.4-0.1-0.5c-0.1-0.9-0.2-1.9-0.2-2.8c-0.1-1.9-0.1-3.8,0-5.6s0.2-3.8,0.5-5.6c0.2-1.5-0.2,1,0.1-0.5
		c0.1-0.5,0.1-0.9,0.2-1.4c0.1-0.9,0.3-1.9,0.5-2.8c1.3-6.9,3.4-13.7,5.6-20.3c1.8-5.4,3.7-10.8,5.6-16.1
		c5.8-16.5,11.7-32.9,17.5-49.3c5.8-16.5,11.6-33,16.8-49.7c1.7-5.5,3.4-11,4.7-16.6c0.6-2.9,1.1-5.9,1.1-8.8c0-1,0-2,0-3
		c0-0.5,0.1-0.9,0.1-1.4c0-0.9-0.3,1.3-0.1,0.4c0.1-0.2,0.1-0.5,0.1-0.7s0.2-0.5,0.2-0.7c0.2-0.9-0.6,1.1-0.1,0.2
		c0.3-0.5,0.6-1.1,0.9-1.6c0.2-0.3,0.4-0.6,0.6-0.9c-0.7,1,0,0,0.2-0.2c0.2-0.2,0.4-0.4,0.6-0.7c0.9-0.9-0.6,0.3,0.2-0.2
		c0.6-0.4,1.2-0.7,1.9-1c0.3-0.1,1.2-0.7,0.1-0.1c0.3-0.2,0.7-0.3,1-0.4c1.7-0.6,3.4-1.2,5-2s3.3-1.6,4.9-2.3c0.7-0.3,1.4-0.7,2.2-1
		c0.1,0,1.5-0.6,0.6-0.2c0.6-0.2,1.2-0.5,1.8-0.7c6.9-2.8,14-5,21.2-7.1c14.2-4.1,28.7-7.4,42.4-13c3.7-1.5,7.3-3.1,10.8-4.8
		c2.4-1.2,3.2-4.7,1.8-6.8c-1.6-2.4-4.3-3-6.8-1.8c-1.7,0.8-3.5,1.7-5.2,2.5c-0.4,0.2-0.9,0.4-1.3,0.6c-1.4,0.6,0.9-0.4-0.6,0.2
		c-1,0.4-2,0.8-3.1,1.2c-3.5,1.3-7,2.6-10.6,3.7c-7,2.2-14.1,4.2-21.2,6.1s-14.2,3.9-21.2,6.3c-3.6,1.2-7.2,2.6-10.8,4.1
		c-1.9,0.8-3.9,1.6-5.8,2.5c-0.9,0.4-1.8,0.8-2.6,1.2c-0.4,0.2-0.7,0.4-1.1,0.5c-0.5,0.2-0.5,0.2,0.2-0.1c-0.2,0.1-0.5,0.2-0.7,0.3
		c-3.3,1.3-6.6,2.4-9.5,4.6c-2.5,2-4.4,5.1-5.5,8.1c-0.8,2.2-0.7,4.5-0.7,6.8c0,1.3,0,2.7-0.1,4c0,0.4-0.1,0.7-0.1,1.1
		c0,0.1,0.3-1.7,0.1-0.6c-0.8,4.9-2.3,9.7-3.7,14.4c-4.9,16.3-10.5,32.3-16.1,48.4c-6,17.1-12.1,34.2-18.2,51.3
		c-2.1,6-4.3,12-6.3,18.1c-4,11.9-7.8,24.2-8.1,36.9c-0.1,4.1,0.3,8.1,0.9,12.1c0.4,2.6,3.8,4.2,6.1,3.5
		c18.7-5.6,36.7-13.5,53.6-23.3s32.7-21.6,47.2-34.8c14.4-13,27.7-27.5,38.5-43.7c5.4-8.2,10-16.8,13.7-25.8
		c3.7-9.1,6.3-19.2,7.6-29.3c2.8-22.5-1.1-45.2-5.5-67.2c-0.5-2.7-1.1-5.4-1.6-8.1s-3.7-4.3-6.1-3.5
		C429.4,413.4,428.1,415.9,428.7,418.7L428.7,418.7L428.7,418.7z"/>
</g>
<g>
	<path class="st3" d="M336.8,282.7L336.8,282.7c-21.2-4.4,8.1-113.1-12.8-107.2c-88.2,24.9-9.3-50.3-68.3,19.8
		c-44.1,52.4-79.3,118.8-97.1,184.9c-9.1,33.9,102.8,131.1,139.2,113.8c61.8-29.4,146.6-72.4,190.2-125.1c58.4-70.6-8,16.5,0.6-74.7
		C490.8,272.7,344.9,302.9,336.8,282.7L336.8,282.7z"/>
	<path d="M338.1,277.9c-0.2,0-0.5-0.1-0.7-0.2c-0.9-0.2,1.2,0.7,0.5,0.2c-0.2-0.1-0.4-0.3-0.6-0.4c-0.9-0.5,0.8,0.8,0.3,0.3
		c-0.3-0.4-0.7-0.7-1-1c-0.1-0.1,0.8,1.3,0.2,0.2c-0.1-0.2-0.3-0.5-0.4-0.8s-0.3-0.5-0.4-0.8c-0.6-1.1,0.2,0.7,0.1,0.2
		c-0.2-0.7-0.5-1.3-0.7-2c-0.4-1.5-0.7-2.9-1-4.4c-0.1-0.4-0.1-0.7-0.2-1.1c0.5,1.8,0,0.3,0-0.2c-0.1-0.9-0.2-1.8-0.2-2.7
		c-0.1-1.9-0.2-3.8-0.3-5.7c-0.1-4.4,0-8.8,0.2-13.1c0.8-18.1,3.4-36.2,3.1-54.4c-0.1-5.7-0.2-12.8-3.7-17.6c-1.9-2.6-4.7-4.3-8-4.2
		c-2.7,0.1-5.3,1.2-7.9,1.8c-3.2,0.8-6.5,1.6-9.8,2.2c-1.4,0.3-2.7,0.5-4.1,0.7c-0.4,0-0.7,0.1-1,0.2c-1.2,0.2-0.1-0.2,0,0
		c-0.1-0.1-1.7,0.2-1.9,0.2c-2.1,0.2-4.3,0.4-6.5,0.4c-0.9,0-1.7,0-2.6-0.1c-0.4,0-0.7,0-1.1-0.1c-0.2,0-0.4,0-0.6-0.1
		c-0.8-0.1,1.5,0.2,0.3,0c-1.3-0.2-2.5-0.5-3.7-0.9c-0.1,0-0.3-0.1-0.4-0.2c-0.7-0.2,1.3,0.6,0.7,0.3c-0.2-0.1-0.4-0.2-0.6-0.3
		c-0.5-0.2-0.9-0.5-1.3-0.8c-0.8-0.5,1.1,1,0.4,0.3c-0.1-0.1-0.3-0.2-0.4-0.4c-0.2-0.1-0.3-0.3-0.4-0.5c-0.7-0.7,0.4,0.6,0.3,0.4
		c-0.2-0.3-0.4-0.6-0.6-0.9c-0.8-1.3,0.3,1.3,0,0c-0.1-0.3-0.2-0.7-0.3-1c-0.4-1.4,0.1,1.4,0,0.1c0-0.7,0-1.3,0-2
		c0.1-1.3-0.3,1.5-0.1,0.3c0.1-0.3,0.1-0.6,0.2-0.9c0.2-0.9,0.5-1.8,0.8-2.7c0.1-0.2,0.2-0.4,0.2-0.6c1-4.2-3.4-8-7.4-5.7
		c-1.3,0.8-2.1,2.2-3,3.4c-1.3,1.9-2.7,3.7-4.1,5.5c-0.5,0.7-1,1.3-1.5,2c-0.8,1,0.7-0.9-0.1,0.2c-0.4,0.5-0.8,1-1.2,1.5
		c-1.6,2-3.1,3.9-4.7,5.9c-10,12.4-20.4,24.5-29.9,37.3c-21,28.5-39,59.3-53.5,91.6c-7.4,16.4-14,33.2-19.6,50.4
		c-1.3,4.1-2.6,8.2-3.8,12.3c-0.9,3.1-2,6.3-2.6,9.5c-0.7,3.5-0.5,6.8,0.2,10.3c1.4,7.3,5.1,14.2,8.9,20.5c5.2,8.3,11.4,16,18,23.3
		c14.7,16.3,31.7,30.8,49.8,43.2c8.3,5.7,16.9,10.9,26.1,15.2c7.7,3.6,15.9,6.9,24.4,8.1c3.6,0.5,7.1,0.8,10.7,0.3
		c4.6-0.6,8.3-2.3,12.5-4.2c13.4-6.4,26.6-12.9,39.8-19.6c28.6-14.6,56.8-30.3,83.3-48.5c13-8.9,25.6-18.4,37.5-28.7
		c11-9.6,20.9-20,30.2-31.2c6.1-7.4,12.4-14.6,18.3-22.1c1.2-1.5,2.5-3,3.3-4.7c1.9-3.7-0.1-8.3-4.6-8.4c-1.3,0-2.6,0.3-3.9,0.6
		c-0.6,0.2-1.3,0.3-1.9,0.4c-0.3,0.1-0.7,0.1-1,0.2c-0.2,0-0.4,0.1-0.6,0.1c-0.3,0.1,1.7-0.2,0.6-0.1c-0.8,0.1-1.7,0.1-2.5,0.1
		c-0.4,0-0.8-0.1-1.2-0.1c2.1,0,0.5,0.1-0.1-0.1c-0.4-0.1-0.8-0.3-1.2-0.4c-0.9-0.3,1.3,0.7,0.5,0.2c-0.3-0.1-0.5-0.3-0.8-0.4
		c-0.4-0.2-0.8-0.6-1.2-0.8c1.3,0.7,0.9,0.7,0.4,0.3c-0.2-0.2-0.5-0.5-0.7-0.7c-0.2-0.2-0.4-0.4-0.5-0.5s-0.9-1.1-0.2-0.2
		s0-0.1-0.2-0.3c-0.2-0.3-0.4-0.6-0.6-0.9c-0.4-0.6-0.6-1.2-1-1.8c-0.6-1.3,0.4,1-0.1-0.1c-0.1-0.4-0.3-0.8-0.4-1.2
		c-0.6-1.8-1.1-3.7-1.4-5.6c-0.1-0.5-0.2-1-0.3-1.6c0-0.2-0.2-0.6-0.1-0.7c-0.2,0.7,0.1,1,0,0.1c-0.1-1.3-0.3-2.7-0.4-4
		c-0.4-6.6-0.1-13.2,0.4-19.7c0.3-3.3,0-6.1-2.4-8.6c-3.7-4-9.9-4.9-15.1-5.6c-7.3-0.9-14.8-0.9-22.2-0.8c-19.3,0.4-38.6,2-57.9,3.1
		c-9.3,0.5-18.6,0.9-27.8,0.9c-3.8,0-7.6-0.1-11.5-0.4c-1.7-0.1-3.4-0.3-5.1-0.5c-1.2-0.1,1.4,0.2,0,0c-0.4,0-0.7-0.1-1.1-0.2
		c-0.8-0.1-1.5-0.3-2.2-0.4c-1.2-0.2-2.4-0.5-3.6-0.9c-0.5-0.2-1-0.4-1.6-0.6c-0.6-0.2,1.5,0.7,0.4,0.2c-0.2-0.1-0.5-0.2-0.7-0.4
		c-0.4-0.2-0.8-0.5-1.2-0.7c-0.6-0.4-0.4-0.8,0.5,0.4c-0.1-0.2-0.4-0.3-0.5-0.4c-0.1-0.1-0.2-0.3-0.4-0.4c-0.7-0.7,0.7,1.2,0.3,0.5
		c-0.3-0.5-0.9-1.8-0.1,0.2c-1-2.5-3.3-4.3-6.1-3.5c-2.4,0.6-4.5,3.6-3.5,6.1c3.7,8.8,15.4,9.8,23.6,10.5
		c13.1,1.1,26.3,0.4,39.3-0.3c15-0.8,30-1.9,45-2.6c6.7-0.3,13.4-0.6,20.1-0.6c2.9,0,5.7,0.1,8.6,0.2c2.5,0.1,5,0.5,7.4,0.6
		c0.1,0-1.5-0.2-0.8-0.1c0.1,0,0.2,0,0.4,0c0.2,0,0.5,0.1,0.7,0.1c0.5,0.1,1.1,0.2,1.6,0.3c0.9,0.2,1.8,0.4,2.8,0.6
		c0.4,0.1,0.8,0.2,1.2,0.4c0.7,0.2,1.6,1,0.1,0c0.5,0.4,1.2,0.6,1.8,1c1,0.6-1-1-0.2-0.2c0.2,0.2,0.4,0.5,0.6,0.6
		c0.4,0.3-0.6-1.1-0.5-0.6c0,0.1,0.2,0.2,0.2,0.3c0.4,1-0.5-1.4-0.2-0.4c0.3,1-0.1-0.1,0-0.5c0,0.2,0,0.6,0,0.8
		c-0.1,2.9-0.5,5.8-0.6,8.7c-0.4,8.3-0.3,17,1.8,25c1.2,4.7,3.4,9.6,7.2,12.7c5.6,4.6,12.2,4.4,18.9,2.8c0.4-0.1,0.8-0.2,1.1-0.3
		c1.3-0.3-1.5,0-0.4,0.1c0.8,0-1.6-0.3-1-0.1c-1-0.3-2.1-1-2.8-2.1c-0.4-0.6-0.6-1.7-0.6-2.3c0-1.4,0.3-1.6,0.1-1
		c0.6-2,0.4-0.8-0.1-0.2c-0.3,0.5-0.7,1-1.1,1.5c-0.9,1.2,0.7-0.9,0,0c-0.3,0.4-0.6,0.8-0.9,1.2c-0.7,0.9-1.5,1.8-2.2,2.7
		c-12.3,14.9-24.4,30.1-38.6,43.3c-4.1,3.9-8.4,7.6-12.8,11.2c-2.3,1.9-4.6,3.7-6.9,5.5c-0.5,0.4-1.1,0.8-1.6,1.3
		c-0.1,0.1-1.6,1.2-1,0.8c-1.2,0.9-2.4,1.9-3.7,2.8c-9.7,7.3-19.7,14.1-29.9,20.7c-20.5,13.2-41.9,25.1-63.5,36.3
		c-10.3,5.3-20.7,10.5-31.1,15.6c-4.9,2.4-9.8,4.7-14.7,7.1c-1.2,0.6-2.3,1.1-3.5,1.7c-0.4,0.2-0.8,0.3-1.1,0.5
		c-0.6,0.3,1.4-0.5,0.3-0.1c-1,0.3-2.1,0.7-3.1,0.9c-0.5,0.1-1.1,0.1-1.5,0.3c1.4-0.5,1-0.1,0.4-0.1c-0.3,0-0.7,0.1-1,0.1
		c-1.2,0.1-2.4,0.1-3.7,0c-0.6,0-1.2-0.1-1.9-0.1c-0.3,0-0.6-0.1-0.9-0.1c-0.1,0-0.3,0-0.4,0c-0.9-0.1,1.3,0.2,0.4,0.1
		c-1.3-0.2-2.7-0.4-4-0.7c-3-0.7-5.9-1.5-8.8-2.6c-1.5-0.5-3-1.1-4.5-1.7c-0.2-0.1-0.4-0.2-0.5-0.2c-0.8-0.3,0.3,0.2,0.4,0.2
		c-0.4-0.1-0.9-0.4-1.2-0.5c-0.8-0.4-1.6-0.7-2.5-1.1c-6.8-3.2-13.4-6.9-19.8-10.9c-3.4-2.2-6.8-4.4-10-6.7
		c-1.7-1.2-3.4-2.4-5.1-3.7c-0.8-0.6-1.5-1.2-2.3-1.7c-0.4-0.3-0.8-0.6-1.1-0.9c-0.1,0-1-0.8-0.4-0.3c0.6,0.5-0.2-0.2-0.4-0.3
		c-13.1-10.2-25.4-21.4-36.4-33.7c-2.5-2.8-4.9-5.7-7.3-8.6c-0.3-0.3-0.5-0.7-0.8-1c-0.2-0.2-0.3-0.4-0.5-0.6
		c0.1,0.1,0.7,0.9,0.2,0.3c-0.6-0.7-1.1-1.5-1.7-2.2c-1-1.3-2-2.7-2.9-4.1c-1.8-2.7-3.5-5.4-5.1-8.2c-0.7-1.2-1.4-2.5-2-3.8
		c-0.3-0.6-0.6-1.2-0.9-1.8c-0.1-0.3-0.2-0.6-0.4-0.9c-0.3-0.5,0.4,1.1,0.2,0.6c-0.1-0.2-0.2-0.4-0.3-0.6c-0.9-2.2-1.7-4.6-2.1-6.9
		c-0.1-0.5-0.2-1.1-0.3-1.6c0.4,1.7,0,0.3,0-0.5c-0.1-1-0.1-2,0-3c0-0.2,0.1-0.5,0.1-0.7c0.1,0.4-0.2,1.4-0.1,0.5
		c0.1-0.6,0.3-1.2,0.4-1.8c0.9-3.2,1.8-6.4,2.7-9.6c1.9-6.3,3.9-12.6,6-18.8c8.8-25.5,19.6-49.6,32.5-73.4
		c6.4-11.8,13.3-23.4,20.7-34.7c3.7-5.7,7.5-11.3,11.4-16.8c1.9-2.7,3.8-5.3,5.8-7.9c1.8-2.4,3.9-5.2,5.5-7.2
		c10.9-14,22.8-27.2,33.3-41.5c0.7-1,1.4-1.9,2.1-2.9c0.2-0.2,0.4-0.5,0.5-0.8c0.4-0.6-1,1.2-0.6,0.8c-0.7,0.7-3.3,1.6-4.8,1.2
		l-2.2-1.3c-0.8-0.7-1.8-3.8-1.3-4.7c0,0.1-0.1,0.2-0.1,0.3c-0.1,0.3-0.2,0.6-0.3,0.9c-0.3,1-0.6,1.9-0.8,2.9
		c-0.7,3.8-0.4,7.7,1.7,11c3.2,4.9,8.9,6.6,14.4,7.2c9.3,1,19.1-1.2,28-3.4c1.6-0.4,3.1-0.8,4.7-1.2c1-0.3,2.3-0.4,3.2-0.8
		c-0.9,0.5-1.5,0.1-0.7,0.1c0.1,0,0.4,0.1,0.5,0c0.3-0.1-1.6-0.3-0.7-0.1c0.8,0.2,0.3,0.6-0.5-0.3c0.1,0.1,0.3,0.2,0.4,0.2
		c0.6,0.4-0.1,0.4-0.5-0.4c0.1,0.1,0.3,0.3,0.4,0.4c0.5,0.5,0.2,0.9-0.3-0.4c0.1,0.3,0.4,0.7,0.6,1c0.1,0.2,0.2,0.4,0.3,0.6
		c0.1,0.1-0.5-1.5-0.1-0.3c0.4,1.1,0.6,2.1,0.9,3.2c0.1,0.6,0.2,1.2,0.3,1.8c-0.4-1.9-0.1-0.6,0-0.2c0,0.4,0.1,0.8,0.1,1.2
		c0.3,3.3,0.3,6.6,0.3,9.9c-0.2,17-2.4,33.9-3.1,50.9c-0.3,7.8-0.4,15.5,0.7,23.2c0.8,5.6,2.5,11.8,7.5,15.1c1,0.7,2.2,1.2,3.4,1.5
		c2.6,0.6,5.5-0.8,6.1-3.5C342.3,281.5,340.9,278.5,338.1,277.9L338.1,277.9z"/>
</g>
<g>
	<path class="st2" d="M213.2,241.5c-27.2-1.8-55.4-3.6-81.2,5.2c-28.8,9.8-52,31.9-70.5,56c-26.4,34.5-45.4,75-52,117.9
		c14.7,0.5,28.7-5.5,41.9-11.9c22.1-10.8,112.4-59.4,128.8-63.5c7.3-1.8,8.9,0,14.1-5.4c3-3.2,2.9-7.8,4.3-11.9
		c9.7-28.9,7.4-57,17.1-85.9"/>
	<path d="M213.2,236.5c-21.7-1.5-43.6-2.8-65.1,1c-19.6,3.4-37.6,11.9-53.3,24c-15.4,11.9-28.4,26.4-40,42s-22.1,33.1-30.4,51.1
		C16,373,9.6,392.2,5.9,412.1c-0.4,2.4-0.9,4.8-1.2,7.2c-0.2,1.6-0.1,3,0.9,4.4c1,1.3,2.3,1.9,3.9,2c15.4,0.5,30-5.6,43.6-12.2
		c5.1-2.5,10.1-5.1,15.2-7.7c15.5-8,31-16.1,46.6-24.1s31.6-16.2,47.7-23.8c3-1.4,6.1-2.8,9.2-4.2c0.6-0.3,1.2-0.5,1.8-0.8
		c0.2-0.1,0.3-0.1,0.5-0.2c0.7-0.3-1.3,0.5-0.6,0.2c0.4-0.1,0.7-0.3,1-0.4c1.1-0.4,2.1-0.9,3.2-1.3c2.4-0.9,4.8-1.6,7.3-2
		c0.3,0,1.4-0.2-0.2,0c0.3,0,0.5-0.1,0.8-0.1c0.9-0.1,1.7-0.2,2.5-0.3c0.9-0.1,1.8-0.3,2.6-0.6c2.9-1,5.3-3,7.3-5.2
		c2.6-2.9,3.6-6.5,4.4-10.2s2.1-7.1,3.1-10.7c2-7.4,3.4-15,4.6-22.5c0.6-4,1.1-8.1,1.7-12.1c0.2-1.9,0.5-3.7,0.7-5.6
		c0.1-0.8,0.2-1.6,0.3-2.3c0.2-1.5-0.1,1,0.1-0.5c0.1-0.6,0.2-1.2,0.3-1.9c1.1-7.6,2.3-15.1,4.1-22.5c0.9-3.8,2-7.6,3.3-11.3
		c0.8-2.5-1-5.6-3.5-6.1c-2.8-0.6-5.3,0.8-6.1,3.5c-5,14.9-6.9,30.4-9,45.9c-0.1,0.9-0.2,1.9-0.4,2.8c-0.1,0.5-0.1,0.9-0.2,1.4
		c0-0.2,0.1-0.9,0,0.1c-0.3,2-0.6,4.1-0.9,6.1c-0.6,3.8-1.2,7.5-1.9,11.2s-1.6,7.6-2.6,11.3c-0.9,3.5-2.2,6.8-3,10.3
		c-0.3,1.5-0.6,2.9-1.1,4.4c-0.1,0.4-0.2,0.7-0.4,1.1c0.6-1.2,0,0-0.1,0.2c-0.2,0.3-0.4,0.7-0.6,1l0.3-0.4c-0.2,0.2-0.4,0.4-0.5,0.6
		c-0.5,0.5-1,1-1.5,1.5l-0.2,0.2c-0.4,0.3-0.3,0.2,0.3-0.2c-0.2,0.1-0.5,0.3-0.7,0.4s-0.4,0.2-0.6,0.4c-0.7,0.4-0.5-0.1,0.4-0.1
		c-0.4,0-0.9,0.3-1.3,0.4c-0.4,0.1-0.9,0.2-1.3,0.2c-0.9,0.2,1.3-0.2,0.4,0c-0.3,0-0.5,0.1-0.8,0.1c-1.6,0.2-3.1,0.4-4.7,0.7
		c-1.1,0.2-2.2,0.5-3.3,0.9c-5.2,1.7-10.3,4.1-15.3,6.4c-15.5,7.1-30.7,14.9-45.8,22.6c-15.9,8.1-31.8,16.4-47.6,24.6
		c-5.5,2.8-11,5.7-16.5,8.5c-4.2,2.1-8.5,4.1-12.8,6c-1.4,0.6,0.9-0.4-0.5,0.2c-0.4,0.2-0.9,0.3-1.3,0.5c-0.7,0.3-1.4,0.6-2.1,0.8
		c-1.8,0.7-3.7,1.4-5.6,2c-3.4,1.1-6.9,2-10.5,2.6c-0.3,0-0.6,0.1-0.9,0.1c-1.5,0.2,1-0.1-0.4,0.1c-0.9,0.1-1.8,0.2-2.7,0.2
		c-1.8,0.1-3.6,0.2-5.4,0.1l4.8,6.3c3-19.4,8.5-38.3,16.1-56.4c-0.4,0.9,0.2-0.5,0.3-0.8c0.2-0.5,0.4-1,0.7-1.6
		c0.5-1.2,1-2.4,1.6-3.5c1-2.2,2.1-4.4,3.1-6.6c2.2-4.4,4.5-8.8,6.9-13.1c4.8-8.6,10-16.9,15.7-24.9c1.4-2,2.8-4,4.3-5.9
		c0.7-0.9,1.4-1.8,2.1-2.8c0.3-0.5,0.7-0.9,1-1.4c0.6-0.7,0.1-0.1,0,0c0.2-0.3,0.5-0.6,0.8-1c2.8-3.6,5.8-7.2,8.8-10.6
		c6.1-7,12.7-13.6,19.8-19.6c0.9-0.7,1.8-1.5,2.6-2.2c0.4-0.3,0.8-0.7,1.3-1c0.2-0.2,0.4-0.3,0.6-0.5c0.1-0.1,1-0.8,0.4-0.4
		c-0.6,0.5,0.4-0.3,0.4-0.4c0.2-0.2,0.4-0.3,0.6-0.5c0.4-0.3,0.9-0.6,1.3-1c1-0.7,2-1.4,2.9-2.1c3.7-2.6,7.6-5,11.6-7.2
		c2-1.1,4-2.1,6.1-3.1c1-0.5,1.9-0.9,2.9-1.3c0.2-0.1,0.5-0.2,0.7-0.3c-1,0.4-0.3,0.1-0.1,0c0.6-0.2,1.2-0.5,1.9-0.8
		c4.6-1.8,9.4-3.3,14.3-4.5c2.6-0.6,5.2-1.2,7.9-1.6c1.2-0.2,2.4-0.4,3.6-0.6c0.4-0.1,0.8-0.1,1.1-0.2c-0.2,0-1,0.1,0,0
		c0.7-0.1,1.4-0.2,2.1-0.2c5.3-0.6,10.6-0.9,15.9-1c10.6-0.3,21.1,0.2,31.6,0.9c2.6,0.2,5.2,0.3,7.9,0.5s5.1-2.4,5-5
		C218,238.6,216,236.6,213.2,236.5L213.2,236.5L213.2,236.5z"/>
</g>
<ellipse class="st4" cx="402.1" cy="238.5" rx="114" ry="112.5"/>
<path class="st5" d="M406.5,255.3c-18.2,23.4-27.8,53.4-26.3,83c0.2,3.3,0.5,6.6,2.1,9.5c2.8,4.8,8.7,6.9,14.2,7.9
	c21.3,3.9,43.5-2.5,61.7-14s32.8-28.1,45.4-45.7c5.5-7.7,10.9-16.7,9.5-26c-1.9-13.1-15.8-20.6-28.3-25c-12-4.2-24.4-7.4-36.9-9.7
	c-6.1-1.1-12.4-2-18.4-0.5c-12.5,3-20.6,14.8-27.4,25.7"/>
<g id="Layer_7">
	<g>
		<g>
			<path class="st6" d="M373.2,183.1c-3.9-1.6-9-2.9-13.2-2.5c-4.6,0.5-9.2,2.1-12.6,5.2c-3.7,3.4-5.7,8.4-6.2,13.4
				c-0.2,2-0.1,4.1,0.5,6c1.7,4.8,7.1,8.4,6.6,13.4c-0.2,2.7-2.4,3.8-3.9,6.1s-2.7,5.1-1.5,8c0.8,2,3.5,3.6,4.5,5.5
				c1.2,2.2,0.4,4.9-0.5,7.2c-0.7,2.1-2.1,5.2-2.4,9.4c-0.2,3.2,0.4,6.6,2.5,9.2c2.1,2.6,5.4,3.9,8.8,4.3s6.6-0.1,9.9-0.6
				c-1.9-14.5-5.1-29-5.3-43.6C360.3,209.4,364.2,194.7,373.2,183.1"/>
			<path class="st7" d="M374.2,179.5c-4.5-1.9-9.7-3.1-14.6-2.5c-5.3,0.6-10.3,2.4-14.4,5.8c-3.7,3.2-6.2,7.9-7.2,12.7
				c-1.1,5.2-0.8,10.4,2.2,15c1.1,1.6,2.4,3.1,3.4,4.9c0.3,0.4,0.5,0.9,0.7,1.3c0.2,0.5-0.2-0.5,0,0c0.1,0.2,0.1,0.5,0.2,0.8
				c0.1,0.1,0.1,0.7,0,0c0,0.2,0,0.4,0,0.6s0,0.5,0,0.7c0.1-0.7-0.3,0.6,0.1-0.2c-0.1,0.2-0.8,1.2-0.3,0.6c-0.3,0.4-0.6,0.7-0.9,1
				c-0.9,1-1.8,2-2.5,3.1c-1.6,2.4-2.6,5.4-2.2,8.4s1.8,4.9,3.8,6.8c0.3,0.3,0.7,0.7,1,1c0.2,0.2,0.3,0.3,0.5,0.5
				c-0.4-0.5-0.1-0.1,0,0c0,0.1,0.3,0.7,0.2,0.3c0.1,0.7,0,1-0.1,1.5c-0.4,2-1.2,3.8-1.9,5.8c-0.8,2.4-1.3,4.9-1.5,7.5
				c-0.4,5.9,2.1,12,7.4,14.9c5.8,3.2,12.3,2.4,18.5,1.5c1.4-0.2,2.9-2.1,2.8-3.6c-1.6-12.1-4-24-5-36.1c-0.8-11-0.3-21,3.4-31.4
				c0.9-2.7,1.9-4.8,3.4-7.5c1.3-2.4,3.1-5.1,4.5-7c1.2-1.6,1.6-3.8,0-5.3c-1.3-1.3-4.1-1.6-5.3,0c-6.9,8.8-11.2,19.3-12.9,30.4
				c-1.8,12.1-0.5,24.2,1.3,36.3c1,6.8,2.2,13.8,3.1,20.5l2.8-3.6c-2.3,0.4-4.6,0.7-7.1,0.6c-1.4,0-1.7,0-2.8-0.3
				c-0.4-0.1-0.9-0.2-1.3-0.4c-0.2-0.1-0.5-0.2-0.7-0.3c-0.2-0.1-0.2-0.1,0,0l-0.4-0.2c-0.4-0.2-0.9-0.5-1.3-0.8
				c-0.1,0-0.6-0.4-0.2-0.1c-0.2-0.2-0.4-0.3-0.6-0.5c-0.8-0.8-1-1-1.5-2.1c0.2,0.4-0.1-0.2-0.1-0.2c-0.1-0.3-0.2-0.5-0.2-0.8
				c-0.1-0.5-0.3-1-0.3-1.6c0.1,0.5,0-0.7,0-0.8c0-0.6,0-1.2,0-1.8c0.1-1.6,0.6-3.7,1.3-5.6c0.6-1.7,1.3-3.4,1.7-5.2
				c0.6-2.7,0.6-5.5-0.8-7.9c-1.1-1.8-2.9-3-4.1-4.6c0.5,0.6-0.2-0.7-0.1-0.2c-0.1-0.3-0.2-0.6-0.2-0.9c0,0.2,0,0.2,0-0.3
				s0.3-1.6,0.6-2.1c0.3-0.5,0.6-1,0.9-1.4c0.1-0.1,0.4-0.5,0.1-0.1c0.1-0.1,0.2-0.3,0.4-0.4c0.8-0.9,1.6-1.7,2.3-2.7
				c2.8-3.8,1.7-8.7-0.7-12.4c-1-1.6-2.2-3-3.2-4.6c-0.2-0.4-0.5-0.8-0.7-1.2c-0.1-0.2-0.2-0.4-0.3-0.6c0,0-0.2-0.5-0.1-0.2
				c0.2,0.4-0.1-0.3-0.1-0.4c-0.1-0.3-0.2-0.5-0.2-0.8c0-0.1-0.2-0.9-0.1-0.6c0,0.1-0.1-0.8-0.1-0.8c0-0.6,0-1.2,0-1.7
				c0-0.2,0-0.4,0.1-0.6c0-0.1,0.1-0.9,0-0.5s0.1-0.4,0.1-0.5c0-0.3,0.1-0.5,0.1-0.8c0.1-0.6,0.3-1.2,0.4-1.7c0.1-0.5,0.3-1,0.5-1.5
				c0.1-0.2,0.1-0.4,0.2-0.6c0.2-0.6-0.2,0.4,0.1-0.2c0.5-1,1-2,1.6-2.9c1-1.5,2.6-2.9,4.5-4c1.2-0.7,1.7-0.9,2.8-1.2
				s2.4-0.7,3.6-0.9c0.9-0.2,1.5-0.2,2.8-0.3c0.6,0,1.2,0,1.8,0.1c0.3,0,0.6,0,0.8,0.1c-0.5-0.1,0.3,0.1,0.5,0.1
				c2.5,0.4,4.9,1.2,7.3,2.2c1.8,0.8,4.2-0.8,4.6-2.6C377.4,181.9,376.2,180.3,374.2,179.5L374.2,179.5L374.2,179.5z"/>
		</g>
		<path class="st8" d="M364.6,262.5c-2.3-21.4-10.9-52,4.2-74.9c4.4-6,11-11.5,18-14.2c12.8-4.7,30.5-5.8,44.8-1.4
			c4.7,1.6,9.9,4,14.8,1.9c3.7-1.4,6.9-3.8,10.9-4.9c7.1-1.8,14.8,1.1,20,6.1c6.9,6.4,6.7,14.8,5,23.4c0,0.1,0,0.2-0.1,0.3
			c-0.3,2.5,0.1,5,1.4,7.2c2,3.3,5.4,6.4,5.2,10.6c0,3.4-2.4,6.7-2.7,10c-0.2,5.7,3.6,10,3.4,15.7c-0.5,11.1-13.3,16.1-23.1,15.5
			c-8.8-0.6-15.8-7.6-15.8-7.6s-1.9,2.2-4.9,4.6c-3.5,2.7-9,4.3-11.1,4.8c-20.6,4-30.6,16.5-31.9,18.2c-0.1,0.1-0.2,0.2-0.2,0.4
			c-3.1,5.1-4.5,11-6.2,16.7c-4.2,14.6-10.4,29-20.4,40.6c-6.6,7.3-17.6,11.9-27.3,8.5c-5.4-1.9-10.4-5.9-14.1-10.3
			c-4.1-4.9-8.5-12.1-10.9-18.5c-0.8-2.2,6.8-5.3,8-3.7c2.2,2.9,5.7,10.1,10.8,14.2c2.8,2.6,7.1,4.3,10.8,4.4
			c6.7-0.1,9.5-9.4,10.9-15.4C368.5,297.5,364.6,262.5,364.6,262.5L364.6,262.5z"/>
		<path class="st9" d="M418.9,231.3c0.4,3.4,0.5,6.1-2.3,6.4s-3.3-2.4-3.6-5.8s-0.4-6.1,2.3-6.4S418.5,227.9,418.9,231.3z"/>
		<circle class="st10" cx="417.6" cy="225" r="2.7"/>
		<path class="st11" d="M458.3,205.9c3.5-1.1,7.1-2.3,10.6-3.4"/>
		<path class="st11" d="M472.3,229.8c-3.6-0.7-7.3-1.5-10.9-2.2"/>
		<g>
			<path class="st12" d="M415.6,256.2c-2.2-0.3-4.3-0.1-6.1,1.1c-1.6,1.1-2.4,3.5-2.1,6c0.4,3.2,0.5,6.8,0.3,9.6
				c-0.2,5.1-0.7,10.1-1.5,15.1c-1.1,6.9,5.9,11.4,8.5,5.4c2.2-5.2,4.3-10.7,6.3-16.1c1.2-3.4,2.4-7.4,3.3-11.3
				c0.7-3.2-0.6-6.9-3.1-8.1C419.4,256.9,417.3,256.5,415.6,256.2z"/>
			<path class="st7" d="M416.6,252.6c-4.3-0.6-9.3,0.2-11.7,4.3c-2.1,3.8-1,8-0.9,12s-0.2,8.2-0.7,12.3c-0.4,3.8-1.6,7.8-0.5,11.5
				c0.9,3.1,3.1,5.8,6.2,6.8c3.3,1.1,6.7-0.5,8.4-3.4c1.1-1.7,1.7-3.7,2.4-5.6c0.8-2,1.6-4,2.4-6c1.4-3.8,2.9-7.6,4.1-11.5
				c1.2-4.2,2.8-8.9,1.1-13.2c-0.9-2.1-2.1-4-4.1-5.2S418.9,253,416.6,252.6c-1.9-0.3-4.1,0.5-4.6,2.6c-0.4,1.8,0.6,4.3,2.6,4.6
				c1.3,0.2,3,0.6,3.9,0.9c0.4,0.1,0.7,0.4,1.1,0.5c-0.1-0.1-0.5-0.5,0,0c0.1,0.1,0.7,0.9,0.2,0.2c0.2,0.3,0.4,0.6,0.5,0.9
				c-0.4-0.7,0.1,0.3,0.1,0.4c0.1,0.3,0.2,0.7,0.2,1c0-0.2,0-0.6,0,0.1c0,0.4,0,0.7,0,1.1c0.1-0.7,0,0.1-0.1,0.3
				c-0.1,0.4-0.2,0.8-0.3,1.1c-0.2,0.9-0.4,1.8-0.7,2.7c-1.8,6.6-4.4,13-6.9,19.3c-0.6,1.4-1.1,2.6-1.7,3.9c-0.3,0.7,0.3-0.2,0,0
				c-0.1,0.1-0.3,0.4-0.4,0.4c0.5-0.1,0.5-0.4,0-0.1c0.9-0.4,0.4-0.2,0.1-0.1c1.1-0.2,0.5-0.1,0.2-0.1c1.1,0.1,0.5,0,0.2,0
				c-0.5-0.1,0.3,0.1,0.3,0.1c-0.1,0-0.5-0.3-0.6-0.4c0.8,0.4,0.3,0.3,0.1,0c-0.1-0.1-0.3-0.3-0.4-0.5c0.6,0.7,0.1,0.1,0-0.1
				s-0.3-0.5-0.4-0.7c0.4,0.8,0,0,0-0.2c-0.1-0.3-0.1-0.6-0.2-0.9c0,0.1,0,0.8,0,0.1c0-0.3,0-0.6,0-1c-0.1-1-0.1,0.5,0-0.3
				c0.1-0.4,0.1-0.8,0.2-1.2c0.2-1.1,0.3-2.3,0.4-3.4c0.4-3.6,0.8-7.1,0.9-10.7c0.1-1.9,0.1-3.7,0-5.6s-0.4-3.5-0.4-5.3
				c0,0.1,0.1-1.2,0-0.7c0,0.1,0.2-0.8,0.3-1c-0.2,0.7,0.2-0.3,0.2-0.4c-0.4,0.6,0.4-0.4-0.2,0.2c0.8-0.6,0.9-0.5,1.7-0.7
				c0.9-0.2-0.4-0.1,0.6,0c0.1,0,1.5,0.1,1,0c1.9,0.3,4.1-0.5,4.6-2.6C419.6,255.4,418.7,252.9,416.6,252.6L416.6,252.6z"/>
		</g>
	</g>
</g>
<g>
	<path class="st13" d="M581.3,11.6l0.2-0.2c-22.8-4.8-96.5,4-119,10.3c-95.1,26.9-144.3,58.1-207.9,133.7
		c-47.5,56.5-69.2,129.8-88.5,201c-6.9,25.5,128.2,138.1,152,126.8C384.9,451.4,453,417,500.1,360.1c63-76.1,84.9-130.2,94.2-228.5
		C596.5,108.3,590.1,33.3,581.3,11.6L581.3,11.6z M393.8,317.9c-48.3,0-87.4-39.1-87.4-87.4s39.1-87.5,87.4-87.5
		s87.4,39.1,87.4,87.5S442.1,317.9,393.8,317.9L393.8,317.9z"/>
	<g>
		<path d="M584.9,15.1l0.2-0.2c2.2-2.7,1.8-7.5-2.2-8.4c-8.3-1.7-16.9-1.7-25.3-1.5c-11.3,0.2-22.6,1.1-33.8,2.1s-23.4,2.6-35,4.3
			c-8.6,1.3-17.3,2.7-25.7,4.9c-25.1,6.5-50,15.2-73.8,25.6c-21.3,9.4-41.6,20.8-60.4,34.5c-20,14.6-38.2,31.6-55.1,49.7
			c-20.4,21.9-39.3,45.1-54.2,71.2c-15.3,26.9-27,55.8-36.8,85.1c-4.9,14.7-9.4,29.6-13.6,44.5c-2.1,7.4-4.2,14.9-6.2,22.4
			c-0.9,3.3-2.2,6.7-1.9,10.2c0.4,5.1,2.8,9.9,5.4,14.2c3.5,5.8,7.8,11.2,12.1,16.5c11.3,13.4,24,25.5,37.1,37.1
			c14.4,12.7,29.5,24.8,45.2,35.8c12.4,8.7,25.4,17.2,39.6,22.8c4.4,1.7,9.4,3.3,14.2,3.1c3.2-0.1,5.6-1.3,8.6-2.7
			c6.9-3.3,13.7-6.5,20.5-9.9c27.3-13.4,54.4-27.5,79.9-44s49.4-35.2,70-57.4c10.2-11,19.5-22.9,28.6-34.9c8.1-10.7,15.9-21.6,23-33
			c13.1-20.7,24.1-42.7,32.2-65.9c8.6-24.2,13.9-49.3,17.6-74.6c1.9-12.9,3.8-26,4.4-39c0.4-9,0.1-18-0.4-26.9
			c-1.2-22.8-3.4-45.6-7.4-68.1c-1.4-7.6-2.8-15.3-5.6-22.5c-1-2.5-3.3-4.3-6.1-3.5c-2.4,0.6-4.5,3.6-3.5,6.1
			c2.9,7.3,4.4,15.3,5.8,23c1.9,10.9,3.2,20.8,4.3,31.8c2.1,19.8,3.9,40.1,3,60c-0.6,12.4-2.4,24.8-4.2,37.1
			c-1.9,13-4.2,25.9-7.2,38.7c-5.4,23-13.1,45.4-23.4,66.5c-11.1,22.7-25,43.9-40.3,64c-8.7,11.5-17.7,22.9-27.4,33.4
			c-10,10.9-20.8,20.9-32.2,30.2c-22.9,18.7-48.2,34.4-74.1,48.5c-13.1,7.2-26.5,14-39.9,20.6c-6.7,3.3-13.4,6.5-20.2,9.8
			c-1.6,0.8-3.5,1.4-4.9,2.4c0.6-0.4,1.1-0.3,0-0.1c-0.3,0.1-0.8,0.1-1.1,0.2c-0.1,0,1.5-0.1,0.6-0.1c-0.2,0-0.5,0-0.7,0
			c-0.9,0-1.8-0.1-2.6-0.1c-0.7,0,1.4,0.3,0.4,0c-0.2,0-0.5-0.1-0.8-0.1c-0.5-0.1-1-0.2-1.6-0.3c-2.5-0.6-4.9-1.4-7.3-2.4
			c-0.3-0.1-0.6-0.2-0.8-0.3c-0.8-0.3,1,0.4-0.1,0c-0.7-0.3-1.4-0.6-2.2-1c-1.5-0.7-2.9-1.4-4.4-2.1c-3.2-1.6-6.3-3.3-9.3-5.1
			c-7.1-4.2-13.9-8.7-20.6-13.4c-3.7-2.6-7.3-5.2-10.9-8c-1.6-1.2-3.9-3-5.1-3.9c-1.3-1-3.6-2.8-5.3-4.2
			c-14.5-11.6-28.6-23.8-41.7-37c-5.7-5.7-11.3-11.6-16.5-17.7c-1.2-1.4-2.3-2.8-3.4-4.2c-0.2-0.3-0.4-0.6-0.7-0.8
			c-0.8-1,0.3,0.5-0.2-0.2s-1-1.4-1.6-2.1c-1.7-2.4-3.4-4.8-4.9-7.3c-0.7-1.1-1.3-2.2-1.9-3.4c-0.2-0.5-0.5-1-0.7-1.4
			c-0.1-0.2-0.5-1.2-0.1-0.3s-0.1-0.1-0.1-0.3c-0.4-0.9-0.7-1.9-0.9-2.8c-0.1-0.4-0.1-0.8-0.2-1.2c-0.2-0.9,0,1.2,0.1,0.5
			c0-0.2-0.1-0.5-0.1-0.7c0-0.4,0-0.7,0-1.1c0-1.2-0.4,1.3,0,0.1c1-3.2,1.8-6.6,2.7-9.8c2-7.3,4-14.7,6.1-22
			c8.3-29.1,17.5-58,29.6-85.8c11.9-27.5,26.6-54.1,45.6-77.5c16.6-20.5,34.6-40,54.3-57.6c16.9-15.1,35.1-28.4,54.9-39.6
			c20.9-11.8,42.8-20.9,65.5-28.6c12.1-4.1,24.3-8.1,36.6-11.2c8.4-2.1,17-3.5,25.5-4.8c10.8-1.6,21.7-2.9,33-4s22.2-1.9,33.4-2.1
			c4.3-0.1,8.6-0.1,12.9,0.1c1.9,0.1,3.7,0.2,5.6,0.4c0.4,0,0.7,0.1,1.1,0.1c0.9,0.1-1-0.2,0.2,0c0.8,0.1,1.6,0.3,2.3,0.4L578,7.8
			L577.8,8c-1.7,2.1-2,5,0,7.1C579.6,16.9,583.2,17.2,584.9,15.1L584.9,15.1z"/>
		<path d="M393.8,312.9c-2.3,0-4.7-0.1-7-0.3c-1.1-0.1-2.2-0.2-3.3-0.3c-0.3,0-0.6-0.1-0.9-0.1c-0.9-0.1,0.2,0.1,0.3,0
			c-0.6,0.1-1.5-0.2-2-0.3c-4.3-0.7-8.6-1.8-12.8-3.1c-2.1-0.7-4.2-1.5-6.3-2.3c-0.8-0.3,0.2,0.1,0.3,0.1c-0.3-0.1-0.5-0.2-0.8-0.3
			c-0.5-0.2-0.9-0.4-1.4-0.6c-1.1-0.5-2.1-1-3.1-1.5c-3.9-2-7.6-4.2-11.1-6.7c-0.9-0.6-1.7-1.2-2.5-1.9c-0.6-0.4,1,0.8,0.1,0.1
			c-0.2-0.1-0.3-0.3-0.5-0.4c-0.5-0.4-1-0.8-1.5-1.2c-1.6-1.4-3.2-2.8-4.8-4.3s-3-3-4.4-4.6c-0.7-0.8-1.4-1.6-2.1-2.5
			c-0.3-0.3-0.6-0.7-0.8-1c-0.2-0.3-0.4-0.5-0.6-0.8c-0.6-0.8,0.6,0.8,0,0c-2.6-3.4-4.9-7-7-10.7c-1.1-1.9-2.1-3.9-3-5.9
			c-0.2-0.5-0.5-1-0.7-1.5c-0.1-0.2-0.2-0.4-0.3-0.6c0.3,1.2,0.2,0.5,0.1,0.1c-0.4-1.1-0.9-2.2-1.3-3.3c-1.5-4.1-2.7-8.4-3.5-12.6
			c-0.2-1.1-0.4-2.2-0.6-3.4c-0.1-0.5-0.1-0.9-0.2-1.4c-0.2-1.2,0.1,1.2,0,0c0-0.3-0.1-0.7-0.1-1c-0.3-2.3-0.4-4.6-0.5-6.9
			c-0.2-4.5,0-9.1,0.6-13.6c0-0.3,0.1-0.6,0.1-0.9c0.1-0.8-0.2,1.3,0,0.1c0.1-0.5,0.1-1,0.2-1.5c0.2-1.2,0.4-2.4,0.6-3.5
			c0.4-2.2,1-4.3,1.6-6.4s1.3-4.2,2-6.2c0.4-1,0.8-2.1,1.2-3.1c0.1-0.3,0.2-0.8-0.1,0.3c0.1-0.3,0.2-0.5,0.3-0.8
			c0.2-0.6,0.5-1.1,0.8-1.7c1.8-3.9,3.9-7.7,6.2-11.2c0.6-0.9,1.2-1.8,1.9-2.7s1.2-1.9,1.9-2.6c-0.9,0.8-0.3,0.4-0.1,0.1
			c0.2-0.2,0.3-0.4,0.5-0.6c0.3-0.4,0.6-0.8,0.9-1.1c0.7-0.9,1.5-1.8,2.2-2.6c2.9-3.2,5.9-6.1,9.2-8.8c0.4-0.4,0.8-0.7,1.3-1
			c0.2-0.1,0.3-0.3,0.5-0.4c0.9-0.7-0.9,0.7,0,0c0.9-0.7,1.8-1.3,2.6-1.9c1.8-1.3,3.6-2.5,5.5-3.6s3.6-2.1,5.5-3c1-0.5,2-1,3-1.4
			c0.4-0.2,0.9-0.4,1.4-0.6c0.2-0.1,0.5-0.3,0.8-0.3c-1.2,0.3-0.3,0.1,0,0c4.1-1.7,8.3-3,12.6-4c2.1-0.5,4.3-0.9,6.5-1.3
			c0.6-0.1,1.1-0.1,1.7-0.2c-1.5,0.3,0.4,0,0.7-0.1c1.1-0.1,2.3-0.2,3.4-0.3c4.6-0.4,9.2-0.3,13.8,0c1.1,0.1,2.2,0.2,3.3,0.3
			c0.2,0,0.5,0.1,0.7,0.1c1.2,0.1-0.9-0.1-0.1,0c0.6,0.1,1.2,0.2,1.9,0.3c2.2,0.4,4.5,0.8,6.7,1.4c4.2,1,8.4,2.4,12.4,4
			c1.1,0.4-1-0.5,0,0c0.2,0.1,0.4,0.2,0.6,0.3c0.5,0.2,1,0.5,1.5,0.7c1,0.5,2,0.9,3,1.5c2,1,3.9,2.1,5.8,3.2s3.6,2.3,5.4,3.5
			c0.8,0.6,1.8,1.1,2.5,1.9c-0.8-0.8-0.5-0.4-0.2-0.2s0.5,0.4,0.8,0.6c0.4,0.3,0.9,0.7,1.3,1c3.3,2.8,6.4,5.8,9.3,9
			c0.7,0.8,1.4,1.6,2,2.4c0.4,0.4,0.7,0.8,1,1.3c0.1,0.2,0.3,0.3,0.4,0.5c0.7,0.8-0.6-0.8,0,0c1.3,1.8,2.6,3.5,3.8,5.4
			c2.4,3.6,4.5,7.5,6.3,11.4c0.2,0.5,0.4,0.9,0.6,1.4c0,0.1,0.4,1.1,0.1,0.3s0.1,0.2,0.1,0.3c0.4,1,0.8,2.1,1.2,3.1
			c0.8,2.1,1.4,4.2,2,6.4s1.1,4.3,1.5,6.4c0.2,1.1,0.4,2.1,0.6,3.2c0.1,0.5,0.3,1.2,0.2,1.7c0-0.1-0.1-1.2,0-0.3
			c0,0.3,0.1,0.7,0.1,1c0.5,4.6,0.7,9.3,0.5,14c-0.1,2.3-0.3,4.5-0.6,6.8c0,0.3,0,0.6-0.1,0.9c0.3-1,0.1-0.7,0-0.3
			c-0.1,0.6-0.2,1.1-0.3,1.7c-0.2,1.1-0.4,2.2-0.6,3.4c-0.9,4.4-2.1,8.7-3.7,12.9c-0.4,0.9-0.7,1.9-1.1,2.8c-0.4,1,0.4-0.8,0.1-0.1
			c-0.1,0.2-0.2,0.5-0.3,0.8c-0.2,0.5-0.4,1-0.7,1.5c-0.9,2-1.9,4-3,5.9s-2.2,3.8-3.4,5.6c-0.5,0.8-1.1,1.6-1.7,2.4
			c-0.3,0.5-0.6,0.9-1,1.3c-0.1,0.2-0.3,0.4-0.4,0.5c-0.1,0.1-0.9,1.2-0.4,0.5c0.5-0.6-0.4,0.6-0.6,0.8c-0.3,0.4-0.7,0.9-1,1.3
			c-0.7,0.8-1.4,1.7-2.1,2.5c-1.5,1.6-3,3.2-4.6,4.7s-3.2,3-4.9,4.4c-0.3,0.3-0.7,0.5-1,0.8c-0.2,0.2-0.5,0.5-0.8,0.6
			c0.1,0,0.9-0.7,0.2-0.2c-0.9,0.7-1.8,1.3-2.6,1.9c-3.6,2.5-7.4,4.8-11.3,6.8c-0.9,0.4-1.8,0.9-2.7,1.3c-0.5,0.2-1,0.5-1.5,0.7
			c-0.2,0.1-0.4,0.2-0.6,0.3c1.3-0.3,0.1-0.1-0.2,0.1c-2,0.8-4.1,1.6-6.1,2.2c-4.3,1.4-8.7,2.4-13.2,3.1c-0.4,0.1-0.9,0.2-1.4,0.2
			l0.6-0.1c-0.2,0-0.5,0.1-0.7,0.1c-0.2,0-0.5,0.1-0.7,0.1c-1.1,0.1-2.2,0.2-3.3,0.3C398.4,312.8,396.1,312.9,393.8,312.9
			c-2.6,0-5.1,2.3-5,5s2.2,5,5,5c19,0,37.9-5.9,53.4-17s27-26.3,33.6-44s7.3-38.3,2-56.8c-5.1-17.8-15.6-34.1-29.9-45.8
			c-14.9-12.2-33-19.6-52.2-21.1c-19-1.5-38.4,3.2-54.7,13.1c-15.7,9.5-28.6,23.8-36.1,40.6c-8.1,18-10.4,38.1-6.5,57.4
			c3.7,18.1,13.2,35.1,26.6,47.9s30.9,21.7,49.3,24.5c4.9,0.7,9.8,1.2,14.7,1.2c2.6,0,5.1-2.3,5-5S396.6,312.9,393.8,312.9
			L393.8,312.9z"/>
	</g>
</g>
<path class="st14" d="M414.1,37c-14.3,6.3,26.2,20.4,88.1,69.5c61,48.3,84.1,84.1,86.9,68.5c15-84-8-164-8-164S487.1,5,414.1,37z"/>
<path class="st15" d="M77.1,315c6.2-9.3,18.1-24.5,38-37c16.8-10.6,32.7-15,43-17"/>
<path class="st15" d="M467.1,41c11-4,24-7,36-9c14.9-2.5,24-3,42-3"/>
<path class="st16" d="M341.1,183c6-8,10.8-12.4,20-17c8-4,20.5-7.7,29-7"/>
</svg>
