<?xml version="1.0" encoding="utf-8"?>
<!-- Generator: Adobe Illustrator 28.1.0, SVG Export Plug-In . SVG Version: 6.00 Build 0)  -->
<svg version="1.1" id="Layer_5" xmlns="http://www.w3.org/2000/svg" xmlns:xlink="http://www.w3.org/1999/xlink" x="0px" y="0px"
	 viewBox="0 0 713.3 739.3" style="enable-background:new 0 0 713.3 739.3;" xml:space="preserve">
<style type="text/css">
	.st0{fill:#D2B0F8;}
	.st1{fill:#EB485D;stroke:#000000;stroke-width:9;stroke-miterlimit:10;}
	.st2{fill:#FF8744;stroke:#000000;stroke-width:9;stroke-miterlimit:10;}
	.st3{fill:#40ACAA;stroke:#000000;stroke-width:9;stroke-miterlimit:10;}
	.st4{fill:none;stroke:#000000;stroke-width:18;stroke-miterlimit:10;}
	.st5{fill:none;stroke:#FFADBC;stroke-width:18;stroke-miterlimit:10;}
	.st6{fill:none;stroke:#FFCFB4;stroke-width:18;stroke-miterlimit:10;}
	.st7{fill:none;stroke:#AFE1E0;stroke-width:18;stroke-miterlimit:10;}
	.st8{fill:#F6CE65;stroke:#000000;stroke-width:8;stroke-miterlimit:10;}
	.st9{fill:none;stroke:#FCECBE;stroke-width:8;stroke-miterlimit:10;stroke-dasharray:0,0,8.1,8.1;}
	.st10{fill:#FCECBE;}
	.st11{fill:#221F20;}
	.st12{fill:#FCECBE;stroke:#221F20;stroke-width:6;stroke-miterlimit:10;}
	.st13{fill:#FCECBE;stroke:#221F20;stroke-width:5;stroke-miterlimit:10;}
	.st14{fill:#FCECBE;stroke:#221F20;stroke-width:5;stroke-linecap:round;stroke-miterlimit:10;}
</style>
<path class="st0" d="M569.4,663.3c-69,42-127.1,81.1-197,60.1c-28.7-8.6-54.8-24.4-77.8-43.5c-18.3-15.1-34.7-32.2-52-48.5
	c-40.1-37.6-84.8-70.3-132.7-97.1c-23.9-13.4-49.3-25.8-67.2-46.5c-10.9-12.7-18.5-27.9-24.6-43.5c-16.7-43-13-90.3,5.1-132.8
	c13.3-31.3,37.3-64.3,63.3-90.3C176,131.7,276,98,401.6,114.3c10.5,1.4,21.1,3.3,30.7,7.7c12.1,5.6,22,15,30.4,25.4
	c34.4,42.4,44.5,100.8,79.8,142.4c20.1,23.7,47.1,40.3,70.6,60.8c46.9,40.9,79.5,97.9,90.8,159.1c2.5,13.5,4,27.6-0.2,40.6
	c-5.3,16.5-18.9,28.9-32.2,40c-32.2,26.8-66.5,51.2-102.5,72.9"/>
<rect x="78.4" y="462.3" class="st1" width="147" height="215"/>
<rect x="262.9" y="390.8" class="st2" width="147" height="287"/>
<rect x="447.9" y="247.8" class="st3" width="147" height="430"/>
<g>
	<path class="st4" d="M109.9,321.8c0,0,55-7,114-39c54.6-29.6,97.2-66.5,118.4-86.5"/>
	<polygon points="338.1,243.2 338.5,200 295.3,199.7 313.8,181.5 356.9,181.8 356.6,225 	"/>
</g>
<line class="st5" x1="99.2" y1="548.9" x2="99.5" y2="490.8"/>
<line class="st6" x1="284.4" y1="480.6" x2="284.7" y2="422.6"/>
<line class="st7" x1="469" y1="334.1" x2="469.2" y2="276.1"/>
<g>
	<circle class="st8" cx="518.4" cy="110.7" r="92"/>
	<circle class="st9" cx="518.4" cy="111" r="82.5"/>
	<g>
		<path class="st10" d="M501.8,69.5c-2.2-1.2-5.1-2.3-7.5-2.3c-2.7,0-5.5,0.6-7.7,2.2c-2.4,1.7-3.9,4.5-4.5,7.4
			c-0.2,1.2-0.3,2.4-0.1,3.5c0.7,2.9,3.6,5.3,3,8.3c-0.3,1.6-1.6,2.1-2.7,3.3s-1.9,2.8-1.4,4.6c0.4,1.2,1.8,2.3,2.3,3.5
			c0.5,1.4-0.1,2.9-0.7,4.2c-0.6,1.2-1.5,2.9-2,5.3c-0.3,1.9-0.2,3.9,0.9,5.5c1.1,1.6,2.9,2.6,4.9,3.1s3.9,0.3,5.9,0.2
			c-0.2-8.6-1.1-17.2-0.4-25.8S495.8,75.7,501.8,69.5"/>
		<path class="st11" d="M503.4,67c-5.5-3-12.4-3.9-17.9-0.3c-5.1,3.4-8.1,10.8-5.5,16.6c0.5,1.2,1.3,2.2,1.9,3.4
			c0.2,0.4,0.3,0.8,0.4,1c0,0.1-0.2,0.7,0.1,0.3c-0.3,0.5-0.9,0.8-1.3,1.2c-0.5,0.5-1,1.1-1.4,1.7c-0.9,1.3-1.6,2.9-1.6,4.5
			c0,1.7,0.6,3.2,1.7,4.5c0.3,0.4,0.8,0.8,1,1.3c0.1,0.3-0.1,0.8-0.3,1.1c-1.1,2.7-2.4,5-2.7,7.9c-0.4,3.7,1.1,7.2,4.2,9.3
			s6.9,2.1,10.4,1.9c1.6-0.1,3-1.3,3-3c-0.2-9-1.4-18.2-0.2-27.2c0.9-7.2,3.9-14.3,8.9-19.5c2.7-2.8-1.6-7-4.2-4.2
			c-5.8,6-9.3,13.9-10.5,22.2c-1.4,9.6-0.3,19.2,0,28.8l3-3c-2.3,0.1-5,0.3-6.9-0.8c-1.6-0.9-2.1-2.7-1.7-4.6
			c0.5-2.2,1.6-3.9,2.4-6.1c0.5-1.4,0.7-3.1,0.2-4.5c-0.4-1.2-1.4-2.2-2.1-3.2c-0.2-0.4-0.4-0.3-0.3-0.7c0-0.1,0.1-0.4,0.2-0.7
			c0.5-0.9,1.4-1.5,2.1-2.2c1.9-2,2.4-4.7,1.4-7.3c-0.7-1.9-2.4-3.8-2.7-5.6c-0.3-2,0.7-4.5,1.9-6.1c1.4-1.9,3.6-2.9,5.8-3.1
			c2.7-0.3,5.3,0.5,7.6,1.8C503.7,74,506.8,68.8,503.4,67L503.4,67L503.4,67z"/>
	</g>
	<path class="st12" d="M491.8,115.4c0-12.6-3.1-31.1,7.2-43.5c3-3.2,7.1-6,11.4-7.1c7.8-1.9,18.2-1.4,26.3,2c2.7,1.2,5.6,2.9,8.5,2
		c2.2-0.6,4.3-1.8,6.7-2.2c4.2-0.6,8.5,1.6,11.3,4.8c3.6,4.1,3,9.1,1.5,14c0,0.1,0,0.1-0.1,0.2c-0.3,1.4-0.3,2.9,0.3,4.3
		c1,2.1,2.7,4.1,2.4,6.5c-0.2,2-1.8,3.8-2.2,5.7c-0.5,3.3,1.5,6,1,9.4c-1,6.4-8.8,8.6-14.4,7.6c-5.1-0.9-8.7-5.4-8.7-5.4
		s-1.2,1.2-3.1,2.4c-2.2,1.4-5.5,2-6.8,2.1c-12.3,1-18.9,7.7-19.8,8.6c-0.1,0.1-0.1,0.1-0.2,0.2c-2.1,2.8-3.3,6.1-4.7,9.3
		c-3.4,8.3-7.9,16.3-14.5,22.4c-4.3,3.8-11,5.8-16.5,3.3c-3-1.4-5.7-4.1-7.6-6.9c-2.1-3.1-4.2-7.6-5.2-11.5
		c-0.3-1.4,4.3-2.6,4.9-1.7c1.1,1.8,2.7,6.2,5.4,9c1.5,1.7,3.9,3,6.1,3.2c3.9,0.3,6.1-4.9,7.3-8.3
		C491.9,136,491.8,115.4,491.8,115.4L491.8,115.4z"/>
	<path class="st13" d="M525.5,100.5c0,2-0.1,3.6-1.8,3.6s-1.8-1.6-1.8-3.6s0.2-3.6,1.8-3.6S525.5,98.5,525.5,100.5z"/>
	<circle class="st10" cx="525.2" cy="96.8" r="1.6"/>
	<path class="st14" d="M550.1,88.2c2.1-0.4,4.3-0.9,6.4-1.3"/>
	<path class="st14" d="M556.8,103c-2.1-0.7-4.2-1.3-6.2-2"/>
	<g>
		<path class="st10" d="M522,114.9c-1.3-0.3-2.5-0.3-3.6,0.3c-1,0.5-1.6,1.9-1.6,3.4c0,1.9-0.2,4-0.4,5.6c-0.5,3-1.1,5.9-1.8,8.7
			c-1.1,4,2.8,7,4.6,3.7c1.6-2.9,3.2-6,4.7-9c0.9-1.9,1.9-4.2,2.6-6.4c0.6-1.8,0.1-4-1.3-4.9C524.2,115.6,523,115.2,522,114.9
			L522,114.9z"/>
		<path class="st11" d="M522.7,112.5c-2.6-0.6-5.6-0.2-7.3,2.1c-1.4,2.1-1.1,4.6-1.3,7s-0.6,4.6-1.1,6.8s-1.4,4.7-1,7.1
			c0.3,1.8,1.4,3.6,3.1,4.4c1.9,1,4.2,0.4,5.5-1.2c0.8-0.9,1.3-2.1,1.9-3.2c0.7-1.2,1.3-2.5,2-3.8c1.1-2.3,2.3-4.5,3.2-6.9
			c1-2.5,2.1-5.1,1.1-7.7S525.4,113.2,522.7,112.5c-3.1-0.9-4.4,4-1.3,4.8c0.7,0.2,1.3,0.4,2,0.7c0.1,0.1,0.6,0.5,0.5,0.3
			s0.2,0.5,0.2,0.4c0.5,1.2-0.3,2.7-0.8,4c-1.4,3.5-3.2,6.8-4.9,10.1c-0.4,0.8-0.9,1.6-1.3,2.4c-0.4,0.6-0.1,0.2-0.1,0.1
			c-0.1,0.2-0.1,0-0.1,0.1l0.1-0.1c-0.2,0.1-0.2,0.1-0.1,0.1c0.1,0,0.6-0.1,0.3-0.1c-0.3,0.1,0.4,0.1,0.1,0
			c-0.3-0.1,0.1,0.1,0.1,0.1c-0.1,0-0.2-0.2-0.1,0c0.2,0.2-0.1-0.1-0.1-0.1c-0.2-0.2,0,0,0,0.1c-0.1-0.1-0.2-0.3-0.2-0.4
			c0.2,0.3-0.1-0.3-0.1-0.5c0-0.2,0-0.8,0.1-1.3c0.2-1,0.5-1.9,0.7-2.9c0.4-1.9,0.8-3.7,1.1-5.6c0.3-2,0.5-4,0.5-6.1
			c0-0.6,0.1-1.2,0.4-1.4c0.3-0.3-0.1,0.1,0.1,0c0.1-0.1,0.3-0.1,0.4-0.1c0.4-0.1,0.8,0,1.2,0.1C524.5,118,525.8,113.2,522.7,112.5
			L522.7,112.5z"/>
	</g>
</g>
</svg>
