<?xml version="1.0" encoding="utf-8"?>
<!-- Generator: Adobe Illustrator 28.1.0, SVG Export Plug-In . SVG Version: 6.00 Build 0)  -->
<svg version="1.1" id="Layer_4" xmlns="http://www.w3.org/2000/svg" xmlns:xlink="http://www.w3.org/1999/xlink" x="0px" y="0px"
	 viewBox="0 0 621.3 647.7" style="enable-background:new 0 0 621.3 647.7;" xml:space="preserve">
<style type="text/css">
	.st0{fill:#99F6DA;}
	.st1{fill:#F6CE65;stroke:#000000;stroke-width:8;stroke-miterlimit:10;}
	.st2{fill:none;stroke:#FCECBE;stroke-width:8;stroke-miterlimit:10;stroke-dasharray:0,0,8.1,8.1;}
	.st3{fill:#FCECBE;}
	.st4{fill:#221F20;}
	.st5{fill:#FCECBE;stroke:#221F20;stroke-width:6;stroke-miterlimit:10;}
	.st6{fill:#FCECBE;stroke:#221F20;stroke-width:5;stroke-miterlimit:10;}
	.st7{fill:#FCECBE;stroke:#221F20;stroke-width:5;stroke-linecap:round;stroke-miterlimit:10;}
	.st8{fill:#AD7979;}
	.st9{fill:#BC89F5;stroke:#000000;stroke-width:8;stroke-miterlimit:10;}
	.st10{fill:#EB485D;stroke:#000000;stroke-width:6;stroke-miterlimit:10;}
	.st11{fill:#EB485D;stroke:#F3B1BC;stroke-width:6;stroke-miterlimit:10;}
	.st12{fill:none;stroke:#E9D8FC;stroke-width:8;stroke-miterlimit:10;}
	.st13{fill:none;stroke:#FFFFFF;stroke-width:6;stroke-miterlimit:10;}
</style>
<path class="st0" d="M524,366.6c10.8-42.8,20.8-82.1,17.7-123.7c-2.5-32.5-18.8-62-35.3-90.1c-15.7-26.8-33.4-54.6-61.3-68.1
	c-37.2-18-82.3-5.3-118.2,15.3c-42.8,24.5-79.2,59.9-105,101.9c-16.6,27.1-29.5,57.6-54.1,77.7c-14.5,11.9-32.2,19.2-47.3,30.3
	c-26.3,19.3-43.8,50-47,82.4s8,66,30,90c32.7,35.7,83.8,47.5,131.9,53.3c24.2,3,48.4,6.7,72.8,5.9c48.8-1.7,73.8-11.7,92.3-19.8
	c63.1-27.7,108.2-87.7,123.5-154.9"/>
<g>
	<circle class="st1" cx="349.7" cy="256.9" r="92"/>
	<circle class="st2" cx="349.7" cy="257.2" r="82.5"/>
	<g>
		<path class="st3" d="M333.2,215.8c-2.2-1.2-5.1-2.3-7.5-2.3c-2.7,0-5.5,0.6-7.7,2.2c-2.4,1.7-3.9,4.5-4.5,7.4
			c-0.2,1.2-0.3,2.4-0.1,3.5c0.7,2.9,3.6,5.3,3,8.3c-0.3,1.6-1.6,2.1-2.7,3.3s-1.9,2.8-1.4,4.6c0.3,1.2,1.8,2.3,2.3,3.5
			c0.5,1.4-0.1,2.9-0.7,4.2c-0.6,1.2-1.5,2.9-2,5.3c-0.3,1.9-0.2,3.9,0.9,5.5c1.1,1.6,2.9,2.6,4.8,3s3.9,0.3,5.8,0.2
			c-0.2-8.6-1.1-17.2-0.4-25.8C324,230.3,327.2,221.9,333.2,215.8"/>
		<path class="st4" d="M334.7,213.2c-5.5-3-12.4-3.9-17.9-0.3c-5.1,3.4-8.1,10.8-5.5,16.6c0.5,1.2,1.3,2.2,1.8,3.4
			c0.2,0.4,0.3,0.8,0.4,1c0,0.1-0.2,0.7,0.1,0.3c-0.3,0.5-0.9,0.8-1.3,1.2c-0.5,0.5-1,1.1-1.4,1.7c-0.9,1.3-1.6,2.9-1.6,4.5
			c0,1.7,0.6,3.2,1.7,4.5c0.3,0.4,0.8,0.8,1,1.3c0.1,0.3-0.1,0.8-0.3,1.1c-1.1,2.7-2.4,5-2.7,7.9c-0.4,3.7,1.1,7.2,4.2,9.3
			s6.9,2.1,10.4,1.9c1.6-0.1,3-1.3,3-3c-0.2-9-1.4-18.2-0.2-27.2c0.9-7.2,3.9-14.3,8.9-19.5c2.7-2.8-1.6-7-4.2-4.2
			c-5.8,6-9.3,13.9-10.5,22.2c-1.4,9.6-0.3,19.2,0,28.8l3-3c-2.3,0.1-5,0.3-6.9-0.8c-1.6-0.9-2.1-2.7-1.7-4.6
			c0.5-2.2,1.6-3.9,2.4-6.1c0.5-1.4,0.7-3.1,0.2-4.5c-0.4-1.2-1.4-2.2-2.1-3.2c-0.2-0.4-0.4-0.3-0.3-0.7c0-0.1,0.1-0.4,0.2-0.7
			c0.5-0.9,1.4-1.5,2.1-2.2c1.9-2,2.3-4.7,1.4-7.3c-0.7-1.9-2.4-3.8-2.7-5.6c-0.3-2,0.7-4.5,1.9-6.1c1.4-1.9,3.6-2.9,5.8-3.1
			c2.7-0.3,5.3,0.5,7.7,1.8C335.1,220.2,338.1,215,334.7,213.2L334.7,213.2L334.7,213.2z"/>
	</g>
	<path class="st5" d="M323.2,261.6c0-12.6-3.1-31.1,7.2-43.5c3-3.2,7.1-6,11.4-7.1c7.8-1.9,18.2-1.4,26.3,2c2.7,1.2,5.6,2.9,8.5,2
		c2.2-0.6,4.3-1.8,6.7-2.2c4.2-0.6,8.5,1.6,11.3,4.8c3.6,4.1,3,9.1,1.5,14c0,0.1,0,0.1-0.1,0.2c-0.3,1.4-0.3,2.9,0.3,4.3
		c1,2.1,2.7,4.1,2.4,6.5c-0.2,2-1.8,3.8-2.2,5.7c-0.5,3.3,1.5,6,1,9.4c-1,6.4-8.8,8.6-14.4,7.6c-5.1-0.9-8.7-5.4-8.7-5.4
		s-1.2,1.2-3.1,2.4c-2.2,1.4-5.5,2-6.8,2.1c-12.3,1-18.9,7.7-19.8,8.6c-0.1,0.1-0.1,0.1-0.2,0.2c-2.2,2.8-3.3,6.1-4.7,9.3
		c-3.4,8.3-7.9,16.3-14.5,22.4c-4.3,3.8-11,5.8-16.5,3.3c-3-1.5-5.7-4.1-7.6-6.9c-2.1-3.1-4.2-7.6-5.2-11.5
		c-0.3-1.4,4.3-2.6,4.9-1.7c1.1,1.8,2.7,6.2,5.4,9c1.5,1.7,3.9,3,6.1,3.2c3.9,0.3,6.1-4.9,7.3-8.3
		C323.2,282.2,323.1,261.6,323.2,261.6L323.2,261.6z"/>
	<path class="st6" d="M356.8,246.8c0,2-0.1,3.6-1.8,3.6s-1.8-1.6-1.8-3.6s0.2-3.6,1.8-3.6S356.8,244.8,356.8,246.8z"/>
	<circle class="st3" cx="356.5" cy="243" r="1.6"/>
	<path class="st7" d="M381.5,234.4c2.1-0.4,4.3-0.9,6.4-1.3"/>
	<path class="st7" d="M388.1,249.2c-2.1-0.7-4.2-1.3-6.2-2"/>
	<g>
		<path class="st3" d="M353.4,261.1c-1.3-0.3-2.5-0.3-3.7,0.3c-1,0.5-1.6,1.9-1.6,3.4c0,1.9-0.2,4-0.4,5.6c-0.5,3-1.1,5.9-1.8,8.7
			c-1.1,4,2.8,7,4.6,3.7c1.6-2.9,3.2-6,4.7-9c0.9-1.9,1.9-4.2,2.6-6.4c0.6-1.8,0.1-4-1.3-5C355.5,261.8,354.4,261.4,353.4,261.1
			L353.4,261.1z"/>
		<path class="st4" d="M354,258.7c-2.6-0.6-5.6-0.2-7.3,2.1c-1.4,2.1-1.1,4.6-1.3,7s-0.6,4.6-1.1,6.8s-1.4,4.7-1,7.1
			c0.3,1.8,1.4,3.6,3.1,4.4c1.9,1,4.2,0.5,5.5-1.2c0.8-0.9,1.3-2.1,1.9-3.2c0.7-1.2,1.3-2.5,2-3.8c1.2-2.3,2.3-4.5,3.2-6.9
			c1-2.5,2.1-5,1.1-7.7S356.7,259.4,354,258.7c-3.1-0.9-4.4,4-1.3,4.8c0.7,0.2,1.3,0.4,2,0.7c0.1,0.1,0.7,0.5,0.5,0.3
			s0.2,0.5,0.2,0.4c0.5,1.2-0.3,2.7-0.8,4c-1.3,3.5-3.2,6.8-4.9,10.1c-0.4,0.8-0.8,1.6-1.3,2.4c-0.4,0.6-0.1,0.2-0.1,0.1
			c-0.1,0.2-0.2,0-0.1,0.1l0.1-0.1c-0.2,0.1-0.2,0.1-0.1,0c0.1,0,0.6-0.1,0.3-0.1c-0.3,0,0.4,0.1,0.1,0c-0.3-0.1,0.1,0.1,0.2,0.1
			c-0.1,0-0.2-0.2-0.1,0c0.2,0.2-0.1-0.1-0.1-0.1c-0.2-0.2,0,0,0,0.1c-0.1-0.1-0.2-0.3-0.2-0.4c0.2,0.3-0.1-0.3-0.1-0.5
			c0-0.2,0-0.8,0.1-1.3c0.2-1,0.5-2,0.7-2.9c0.4-1.9,0.8-3.7,1.1-5.6c0.3-2,0.5-4,0.5-6.1c0-0.6,0.1-1.2,0.3-1.4
			c0.3-0.3-0.1,0.1,0.1,0c0.1-0.1,0.3-0.1,0.4-0.1c0.4-0.1,0.8,0,1.2,0.1C355.8,264.3,357.2,259.4,354,258.7L354,258.7z"/>
	</g>
	<g>
		<path class="st8" d="M165.6,532.7c5.1-4.6,8.6,6.2,13.7,1.6c4.4-4,17.6-13.7,23-16c5.4-2.3,14-8,22-10c20.7-5.1,30.7-2.9,51.9-0.8
			c17.8,1.8,36.1,4.6,53.3-0.5c7.7-2.3,14.9-6.1,21.8-10.4c23.8-15,43.8-35.6,68.1-49.8c9.6-5.6,18.1-11.1,26.3-20
			c7.2-7.7,12.7-21.3,6.9-30.1c-4-6-9.4-5.8-11-6c-10.7-1.3-17.8,3.3-26.9,9c-13.7,8.6-27.3,17.1-41,25.7
			c-11.6,7.2-23.2,14.5-36.1,19.1s-27.1,6.4-40.2,2.3c3.8-8.1,14.2-10,23.1-10.9c16.2-1.7,32.4-3.3,48.6-5c3.6-0.4,7.5-0.9,10.1-3.4
			c2.1-2.1,2.9-5.2,2.8-8.2c-0.2-6.4-4.3-12.2-9.6-15.9c-5.3-3.6-11.7-5.3-18-6.4c-12-2-24.2-2-36.3-2c-24.7,0-49.6,0.1-73.7,5.1
			c-24.2,5-47.8,15.5-64.7,33.6c-6.9,7.4-12.5,15.9-19.3,23.5c-8.3,9.2-18.3,16.8-29.4,22.3"/>
		<path d="M168.8,535.8c-0.8,0.7-0.1,0.1,0.2-0.1c-1,0.5-0.4,0.2,0,0.1l-0.7,0.1c0.5,0,0.3,0-0.5-0.1c0,0,0.7,0.2,0.7,0.2
			c0-0.1-1-0.5-0.1,0c0.2,0.2,0.5,0.3,0.7,0.4c0.5,0.4,1.1,0.8,1.6,1.1c2.9,2,6.3,3,9.6,1.3c2.5-1.3,4.6-3.7,6.8-5.4
			c-0.8,0.6,0.2-0.2,0.3-0.2c0.3-0.2,0.7-0.5,1-0.7c0.7-0.5,1.3-1,2-1.5c1.5-1.1,3-2.2,4.6-3.2c2.6-1.8,5.2-3.5,8-5s5.6-2.7,8.3-4.1
			c3.8-2,7.5-4,11.4-5.3c4.3-1.5,9-2.4,13.6-3c3.1-0.5,7.5-0.8,11.2-0.8s7.7,0.2,11.6,0.5c9.2,0.8,18.4,1.9,27.6,2.9
			c10,1,20.1,1.9,30.1,0.9s19.5-3.9,28.5-8.6c17-8.9,31.7-21.6,46.6-33.5c7.1-5.6,14.2-11.1,21.8-16.1s15.5-9.1,22.7-14.5
			s13.9-11.3,18.3-18.9c4-7,6.8-16.2,3.8-24.1c-1.6-4.1-4.5-8-8.5-10c-2.6-1.3-5.3-1.7-8.2-2c-4.3-0.4-8.6-0.1-12.8,1.2
			s-8.1,3.4-11.8,5.6c-17.6,10.6-34.7,21.9-52.2,32.6c-16.2,10-33.9,19.5-53.3,19c-4.5-0.1-8.6-0.8-12.9-2.1l2.7,6.6
			c0.2-0.5,0.5-1,0.8-1.5c0.2-0.2,0.3-0.5,0.5-0.7c-0.5,0.6,0.1-0.1,0.2-0.2c0.4-0.4,0.8-0.8,1.2-1.2c0.1-0.1,0.7-0.6,0.3-0.3
			s0.4-0.3,0.5-0.4c1-0.7,2-1.2,3.1-1.7c0.7-0.3-0.6,0.2,0.1,0c0.3-0.1,0.5-0.2,0.8-0.3c0.6-0.2,1.2-0.4,1.9-0.6
			c1.2-0.4,2.4-0.6,3.7-0.9c0.6-0.1,1.2-0.2,1.8-0.3c0.4-0.1,0.7-0.1,1.1-0.2c0.1,0,1.2-0.2,0.7-0.1s0.4,0,0.5-0.1
			c0.3,0,0.6-0.1,0.9-0.1c0.7-0.1,1.4-0.1,2-0.2c1.9-0.2,3.8-0.4,5.8-0.6c14.4-1.5,28.9-2.7,43.3-4.5c3.2-0.4,6.6-0.9,9.4-2.7
			c3-1.8,5.1-4.8,6-8.1c1.7-6.1-0.2-12.8-3.9-17.8c-8.3-11.3-22.8-13.9-36-15.2c-14.1-1.4-28.4-1-42.5-0.9s-28.4,0.6-42.6,2.3
			c-24.9,3.1-50,10.2-70.4,25.3c-5,3.7-9.7,7.8-14,12.3c-4.5,4.9-8.5,10.2-12.6,15.4c-7.8,9.9-16.5,18.6-27.1,25.2
			c-2.6,1.6-5.3,3.1-8.1,4.5c-2.2,1.1-2.8,4.2-1.6,6.2c1.3,2.2,4,2.7,6.2,1.6c11-5.5,21-13,29.4-22s15.3-20.2,24.6-28.9
			c16.8-15.7,39-24.4,61.6-28.7c13.4-2.5,26.9-3.5,40.5-4s27.5-0.5,41.2-0.2c6.8,0.1,13.6,0.4,20.4,1.5c5.9,0.9,11.9,2.1,17,5
			c2.5,1.4,4,2.7,6,4.9c1.4,1.6,2.6,4,3.2,6.2c0.1,0.3,0.1,0.6,0.2,1c0,0.1,0.1,0.9,0,0.3c0.1,0.6,0.1,1.3,0.1,2c0,0.3,0,0.7-0.1,1
			c0-0.1,0.1-0.5,0,0c-0.1,0.3-0.2,0.6-0.2,1c-0.1,0.1-0.4,1-0.2,0.5c-0.1,0.3-0.3,0.6-0.5,0.9c-0.5,0.9-0.3,0.4-0.2,0.3
			c-0.2,0.2-0.5,0.5-0.7,0.7c0.4-0.3-0.2,0.1-0.3,0.2c-0.3,0.2-0.6,0.3-0.8,0.5c0.5-0.2-0.2,0.1-0.3,0.1c-0.8,0.3-1.6,0.5-2.4,0.6
			c-1.4,0.3-1.8,0.3-3.4,0.5c-1.8,0.2-3.6,0.4-5.4,0.6c-3.5,0.4-7,0.7-10.5,1.1c-7,0.7-14.1,1.4-21.1,2.2c-6.3,0.6-12.7,1-18.9,2.2
			c-5.2,1-10.2,2.8-14.3,6.1c-1.9,1.6-3.6,3.6-4.7,5.9c-1.3,2.6-0.2,5.7,2.7,6.6c19.2,5.9,39.3,0.4,56.7-8.4
			c8.7-4.4,17-9.7,25.2-14.8c8.8-5.5,17.6-11,26.4-16.5c4.3-2.7,8.6-5.4,12.9-8.1c3.7-2.3,7.3-4.7,11.3-6.4
			c-0.7,0.3,0.8-0.3,0.7-0.3c0.3-0.1,0.6-0.2,0.9-0.3c0.9-0.3,1.8-0.6,2.8-0.8s1.7-0.4,2.2-0.4c1.2-0.1,2.4-0.2,3.6-0.1
			c1.3,0,2.6,0.2,4,0.3c0.6,0,0.6-0.2-0.2,0c0.2,0,0.6,0.1,0.8,0.2c0.6,0.1,1.3,0.3,1.9,0.6c-1-0.4,0.1,0.1,0.3,0.2
			c0.4,0.2,0.7,0.4,1,0.6c1,0.6-0.4-0.5,0.5,0.4c0.3,0.4,0.7,0.7,1,1c0.4,0.5,0.9,1.2,1.3,1.9c0,0.1,0.6,1.3,0.3,0.5
			c0.2,0.5,0.4,1.1,0.5,1.6c0.1,0.4,0.2,0.8,0.3,1.3c-0.2-1,0,0.4,0.1,0.5c0.1,0.9,0.1,1.8,0,2.7c0,0.5-0.1,0.9-0.1,1.4
			c0-0.2,0.2-0.7,0,0.2c-0.2,1.1-0.4,2.1-0.8,3.2c-1,3.5-2.8,6.7-5.1,10c-0.2,0.3-0.7,0.9-1.3,1.6c-0.6,0.7-1.2,1.3-1.8,1.9
			c-1.7,1.7-3.4,3.4-5.2,5c-6.2,5.5-13.6,9.8-20.9,14.2c-8.1,4.9-15.7,10.5-23.2,16.2c-14.4,11.1-28,23.1-43.4,32.7
			c-8,5-16.2,9.1-25.5,11s-19.2,1.6-28.7,0.9c-9.7-0.8-19.3-1.9-28.9-3c-7.7-0.8-15.4-1.5-23.1-1c-9,0.6-18.3,2.2-26.6,5.8
			c-3.8,1.6-7.4,3.6-11.1,5.6c-2.5,1.3-5.1,2.3-7.5,3.7c-5.9,3.4-11.5,7.5-16.9,11.8c-1,0.8-2,1.6-3,2.5c-0.2,0.2-0.4,0.3-0.6,0.5
			c-0.6,0.5,0,0.2,0,0c0,0.5-1.5,0.2,0,0.1c-1.3,0.1,0.8,0-0.1,0c1.3,0,0.6,0.1,0.2,0c-0.8-0.3,0.7,0.5,0.2,0.1
			c-0.4-0.3-0.9-0.5-1.3-0.8c-1-0.7-1.9-1.4-3-2c-3.6-1.9-7.2-1.3-10.2,1.3c-1.8,1.6-1.6,4.7,0,6.4
			C164.3,537.7,167,537.4,168.8,535.8L168.8,535.8L168.8,535.8z"/>
	</g>
	<path class="st9" d="M9.5,506.3l93.9-54c14.1-8.1,32.2-3.2,40.3,10.9l46.3,80.6c8.1,14.1,3.2,32.2-10.9,40.3l-93.9,54"/>
	<path class="st8" d="M355.6,427.4c4,0,8-0.7,12.1-0.9c1.2-0.1,2.3-0.1,3.5-0.5c2.1-0.8,3.8-1.9,4.9-3.9c1.3-2.5,1.9-5.4-0.2-7.6
		c-1.2-1.4-3.1-2.5-4.8-3.2c-2.8-1.3-6.2-1.5-8.8,0.4c-2.1,1.6-3.5,3.9-3.9,6.5c-0.2,1.2-0.2,2.4,0.4,3.5c0.6,0.9,1.6,1.8,2.7,2.1
		c2.2,0.5,5.1-0.7,5.5-3.1c0.1-0.3,0.1-0.6,0.2-1c0.1-0.2,0.4-1.1,0.1-0.4s0.1-0.1,0.2-0.3c0.2-0.4,0.4-0.2-0.3,0.3
		c0.1-0.1,0.3-0.2,0.3-0.3c-0.5,0.8-0.7,0.4-0.3,0.3c0.7-0.3-0.4,0.1-0.4,0.1s0.6-0.2,0.5-0.1c-0.1,0-0.9,0-0.5,0.1
		c0.2,0,0.8,0.1,0.1,0c-0.7-0.1-0.2,0-0.1,0c0,0,0.5,0.2,0.5,0.2c-0.1,0.1-1-0.5-0.2,0c0.6,0.3,1.2,0.6,1.7,1
		c0.1,0.1,0.2,0.1,0.3,0.2c0.5,0.3-0.7-0.6-0.3-0.2c0.1,0.1,0.2,0.2,0.3,0.3c0.5,0.6,0.4,0.2-0.3-1.2c-0.5-0.6-0.6-1.2-0.5-1.8
		c0.1-1,0-0.2-0.1,0.1c-0.2,0.7,0.2-0.5,0.2-0.5c0,0-0.2,0.4-0.2,0.4c-0.1,0.2-0.6,1-0.2,0.4s-0.3,0.1,0.5-0.5
		c0.7-0.5,0.2-0.2,0-0.1c-0.1,0-0.2,0.1-0.3,0.1c-0.4,0.3,1-0.4,0.5-0.2c-0.2,0.1-0.4,0.2-0.7,0.2c-0.7,0.2-0.8-0.1,0.4,0
		c-0.1,0-0.2,0-0.3,0c-0.6,0-1.3,0.1-1.9,0.1c-1.9,0.1-3.9,0.3-5.8,0.5c-1.7,0.1-3.3,0.3-5,0.3c-2.3,0-4.6,2.1-4.5,4.5
		S353.1,427.5,355.6,427.4L355.6,427.4L355.6,427.4z"/>
	<path class="st10" d="M215.9,140.5c-1-15.3-14-28.6-29.2-26.3c-10.6,1.6-17.6,11.4-17.8,13.7c-0.1-2.4-7.2-12.3-17.8-13.9
		c-15.2-2.3-28.2,11-29.2,26.3c-1,15.3,10.7,27.6,12.9,30.2c2.8,3.3,26,23.8,32.7,30.5c0.4,0.4,0.8,0.6,1.2,0.4
		c0.4,0.4,0.9,0.3,1.4-0.2c6.7-6.7,30-27.2,32.7-30.5C205.2,168.1,216.9,155.8,215.9,140.5L215.9,140.5z"/>
	<path class="st11" d="M132.7,135.1c1.1-3.3,3.4-7.1,6.7-9.4c2.7-1.9,7.8-3.3,11.1-3.3"/>
	<path class="st10" d="M611.6,287.7c-1-15.3-14-28.6-29.2-26.3c-10.6,1.6-17.6,11.4-17.8,13.7c-0.1-2.4-7.2-12.3-17.8-13.9
		c-15.2-2.3-28.2,11-29.2,26.3c-1,15.3,10.7,27.6,12.9,30.2c2.8,3.3,26.1,23.8,32.7,30.5c0.4,0.4,0.8,0.6,1.2,0.4
		c0.4,0.4,0.9,0.3,1.4-0.2c6.7-6.7,30-27.2,32.7-30.5C600.9,315.3,612.6,303,611.6,287.7L611.6,287.7z"/>
	<path class="st11" d="M528.4,282.3c1.1-3.3,3.4-7.1,6.7-9.4c2.7-1.9,7.8-3.3,11.1-3.3"/>
	<path class="st10" d="M464.6,29.7c-1-15.3-14-28.6-29.2-26.3c-10.6,1.6-17.6,11.4-17.8,13.7c-0.1-2.4-7.2-12.3-17.8-13.9
		c-15.2-2.3-28.2,11-29.2,26.3c-1,15.3,10.7,27.6,12.9,30.2c2.8,3.3,26.1,23.8,32.7,30.5c0.4,0.4,0.8,0.6,1.2,0.4
		c0.4,0.4,0.9,0.3,1.4-0.2c6.7-6.7,30-27.2,32.7-30.5C453.9,57.3,465.6,45,464.6,29.7L464.6,29.7z"/>
	<path class="st11" d="M381.4,24.3c1.1-3.3,3.4-7.1,6.7-9.4c2.7-1.9,7.8-3.3,11.1-3.3"/>
	<path class="st12" d="M72.8,487.8c8-4.8,24-14,36-21c2.8-1.7,5.6-3.1,9-3.1"/>
</g>
<path class="st13" d="M1940.8,334.8c6-8,10.8-12.4,20-17c8-4,20.5-7.7,29-7"/>
</svg>
