<?xml version="1.0" encoding="utf-8"?>
<!-- Generator: Adobe Illustrator 22.0.1, SVG Export Plug-In . SVG Version: 6.00 Build 0)  -->
<svg version="1.1" xmlns="http://www.w3.org/2000/svg" xmlns:xlink="http://www.w3.org/1999/xlink" x="0px" y="0px"
	 viewBox="0 0 16 16" style="enable-background:new 0 0 16 16;" xml:space="preserve">
<style type="text/css">
	.st0{display:none;}
	.st1{display:inline;}
	.st2{fill:#ADADAD;}
	.st3{fill:#D3D3D3;}
	.st4{fill:#FFFFFF;}
	.st5{fill:#C6C6C6;}
	.st6{fill:#FF7F1F;}
	.st7{fill:#848281;}
	.st8{fill:#7C7C7C;}
	.st9{fill:#474747;}
	.st10{fill:#565656;}
	.st11{fill:#709348;}
	.st12{fill:#80AD51;}
	.st13{fill:#602C2C;}
	.st14{fill:#331919;}
	.st15{fill:#C1C1C1;}
	.st16{fill:#DDDDDD;}
	.st17{fill:#EAEAEA;}
	.st18{fill:#605555;}
	.st19{fill:#B5B5B5;}
	.st20{fill:#C9C9C9;}
</style>
<g id="yoda-sketch" class="st0">
</g>
<g id="blk_sub" class="st0">
</g>
<g id="blk_sub_copy" class="st0">
	<rect x="0" class="st1" width="16" height="16"/>
</g>
<g id="helmet_sketch" class="st0">
</g>
<g id="bb8sketch" class="st0">
	<g class="st1">
		<g>
			<path class="st3" d="M6.5,5c0.6,0,0.6-1,0-1C5.9,4,5.9,5,6.5,5L6.5,5z"/>
		</g>
	</g>
	<g class="st1">
		<g>
			<path class="st3" d="M6.5,5c1,0,2.1-0.2,3.1-0.1C10.2,5,10.4,4,9.8,4c-1.1-0.2-2.2,0-3.3,0C5.8,4,5.8,5,6.5,5L6.5,5z"/>
		</g>
	</g>
	<g class="st1">
		<g>
			<path class="st3" d="M7.9,3.5c0.6,0,0.6-1,0-1C7.3,2.5,7.3,3.5,7.9,3.5L7.9,3.5z"/>
		</g>
	</g>
	<g class="st1">
		<g>
			<path class="st3" d="M8.4,3.4c0.6,0,0.6-1,0-1C7.7,2.4,7.7,3.4,8.4,3.4L8.4,3.4z"/>
		</g>
	</g>
	<g class="st1">
		<g>
			<path class="st3" d="M5.8,4.4c0.6,0,0.6-1,0-1C5.2,3.4,5.2,4.4,5.8,4.4L5.8,4.4z"/>
		</g>
	</g>
	<g class="st1">
		<g>
			<path class="st3" d="M7.1,3.5c0.6,0,0.6-1,0-1C6.5,2.5,6.5,3.5,7.1,3.5L7.1,3.5z"/>
		</g>
	</g>
	<g class="st1">
		<g>
			<path class="st3" d="M6.6,3.2c0.6,0,0.6-1,0-1C6,2.2,6,3.2,6.6,3.2L6.6,3.2z"/>
		</g>
	</g>
	<g class="st1">
		<g>
			<path class="st3" d="M5.9,4.5c0.6,0,0.6-1,0-1C5.2,3.5,5.2,4.5,5.9,4.5L5.9,4.5z"/>
		</g>
	</g>
	<g class="st1">
		<g>
			<path class="st3" d="M6.2,4.5c0.6,0,0.6-1,0-1C5.6,3.5,5.6,4.5,6.2,4.5L6.2,4.5z"/>
		</g>
	</g>
	<g class="st1">
		<g>
			<path class="st3" d="M5.9,4.6c0.6,0,0.6-1,0-1C5.3,3.6,5.3,4.6,5.9,4.6L5.9,4.6z"/>
		</g>
	</g>
	<g class="st1">
		<g>
			<path class="st3" d="M10.3,4.3c0.6,0,0.6-1,0-1C9.6,3.3,9.6,4.3,10.3,4.3L10.3,4.3z"/>
		</g>
	</g>
	<g class="st1">
		<g>
			<path class="st3" d="M9.2,3c0.6,0,0.6-1,0-1C8.6,2,8.6,3,9.2,3L9.2,3z"/>
		</g>
	</g>
	<g class="st1">
		<g>
			<path class="st3" d="M7.4,2.1c0.6,0,0.6-1,0-1C6.7,1.1,6.7,2.1,7.4,2.1L7.4,2.1z"/>
		</g>
	</g>
	<g class="st1">
		<g>
			<path class="st3" d="M7.5,1c0.6,0,0.6-1,0-1C6.9,0,6.9,1,7.5,1L7.5,1z"/>
		</g>
	</g>
	<g class="st1">
		<g>
			<path class="st3" d="M6.6,6.2c0.6,0,0.6-1,0-1C6,5.2,6,6.2,6.6,6.2L6.6,6.2z"/>
		</g>
	</g>
	<g class="st1">
		<g>
			<path class="st3" d="M5,7.1c0.6,0,0.6-1,0-1C4.4,6.1,4.4,7.1,5,7.1L5,7.1z"/>
		</g>
	</g>
	<g class="st1">
		<g>
			<path class="st3" d="M4.3,8.1c0.6,0,0.6-1,0-1C3.6,7.1,3.6,8.1,4.3,8.1L4.3,8.1z"/>
		</g>
	</g>
	<g class="st1">
		<g>
			<path class="st3" d="M4.7,7c0.6,0,0.6-1,0-1C4.1,6,4.1,7,4.7,7L4.7,7z"/>
		</g>
	</g>
	<g class="st1">
		<g>
			<path class="st3" d="M3.5,8.3c0.6,0,0.6-1,0-1C2.9,7.3,2.9,8.3,3.5,8.3L3.5,8.3z"/>
		</g>
	</g>
	<g class="st1">
		<g>
			<path class="st3" d="M8.9,6c0.6,0,0.6-1,0-1C8.2,5,8.2,6,8.9,6L8.9,6z"/>
		</g>
	</g>
	<g class="st1">
		<g>
			<path class="st3" d="M9.2,6c0.6,0,0.6-1,0-1C8.5,5,8.5,6,9.2,6L9.2,6z"/>
		</g>
	</g>
	<g class="st1">
		<g>
			<path class="st3" d="M10.6,7.4c0.6,0,0.6-1,0-1C10,6.4,10,7.4,10.6,7.4L10.6,7.4z"/>
		</g>
	</g>
	<g class="st1">
		<g>
			<path class="st3" d="M11.3,7.3c0.6,0,0.6-1,0-1C10.6,6.3,10.6,7.3,11.3,7.3L11.3,7.3z"/>
		</g>
	</g>
	<g class="st1">
		<g>
			<path class="st3" d="M12.6,8.3c0.6,0,0.6-1,0-1C12,7.3,12,8.3,12.6,8.3L12.6,8.3z"/>
		</g>
	</g>
	<g class="st1">
		<g>
			<path class="st3" d="M3.7,8.6c0.6,0,0.6-1,0-1C3.1,7.6,3.1,8.6,3.7,8.6L3.7,8.6z"/>
		</g>
	</g>
	<g class="st1">
		<g>
			<path class="st3" d="M3.3,9.3c0.1,0.2-0.2,0.8-0.2,1.1c-0.1,0.6,0.9,0.6,1,0c0.1-0.6,0.3-1,0-1.6C3.9,8.2,3.1,8.7,3.3,9.3
				L3.3,9.3z"/>
		</g>
	</g>
	<g class="st1">
		<g>
			<path class="st3" d="M11.8,9c0.1,0.5-0.1,1-0.1,1.6c0,0.6,1,0.6,1,0c0-0.5,0.1-1,0.1-1.6C12.7,8.4,11.7,8.4,11.8,9L11.8,9z"/>
		</g>
	</g>
	<g class="st1">
		<g>
			<path class="st3" d="M4.8,11.9c2.3,0.2,4.5,0.2,6.8,0.1c0.6,0,0.6-1,0-1c-2.3,0.1-4.5,0-6.8-0.1C4.1,10.9,4.1,11.9,4.8,11.9
				L4.8,11.9z"/>
		</g>
	</g>
	<g class="st1">
		<g>
			<path class="st3" d="M5.5,13c1.6,0.1,3.2,0.2,4.8,0.1c0.6,0,0.6-1,0-1c-1.6,0.1-3.2,0-4.8-0.1C4.9,12,4.9,13,5.5,13L5.5,13z"/>
		</g>
	</g>
	<g class="st1">
		<g>
			<path class="st3" d="M6.5,13.7c0.9,0.1,1.9,0.2,2.8,0.2c0.6,0,0.6-1,0-1c-0.9-0.1-1.9-0.1-2.8-0.2C5.9,12.7,5.9,13.7,6.5,13.7
				L6.5,13.7z"/>
		</g>
	</g>
	<g class="st1">
		<g>
			<path class="st3" d="M9.5,12.9c-0.6-0.2-0.6-1.7-0.6-2.2c0-0.7,0-1.3,0-2c0-0.6-1-0.6-1,0c0,1.4-0.4,4.6,1.3,5.2
				C9.9,14.1,10.1,13.1,9.5,12.9L9.5,12.9z"/>
		</g>
	</g>
	<g class="st1">
		<g>
			<path class="st3" d="M5.6,7.2c0.6,0,0.6-1,0-1C5,6.2,5,7.2,5.6,7.2L5.6,7.2z"/>
		</g>
	</g>
	<g class="st1">
		<g>
			<path class="st3" d="M5.1,7.2c0.6,0,0.6-1,0-1C4.5,6.2,4.5,7.2,5.1,7.2L5.1,7.2z"/>
		</g>
	</g>
	<g class="st1">
		<g>
			<path class="st3" d="M5.1,7.2c0.6,0,0.6-1,0-1C4.5,6.2,4.5,7.2,5.1,7.2L5.1,7.2z"/>
		</g>
	</g>
	<g class="st1">
		<g>
			<path class="st3" d="M4.8,7.2c0.6,0,0.6-1,0-1C4.2,6.2,4.2,7.2,4.8,7.2L4.8,7.2z"/>
		</g>
	</g>
	<g class="st1">
		<g>
			<path class="st3" d="M4.8,7.2c0.6,0,0.6-1,0-1C4.2,6.2,4.2,7.2,4.8,7.2L4.8,7.2z"/>
		</g>
	</g>
	<g class="st1">
		<g>
			<path class="st3" d="M4.8,7.2c0.6,0,0.6-1,0-1C4.2,6.2,4.2,7.2,4.8,7.2L4.8,7.2z"/>
		</g>
	</g>
	<g class="st1">
		<g>
			<path class="st3" d="M3.8,8.2c0.6,0,0.6-1,0-1C3.1,7.2,3.1,8.2,3.8,8.2L3.8,8.2z"/>
		</g>
	</g>
	<g class="st1">
		<g>
			<path class="st3" d="M3.8,8.2c0.6,0,0.6-1,0-1C3.1,7.2,3.1,8.2,3.8,8.2L3.8,8.2z"/>
		</g>
	</g>
	<g class="st1">
		<g>
			<path class="st3" d="M3.8,8.2c0.6,0,0.6-1,0-1C3.1,7.2,3.1,8.2,3.8,8.2L3.8,8.2z"/>
		</g>
	</g>
	<g class="st1">
		<g>
			<path class="st3" d="M3.7,9.5c0.6,0,0.6-1,0-1C3.1,8.5,3.1,9.5,3.7,9.5L3.7,9.5z"/>
		</g>
	</g>
	<g class="st1">
		<g>
			<path class="st3" d="M3.8,10.6c0.6,0,0.6-1,0-1C3.1,9.6,3.1,10.6,3.8,10.6L3.8,10.6z"/>
		</g>
	</g>
	<g class="st1">
		<g>
			<path class="st3" d="M3.8,10.6c0.6,0,0.6-1,0-1C3.1,9.6,3.1,10.6,3.8,10.6L3.8,10.6z"/>
		</g>
	</g>
	<g class="st1">
		<g>
			<path class="st3" d="M4.9,11.5c0.6,0,0.6-1,0-1C4.2,10.5,4.2,11.5,4.9,11.5L4.9,11.5z"/>
		</g>
	</g>
	<g class="st1">
		<g>
			<path class="st3" d="M4.9,11.5c0.6,0,0.6-1,0-1C4.2,10.5,4.2,11.5,4.9,11.5L4.9,11.5z"/>
		</g>
	</g>
	<g class="st1">
		<g>
			<path class="st3" d="M4.9,11.5c0.6,0,0.6-1,0-1C4.2,10.5,4.2,11.5,4.9,11.5L4.9,11.5z"/>
		</g>
	</g>
	<g class="st1">
		<g>
			<path class="st3" d="M4.9,11.5c0.6,0,0.6-1,0-1C4.2,10.5,4.2,11.5,4.9,11.5L4.9,11.5z"/>
		</g>
	</g>
	<g class="st1">
		<g>
			<path class="st3" d="M4.5,11.9c0.6,0,0.6-1,0-1C3.9,10.9,3.9,11.9,4.5,11.9L4.5,11.9z"/>
		</g>
	</g>
	<g class="st1">
		<g>
			<path class="st3" d="M4.5,11.9c0.6,0,0.6-1,0-1C3.9,10.9,3.9,11.9,4.5,11.9L4.5,11.9z"/>
		</g>
	</g>
	<g class="st1">
		<g>
			<path class="st3" d="M4.5,11.9c0.6,0,0.6-1,0-1C3.9,10.9,3.9,11.9,4.5,11.9L4.5,11.9z"/>
		</g>
	</g>
	<g class="st1">
		<g>
			<path class="st3" d="M7,13.9c0.6,0,0.6-1,0-1C6.3,12.9,6.3,13.9,7,13.9L7,13.9z"/>
		</g>
	</g>
	<g class="st1">
		<g>
			<path class="st3" d="M7,13.9c0.6,0,0.6-1,0-1C6.3,12.9,6.3,13.9,7,13.9L7,13.9z"/>
		</g>
	</g>
	<g class="st1">
		<g>
			<path class="st3" d="M7,13.9c0.6,0,0.6-1,0-1C6.3,12.9,6.3,13.9,7,13.9L7,13.9z"/>
		</g>
	</g>
	<g class="st1">
		<g>
			<path class="st3" d="M8.7,13.8c0.6,0,0.6-1,0-1C8,12.8,8,13.8,8.7,13.8L8.7,13.8z"/>
		</g>
	</g>
	<g class="st1">
		<g>
			<path class="st3" d="M8.7,13.8c0.6,0,0.6-1,0-1C8,12.8,8,13.8,8.7,13.8L8.7,13.8z"/>
		</g>
	</g>
	<g class="st1">
		<g>
			<path class="st3" d="M9.6,5.5C9.6,5.5,9.6,5.5,9.6,5.5C9.1,5,8.4,5.7,8.9,6.2c0,0,0,0,0,0C9.4,6.7,10.1,6,9.6,5.5L9.6,5.5z"/>
		</g>
	</g>
	<g class="st1">
		<g>
			<path class="st3" d="M8.8,6.1c0,0.2,0.1,0.3,0.1,0.5c0.1,0.6,1.1,0.4,1-0.3c0-0.2-0.1-0.3-0.1-0.5C9.7,5.2,8.7,5.4,8.8,6.1
				L8.8,6.1z"/>
		</g>
	</g>
	<g class="st1">
		<g>
			<path class="st3" d="M11.2,6.3c-0.4,0-0.8,0-1.1,0.1c-0.6,0.1-0.4,1.1,0.3,1c0.3-0.1,0.6-0.1,0.9,0C11.9,7.3,11.9,6.3,11.2,6.3
				L11.2,6.3z"/>
		</g>
	</g>
	<g class="st1">
		<g>
			<path class="st3" d="M11.6,7.8c0,0.3,0.1,0.5,0.1,0.8c0,0.6,1,0.6,1,0c0-0.4-0.1-0.7-0.1-1.1C12.4,6.9,11.4,7.1,11.6,7.8
				L11.6,7.8z"/>
		</g>
	</g>
	<g class="st1">
		<g>
			<path class="st3" d="M7,6.1c0.6,0,0.6-1,0-1C6.4,5.1,6.4,6.1,7,6.1L7,6.1z"/>
		</g>
	</g>
	<g class="st1">
		<g>
			<path class="st3" d="M7,6.1c0.6,0,0.6-1,0-1C6.4,5.1,6.4,6.1,7,6.1L7,6.1z"/>
		</g>
	</g>
	<g class="st1">
		<g>
			<path class="st3" d="M7,6.1c0.6,0,0.6-1,0-1C6.4,5.1,6.4,6.1,7,6.1L7,6.1z"/>
		</g>
	</g>
	<g class="st1">
		<g>
			<path class="st3" d="M7,6.1c0.6,0,0.6-1,0-1C6.4,5.1,6.4,6.1,7,6.1L7,6.1z"/>
		</g>
	</g>
	<g class="st1">
		<g>
			<path class="st3" d="M6.8,6.1c0.6,0,0.6-1,0-1C6.2,5.1,6.2,6.1,6.8,6.1L6.8,6.1z"/>
		</g>
	</g>
	<g class="st1">
		<g>
			<path class="st3" d="M6.8,6.1c0.6,0,0.6-1,0-1C6.2,5.1,6.2,6.1,6.8,6.1L6.8,6.1z"/>
		</g>
	</g>
	<g class="st1">
		<g>
			<path class="st3" d="M5.8,12.7c0.6,0,0.6-1,0-1C5.2,11.7,5.2,12.7,5.8,12.7L5.8,12.7z"/>
		</g>
	</g>
	<g class="st1">
		<g>
			<path class="st3" d="M5.8,12.7c0.6,0,0.6-1,0-1C5.2,11.7,5.2,12.7,5.8,12.7L5.8,12.7z"/>
		</g>
	</g>
	<g class="st1">
		<g>
			<path class="st3" d="M5.8,12.7c0.6,0,0.6-1,0-1C5.2,11.7,5.2,12.7,5.8,12.7L5.8,12.7z"/>
		</g>
	</g>
	<g class="st1">
		<g>
			<path class="st3" d="M5.8,12.7c0.6,0,0.6-1,0-1C5.2,11.7,5.2,12.7,5.8,12.7L5.8,12.7z"/>
		</g>
	</g>
	<g class="st1">
		<g>
			<path class="st3" d="M5.8,12.7c0.6,0,0.6-1,0-1C5.2,11.7,5.2,12.7,5.8,12.7L5.8,12.7z"/>
		</g>
	</g>
	<g class="st1">
		<g>
			<path class="st3" d="M5.8,12.7c0.6,0,0.6-1,0-1C5.2,11.7,5.2,12.7,5.8,12.7L5.8,12.7z"/>
		</g>
	</g>
	<g class="st1">
		<g>
			<path class="st3" d="M5.8,12.7c0.6,0,0.6-1,0-1C5.2,11.7,5.2,12.7,5.8,12.7L5.8,12.7z"/>
		</g>
	</g>
	<g class="st1">
		<g>
			<path class="st3" d="M5.8,12.7c0.6,0,0.6-1,0-1C5.2,11.7,5.2,12.7,5.8,12.7L5.8,12.7z"/>
		</g>
	</g>
	<g class="st1">
		<g>
			<path class="st3" d="M5.8,12.7c0.6,0,0.6-1,0-1C5.2,11.7,5.2,12.7,5.8,12.7L5.8,12.7z"/>
		</g>
	</g>
	<g class="st1">
		<g>
			<path class="st3" d="M5.8,12.7c0.6,0,0.6-1,0-1C5.2,11.7,5.2,12.7,5.8,12.7L5.8,12.7z"/>
		</g>
	</g>
	<g class="st1">
		<g>
			<path class="st3" d="M5.8,12.7c0.6,0,0.6-1,0-1C5.2,11.7,5.2,12.7,5.8,12.7L5.8,12.7z"/>
		</g>
	</g>
	<g class="st1">
		<g>
			<path class="st3" d="M5.8,12.7c0.6,0,0.6-1,0-1C5.2,11.7,5.2,12.7,5.8,12.7L5.8,12.7z"/>
		</g>
	</g>
	<g class="st1">
		<g>
			<path class="st3" d="M5.8,12.7c0.6,0,0.6-1,0-1C5.2,11.7,5.2,12.7,5.8,12.7L5.8,12.7z"/>
		</g>
	</g>
	<g class="st1">
		<g>
			<path class="st3" d="M10.3,12.7c0.6,0,0.6-1,0-1C9.6,11.7,9.6,12.7,10.3,12.7L10.3,12.7z"/>
		</g>
	</g>
	<g class="st1">
		<g>
			<path class="st3" d="M10.3,12.7c0.6,0,0.6-1,0-1C9.6,11.7,9.6,12.7,10.3,12.7L10.3,12.7z"/>
		</g>
	</g>
	<g class="st1">
		<g>
			<path class="st3" d="M10.3,12.7c0.6,0,0.6-1,0-1C9.6,11.7,9.6,12.7,10.3,12.7L10.3,12.7z"/>
		</g>
	</g>
	<g class="st1">
		<g>
			<path class="st3" d="M10.3,12.7c0.6,0,0.6-1,0-1C9.6,11.7,9.6,12.7,10.3,12.7L10.3,12.7z"/>
		</g>
	</g>
	<g class="st1">
		<g>
			<path class="st3" d="M10.3,12.7c0.6,0,0.6-1,0-1C9.6,11.7,9.6,12.7,10.3,12.7L10.3,12.7z"/>
		</g>
	</g>
</g>
<g id="bb8">
	<rect x="5" y="3" class="st4" width="7" height="1"/>
	<rect x="5" y="4" class="st4" width="7" height="1"/>
	<rect x="6" y="2" class="st4" width="5" height="1"/>
	<rect x="6" y="6" class="st5" width="5" height="1"/>
	<rect x="5" y="14" class="st4" width="7" height="1"/>
	<rect x="3" y="10" class="st4" width="11" height="1"/>
	<rect x="3" y="11" class="st4" width="11" height="1"/>
	<rect x="3" y="12" class="st4" width="11" height="1"/>
	<rect x="4" y="13" class="st4" width="9" height="1"/>
	<rect x="6" y="15" class="st4" width="5" height="1"/>
	<rect x="7" class="st5" width="1" height="1"/>
	<rect x="4" y="8" class="st4" width="9" height="1"/>
	<rect x="5" y="7" class="st4" width="7" height="1"/>
	<rect x="7" y="1" class="st5" width="3" height="1"/>
	<rect x="5" y="5" class="st4" width="7" height="1"/>
	<rect x="7" y="3" width="2" height="2"/>
	<rect x="3" y="9" class="st4" width="11" height="1"/>
	<rect x="5" y="7" class="st6" width="1" height="1"/>
	<rect x="6" y="8" class="st6" width="1" height="1"/>
	<rect x="5" y="8" class="st6" width="1" height="1"/>
	<rect x="6" y="9" class="st6" width="1" height="1"/>
	<rect x="3" y="10" class="st6" width="1" height="1"/>
	<rect x="6" y="10" class="st6" width="1" height="1"/>
	<rect x="5" y="11" class="st6" width="1" height="1"/>
	<rect x="5" y="10" class="st6" width="1" height="1"/>
	<rect x="4" y="11" class="st6" width="1" height="1"/>
	<rect x="3" y="11" class="st6" width="1" height="1"/>
	<rect x="9" y="13" class="st6" width="3" height="1"/>
	<rect x="8" y="14" class="st6" width="2" height="1"/>
	<rect x="11" y="14" class="st6" width="1" height="1"/>
	<rect x="8" y="15" class="st6" width="1" height="1"/>
	<rect x="9" y="7" class="st6" width="1" height="3"/>
	<rect x="10" y="9" class="st6" width="1" height="2"/>
	<rect x="11" y="10" class="st6" width="2" height="1"/>
	<rect x="12" y="9" class="st6" width="1" height="1"/>
	<rect x="10" y="7" class="st6" width="1" height="1"/>
	<rect x="13" y="9" class="st6" width="1" height="1"/>
	<rect x="3" y="9" class="st7" width="1" height="1"/>
	<rect x="4" y="9" class="st7" width="1" height="1"/>
	<rect x="4" y="8" class="st5" width="1" height="1"/>
	<rect x="12" y="8" class="st5" width="1" height="1"/>
	<rect x="6" y="5" transform="matrix(-1 -1.224647e-16 1.224647e-16 -1 11.99 11)" class="st6" width="0" height="1"/>
	<rect x="5" y="5" class="st6" width="2" height="1"/>
	<rect x="9" y="5" class="st6" width="1" height="1"/>
	<rect x="11" y="5" class="st6" width="1" height="1"/>
	<rect x="9" y="15" class="st7" width="1" height="1"/>
</g>
<g id="storm_trooper_helmet">
</g>
<g id="yoda">
</g>
</svg>
