<?xml version="1.0" encoding="utf-8"?>
<!-- Generator: Adobe Illustrator 22.0.1, SVG Export Plug-In . SVG Version: 6.00 Build 0)  -->
<svg version="1.1" id="Layer_1" xmlns="http://www.w3.org/2000/svg" xmlns:xlink="http://www.w3.org/1999/xlink" x="0px" y="0px"
	 viewBox="0 0 1366 768" style="enable-background:new 0 0 1366 768;" xml:space="preserve">
<style type="text/css">
	.st0{fill:url(#SVGID_1_);}
	.st1{fill:#B57C62;}
	.st2{clip-path:url(#SVGID_3_);fill:#B57C62;}
	.st3{fill:url(#SVGID_4_);}
	.st4{fill:url(#SVGID_5_);}
	.st5{fill:none;stroke:#B57C62;stroke-width:8;stroke-linecap:round;stroke-miterlimit:10;}
	.st6{fill:none;stroke:#B57C62;stroke-width:2;stroke-linecap:round;stroke-miterlimit:10;}
	.st7{fill:none;stroke:#B57C62;stroke-miterlimit:10;}
	.st8{fill:#B57C62;stroke:#B57C62;stroke-miterlimit:10;}
</style>
<g>
	<linearGradient id="SVGID_1_" gradientUnits="userSpaceOnUse" x1="683" y1="0" x2="683" y2="566">
		<stop  offset="0" style="stop-color:#FFCCAC"/>
		<stop  offset="1" style="stop-color:#FF9966"/>
	</linearGradient>
	<rect class="st0" width="1366" height="566"/>
</g>
<g>
	<rect y="566" class="st1" width="1366" height="202"/>
</g>
<g>
	<defs>
		<rect id="SVGID_2_" width="1366" height="575"/>
	</defs>
	<clipPath id="SVGID_3_">
		<use xlink:href="#SVGID_2_"  style="overflow:visible;"/>
	</clipPath>
	<circle class="st2" cx="110" cy="490" r="134"/>
</g>
<path class="st1" d="M308,575H181c-6.6,0-12-5.4-12-12v-85c0-6.6,5.4-12,12-12h127c6.6,0,12,5.4,12,12v85
	C320,569.6,314.6,575,308,575z"/>
<linearGradient id="SVGID_4_" gradientUnits="userSpaceOnUse" x1="855" y1="192" x2="855" y2="322">
	<stop  offset="0" style="stop-color:#FEFFD4"/>
	<stop  offset="1" style="stop-color:#FFF87F"/>
</linearGradient>
<circle class="st3" cx="855" cy="257" r="65"/>
<linearGradient id="SVGID_5_" gradientUnits="userSpaceOnUse" x1="1011" y1="395" x2="1011" y2="525">
	<stop  offset="0" style="stop-color:#FFA077"/>
	<stop  offset="0.1406" style="stop-color:#FF9368"/>
	<stop  offset="0.502" style="stop-color:#FF7746"/>
	<stop  offset="0.8014" style="stop-color:#FF6532"/>
	<stop  offset="1" style="stop-color:#FF5F2A"/>
</linearGradient>
<circle class="st4" cx="1011" cy="460" r="65"/>
<g>
	<path class="st1" d="M1252.5,601h-10c-6.6,0-12-5.4-12-12v-38c0-6.6,5.4-12,12-12h10c6.6,0,12,5.4,12,12v38
		C1264.5,595.6,1259.1,601,1252.5,601z"/>
	<g>
		<line class="st1" x1="1218" y1="566" x2="1218" y2="407"/>
		<line class="st5" x1="1218" y1="566" x2="1218" y2="407"/>
	</g>
	<g>
		<line class="st1" x1="1277" y1="566" x2="1277" y2="407"/>
		<line class="st5" x1="1277" y1="566" x2="1277" y2="407"/>
	</g>
	<line class="st6" x1="1218" y1="535" x2="1277" y2="535"/>
	<rect x="1234.5" y="441" class="st1" width="26" height="136"/>
	<g>
		<path class="st1" d="M1228,505.5c0,10.8,8.7,19.5,19.5,19.5s19.5-8.7,19.5-19.5v-36c0-10.8-8.7-19.5-19.5-19.5
			s-19.5,8.7-19.5,19.5V505.5z"/>
	</g>
	<ellipse class="st1" cx="1247.5" cy="456.5" rx="13" ry="77.5"/>
	<ellipse class="st1" cx="1247.5" cy="364.5" rx="9.5" ry="59.5"/>
	<rect x="1238.5" y="336" class="st1" width="17.5" height="78"/>
	<line class="st7" x1="1247.5" y1="355" x2="1247.5" y2="255"/>
	<circle class="st8" cx="1247.5" cy="255.5" r="2"/>
	<line class="st6" x1="1218" y1="441" x2="1277" y2="441"/>
	<line class="st6" x1="1218" y1="435" x2="1277" y2="435"/>
</g>
</svg>
