<?xml version="1.0" encoding="utf-8"?>
<!-- Generator: Adobe Illustrator 22.0.1, SVG Export Plug-In . SVG Version: 6.00 Build 0)  -->
<svg version="1.1" id="Hand-drawn_Icon_Set" xmlns="http://www.w3.org/2000/svg" xmlns:xlink="http://www.w3.org/1999/xlink"
	 x="0px" y="0px" viewBox="0 0 500 500" style="enable-background:new 0 0 500 500;" xml:space="preserve">
<style type="text/css">
	.st0{fill:#231F20;}
</style>
<path id="Pencil" class="st0" d="M278.9,266.9c-0.1-0.2,0-0.4-0.1-0.6c-11.7-19-23.5-37.9-38.2-54.7c-0.4-0.4-0.8-0.7-1.2-0.8
	c-0.5-0.4-1.2-0.5-2-0.2c-6.4,2.6-14.1,6.3-17.6,12.7c-0.5,1-0.4,1.9,0.1,2.6c-0.1,0.5-0.1,1.2,0.4,1.8
	c11.3,16.9,22.9,33.5,34.9,49.9c0.1,0.1,0.2,0.2,0.3,0.3c0.2,0.4,0.5,0.8,1.1,1.1c6.5,3.5,12.8,6.8,19.4,9.9
	c1.4,1.1,3.9,0.5,3.9-1.9c0-6,0-12,0-18C280,267.9,279.7,267.2,278.9,266.9z M261.6,275.9c0.5-0.9,1.1-1.8,1.6-2.7
	c1.1,0,2.3,0.1,3.4,0.1c1.1,0.3,2.3,0,2.8-1.1c0.4-0.8,0.7-1.7,1-2.5c1.6,0.3,2.9,0.6,4.4,0.8c0.1,0,0.1,0,0.1,0c0,1.5,0,2.9,0,4.4
	c0,0,0,0-0.1,0.1c-2.5,0.7-4.7,2.5-5.9,4.8C266.5,278.6,264.1,277.3,261.6,275.9z M224.6,225c2.8-4.4,8.4-7.2,13.2-9.2
	c2,2.3,4,4.7,5.9,7.2c-5.3,2.2-10,5.4-14,9.6C228,230.1,226.3,227.6,224.6,225C224.6,225.1,224.6,225,224.6,225z M232.5,236.8
	c3.9-4.3,8.7-7.6,14.1-9.7c0.1,0,0.1-0.1,0.2-0.1c9.2,12.1,17.4,25,25.4,38c-0.8-0.1-1.5-0.3-2.3-0.4c-0.8-0.1-1.5,0-2.1,0.4
	c-0.8,0.2-1.4,0.8-1.6,1.7c-0.2,0.6-0.3,1.1-0.5,1.7c-1.2-0.1-2.5-0.1-3.7-0.2c-0.5,0-1,0.1-1.4,0.4c-0.4,0.2-0.8,0.5-1.1,1
	c-0.6,1-1.1,2-1.7,2.9C249.2,260.7,240.8,248.8,232.5,236.8z"/>
</svg>
