<?xml version="1.0" encoding="utf-8"?>
<!-- Generator: Adobe Illustrator 22.0.1, SVG Export Plug-In . SVG Version: 6.00 Build 0)  -->
<svg version="1.1" id="Hand-drawn_Icon_Set" xmlns="http://www.w3.org/2000/svg" xmlns:xlink="http://www.w3.org/1999/xlink"
	 x="0px" y="0px" viewBox="0 0 500 500" style="enable-background:new 0 0 500 500;" xml:space="preserve">
<style type="text/css">
	.st0{fill:#231F20;}
</style>
<g>
	<path class="st0" d="M293.1,259.7c3.9-2.5,6.3-6.7,5.9-11.2c4.8-1.8,7.5-6.5,8.3-11.9c0.8-5.3-0.7-11-5.8-13.1
		c1.4-8.3-7.6-17-15.9-15c-3.9-6.9-14.6-12.6-21.5-8.6c-4.2-7-14.2-8.2-20.1-2.3c-5-1.9-10.5-2.6-15.5,0c-4.5,2.3-7.5,6.9-7.6,11.9
		c-4.9-0.7-10.3,1.5-14.1,4.5c-3,2.3-4.7,6.8-3.3,10.1c-5.6,1.5-10.3,5.6-10.8,11.9c-0.5,6.5,4.5,11.6,10.6,11.8
		c-1.3,4.9,0.1,10.1,4.3,13.4c4.8,3.7,11.5,3.5,17.1,2c7,6.7,17.6,6.8,25,0.4c8.3,6.9,21.5,7.9,26.6-2.8
		C281.8,262.3,288,263,293.1,259.7z M251.4,258.6c-1.1-1.1-2.5-0.9-3.3-0.1c-0.3,0.1-0.6,0.3-0.9,0.6c-6.2,6.2-15.1,5.5-20.6-1.1
		c-1.2-1.5-3-0.8-3.8,0.5c-3.4,0.9-7.1,1.3-10.3-0.1c-4.2-1.8-6-6.5-4.1-10.6c0.8-1.7-0.3-3.2-1.7-3.7c-0.5-0.8-1.5-1.4-2.7-1.2
		c-4.8,0.8-7.5-4.3-6.1-8.3c1.4-4.2,5.8-6,9.9-6.1c1.7,0,2.5-1.4,2.4-2.7c0.4-1,0.2-2.2-1.1-2.7c-4.1-1.8,1.5-5.8,3.4-6.7
		c3-1.6,6.7-2.9,9.8-1.1c2.4,1.3,4.5-1.5,3.5-3.4c0.1-0.3,0.1-0.5,0.1-0.9c-0.9-9.2,8.9-11.2,15.8-8.8c0.6,1.7,3.3,2.6,4.6,0.6
		c3.7-6.1,11.7-4.8,14,1.2c-0.2,0.7,0.1,1.4,0.6,1.9c0.9,2.3,4.5,1.4,4.7-0.9c2.6-2.5,7.5-0.5,10.2,0.9c2.8,1.5,5,3.5,6,6.7
		c0.6,1.8,2.5,2.1,3.8,1.4c6-2.2,12.8,4.7,10.5,10.6c-0.6,1.5,0.3,2.5,1.4,2.9c0.3,0.3,0.7,0.5,1.2,0.6c7.3,1.7,3.7,15.7-2.8,16.3
		c-2.3,0.2-2.9,2.8-1.9,4.2c0.7,3.9-2.5,7.1-6.1,8.2c-4.2,1.2-8.8-0.1-12.9-1.2c-2.1-0.6-3.4,1.5-3,3.1
		C268,267.4,256.8,264.1,251.4,258.6z"/>
	<path class="st0" d="M300.5,263.2c-0.6-1.1-2-1.9-3.5-1.3c-5.1,2.2-9.4,7.2-7.9,13.1c1.3,5.2,6.9,7.7,11.9,7.4
		c5.4-0.3,8.8-4.3,8.6-9.7C309.4,267.5,306,262.4,300.5,263.2z M304.4,274.8c-0.7,2.6-3.5,2.9-5.9,2.5c-2.7-0.5-5-2.1-4.7-5.1
		c0.3-2.6,2.3-4.2,4.5-5.4c0.5,0.9,1.5,1.6,2.8,1.3C304.3,267.5,305,272.7,304.4,274.8z"/>
	<path class="st0" d="M292.2,284.4c-0.2-0.1-0.5-0.1-0.8-0.1c-0.3,0-0.6,0-0.8,0.1c-3.3,0.5-5.9,3.4-6.1,6.8c-0.2,3.8,3,6.6,6.7,6.6
		c3.6,0.1,6.8-2.5,6.9-6.2C298.1,288.1,295.6,285.1,292.2,284.4z M291.2,292.9c-2.5-0.1-1.9-3.5,0.2-3.5c0.9,0.1,1.7,1.3,1.6,2.1
		C293,292.5,292.1,292.9,291.2,292.9z"/>
</g>
</svg>
