<?xml version="1.0" encoding="utf-8"?>
<!-- Generator: Adobe Illustrator 22.0.1, SVG Export Plug-In . SVG Version: 6.00 Build 0)  -->
<svg version="1.1" id="Hand-drawn_Icon_Set" xmlns="http://www.w3.org/2000/svg" xmlns:xlink="http://www.w3.org/1999/xlink"
	 x="0px" y="0px" viewBox="0 0 500 500" style="enable-background:new 0 0 500 500;" xml:space="preserve">
<style type="text/css">
	.st0{fill:#231F20;}
</style>
<g id="Computer">
	<path class="st0" d="M320,282.7c-0.8-28.8-1.6-57.6-2.5-86.4c-0.1-2.1-2.3-2.9-3.8-2.1c-0.4-0.5-1-0.8-1.8-0.8
		c-42.9,0.2-85.8,0.4-128.8,0.6c-1.3,0-2,0.8-2.3,1.7c-0.3,0.4-0.5,0.9-0.5,1.5c-0.5,29-0.5,58,0,87c0,0.6,0.2,1,0.4,1.4
		c0.1,1.2,0.9,2.3,2.4,2.4c18.1,0.7,36.2,1.1,54.3,1.1c0,0.1,0,0.1,0,0.1c0.1,1.4,0.6,3.6-0.3,4.8c-0.7,0.9-3,1.8-4,2.5
		c-2.7,1.8-5.4,3.6-8.1,5.2c0,0-0.1,0.1-0.1,0.1c0,0-0.1,0.1-0.1,0.1c-0.9,0.6-1.1,1.6-0.9,2.4c0.1,1,0.8,1.8,1.9,2
		c0.2,0.1,0.5,0.1,0.8,0c16.7-0.2,33.4,0.3,50.2,0c2.9,0,3.2-4.2,0.8-4.9c-0.2-0.2-0.4-0.4-0.7-0.6c-2.6-1.6-5.2-3.1-7.8-4.7
		c-1.1-0.6-2.5-1.2-3.3-2.1c-1.3-1.3-1.1-2.9-0.9-4.6c0-0.2,0-0.5,0-0.7c17.5-0.3,35-0.9,52.4-1.9c1.8-0.1,2.6-1.7,2.4-3
		C319.9,283.7,320,283.3,320,282.7z M312.6,198.3c0.7,22.8,1.3,45.6,2,68.4c-43.1,0.9-86.3,1.1-129.4,0.5
		c-0.2-22.7-0.1-45.4,0.2-68.1c42.2-0.2,84.4-0.4,126.6-0.6C312.2,198.4,312.4,198.4,312.6,198.3z M185.3,283.1
		c-0.1-3.6-0.1-7.3-0.1-10.9c43.2,0.6,86.3,0.4,129.5-0.5c0.1,3.5,0.2,7,0.3,10.5C271.8,284.5,228.5,284.8,185.3,283.1z
		 M263.4,298.7c1.4,1,2.9,1.9,4.5,2.9c-11,0-22-0.2-32.9-0.1c1.2-0.8,2.4-1.6,3.6-2.3c1.5-0.9,2.9-1.7,3.6-3.3
		c0.8-1.9,0.4-4.5,0.3-6.5c0-0.1,0-0.1,0-0.2c5.9,0,11.7-0.1,17.6-0.1c-0.1,0.2-0.1,0.4-0.1,0.6
		C259.6,293.4,260.3,296.5,263.4,298.7z"/>
	<path class="st0" d="M251,275.5c-3,0-3,5,0,5S254,275.5,251,275.5z"/>
</g>
</svg>
