<?xml version="1.0" encoding="utf-8"?>
<!-- Generator: Adobe Illustrator 22.0.1, SVG Export Plug-In . SVG Version: 6.00 Build 0)  -->
<svg version="1.1" xmlns="http://www.w3.org/2000/svg" xmlns:xlink="http://www.w3.org/1999/xlink" x="0px" y="0px"
	 viewBox="0 0 16 16" style="enable-background:new 0 0 16 16;" xml:space="preserve">
<style type="text/css">
	.st0{display:none;}
	.st1{display:inline;}
	.st2{fill:#ADADAD;}
	.st3{fill:#709348;}
	.st4{fill:#80AD51;}
	.st5{fill:#602C2C;}
	.st6{fill:#331919;}
	.st7{fill:#C1C1C1;}
	.st8{fill:#DDDDDD;}
	.st9{fill:#EAEAEA;}
	.st10{fill:#605555;}
	.st11{fill:#B5B5B5;}
	.st12{fill:#C9C9C9;}
</style>
<g id="Layer_1" class="st0">
	<rect y="4" class="st1" width="1" height="1"/>
	<rect x="1" y="4" class="st1" width="1" height="1"/>
	<rect x="2" y="4" class="st1" width="1" height="1"/>
	<rect x="3" y="4" class="st1" width="1" height="1"/>
	<g class="st1">
		<g>
			<path d="M1.7,5.6c0.6,0,0.6-1,0-1C1,4.6,1,5.6,1.7,5.6L1.7,5.6z"/>
		</g>
	</g>
	<g class="st1">
		<g>
			<path d="M2.4,5.9c0.6,0,0.6-1,0-1C1.7,4.9,1.7,5.9,2.4,5.9L2.4,5.9z"/>
		</g>
	</g>
	<g class="st1">
		<g>
			<path d="M3.6,6.7c0.6,0,0.6-1,0-1C3,5.7,3,6.7,3.6,6.7L3.6,6.7z"/>
		</g>
	</g>
	<g class="st1">
		<g>
			<path d="M4.5,4.1c0.6,0,0.6-1,0-1C3.9,3.1,3.9,4.1,4.5,4.1L4.5,4.1z"/>
		</g>
	</g>
	<g class="st1">
		<g>
			<path d="M5.4,4.2c0.6,0,0.6-1,0-1C4.8,3.2,4.8,4.2,5.4,4.2L5.4,4.2z"/>
		</g>
	</g>
	<g class="st1">
		<g>
			<path d="M5.8,3.4c0.6,0,0.6-1,0-1C5.1,2.4,5.1,3.4,5.8,3.4L5.8,3.4z"/>
		</g>
	</g>
	<g class="st1">
		<g>
			<path d="M6.4,3.4c0.6,0,0.6-1,0-1C5.8,2.4,5.8,3.4,6.4,3.4L6.4,3.4z"/>
		</g>
	</g>
	<g class="st1">
		<g>
			<path d="M7.5,3.4c0.6,0,0.6-1,0-1C6.9,2.4,6.9,3.4,7.5,3.4L7.5,3.4z"/>
		</g>
	</g>
	<g class="st1">
		<g>
			<path d="M8.5,3.7c0.6,0,0.6-1,0-1C7.9,2.7,7.9,3.7,8.5,3.7L8.5,3.7z"/>
		</g>
	</g>
	<g class="st1">
		<g>
			<path d="M9.7,3.8c0.6,0,0.6-1,0-1C9.1,2.8,9.1,3.8,9.7,3.8L9.7,3.8z"/>
		</g>
	</g>
	<g class="st1">
		<g>
			<path d="M10.4,4.2c0.6,0,0.6-1,0-1C9.8,3.2,9.8,4.2,10.4,4.2L10.4,4.2z"/>
		</g>
	</g>
	<g class="st1">
		<g>
			<path d="M11.6,5.3c0.6,0,0.6-1,0-1C10.9,4.3,10.9,5.3,11.6,5.3L11.6,5.3z"/>
		</g>
	</g>
	<g class="st1">
		<g>
			<path d="M12.6,5c0.6,0,0.6-1,0-1C11.9,4,11.9,5,12.6,5L12.6,5z"/>
		</g>
	</g>
	<g class="st1">
		<g>
			<path d="M13.5,5c0.6,0,0.6-1,0-1C12.8,4,12.8,5,13.5,5L13.5,5z"/>
		</g>
	</g>
	<g class="st1">
		<g>
			<path d="M14.6,5c0.6,0,0.6-1,0-1C13.9,4,13.9,5,14.6,5L14.6,5z"/>
		</g>
	</g>
	<g class="st1">
		<g>
			<path d="M15.5,5c0.6,0,0.6-1,0-1C14.9,4,14.9,5,15.5,5L15.5,5z"/>
		</g>
	</g>
	<g class="st1">
		<g>
			<path d="M9,3.3c0.6,0,0.6-1,0-1C8.3,2.3,8.3,3.3,9,3.3L9,3.3z"/>
		</g>
	</g>
	<g class="st1">
		<g>
			<path d="M9.4,3.3c0.6,0,0.6-1,0-1C8.8,2.3,8.8,3.3,9.4,3.3L9.4,3.3z"/>
		</g>
	</g>
	<g class="st1">
		<g>
			<path d="M10.4,3.6c0.6,0,0.6-1,0-1C9.8,2.6,9.8,3.6,10.4,3.6L10.4,3.6z"/>
		</g>
	</g>
	<g class="st1">
		<g>
			<path d="M11.3,4.6c0.6,0,0.6-1,0-1C10.7,3.6,10.7,4.6,11.3,4.6L11.3,4.6z"/>
		</g>
	</g>
	<g class="st1">
		<g>
			<path d="M4.8,7c0.6,0,0.6-1,0-1C4.1,6,4.1,7,4.8,7L4.8,7z"/>
		</g>
	</g>
	<g class="st1">
		<g>
			<path d="M5.7,8.3c0.6,0,0.6-1,0-1C5,7.3,5,8.3,5.7,8.3L5.7,8.3z"/>
		</g>
	</g>
	<g class="st1">
		<g>
			<path d="M6.5,8.5c0.6,0,0.6-1,0-1C5.9,7.5,5.9,8.5,6.5,8.5L6.5,8.5z"/>
		</g>
	</g>
	<g class="st1">
		<g>
			<path d="M7.4,8.6c0.6,0,0.6-1,0-1C6.7,7.6,6.7,8.6,7.4,8.6L7.4,8.6z"/>
		</g>
	</g>
	<g class="st1">
		<g>
			<path d="M8.5,8.6c0.6,0,0.6-1,0-1C7.9,7.6,7.9,8.6,8.5,8.6L8.5,8.6z"/>
		</g>
	</g>
	<g class="st1">
		<g>
			<path d="M8.5,8.6c0.6,0,0.6-1,0-1C7.9,7.6,7.9,8.6,8.5,8.6L8.5,8.6z"/>
		</g>
	</g>
	<g class="st1">
		<g>
			<path d="M9.2,8.6c0.6,0,0.6-1,0-1C8.6,7.6,8.6,8.6,9.2,8.6L9.2,8.6z"/>
		</g>
	</g>
	<g class="st1">
		<g>
			<path d="M10.3,7.6c0.6,0,0.6-1,0-1C9.7,6.6,9.7,7.6,10.3,7.6L10.3,7.6z"/>
		</g>
	</g>
	<g class="st1">
		<g>
			<path d="M11.1,6.7c0.6,0,0.6-1,0-1C10.5,5.7,10.5,6.7,11.1,6.7L11.1,6.7z"/>
		</g>
	</g>
	<g class="st1">
		<g>
			<path d="M13.3,5.9c0.6,0,0.6-1,0-1C12.7,4.9,12.7,5.9,13.3,5.9L13.3,5.9z"/>
		</g>
	</g>
	<g class="st1">
		<g>
			<path class="st2" d="M5.8,9.6c0.1,0.5,0,1.1,0,1.5c0,0.5,0,1.1,0,1.6c0,0.6,1,0.6,1,0c0-0.6,0-1.2,0-1.8c0-0.5,0.1-1.1,0-1.6
				C6.5,8.7,5.6,9,5.8,9.6L5.8,9.6z"/>
		</g>
	</g>
	<g class="st1">
		<g>
			<path class="st2" d="M4.8,11.1c0.6,0,0.6-1,0-1C4.2,10.1,4.2,11.1,4.8,11.1L4.8,11.1z"/>
		</g>
	</g>
	<g class="st1">
		<g>
			<path class="st2" d="M8.5,9.8c0.3,0,0.8,0,1.1,0.1C9.8,10,9.5,9.7,9.7,10c0,0,0.2,0.4,0.2,0.2c-0.1,0.6,0.9,0.9,1,0.3
				c0-0.3,0-0.5-0.2-0.7c-0.1-0.2-0.2-0.4-0.4-0.6C9.9,8.8,9,8.8,8.5,8.8C7.8,8.8,7.8,9.8,8.5,9.8L8.5,9.8z"/>
		</g>
	</g>
	<g class="st1">
		<g>
			<path class="st2" d="M10.4,9.1c0.6,0,0.6-1,0-1C9.8,8.1,9.8,9.1,10.4,9.1L10.4,9.1z"/>
		</g>
	</g>
	<g class="st1">
		<g>
			<path class="st2" d="M10.1,9.1c1,0.8,0.8,2,0.7,3.2c-0.1,0.6,0.9,0.6,1,0c0.2-1.4,0.2-2.9-1-3.9C10.4,8,9.6,8.7,10.1,9.1
				L10.1,9.1z"/>
		</g>
	</g>
	<g class="st1">
		<g>
			<path class="st2" d="M6.7,12.6c1.4,0,2.7,0,4.1,0c0.6,0,0.6-1,0-1c-1.4,0-2.7,0-4.1,0C6,11.6,6,12.6,6.7,12.6L6.7,12.6z"/>
		</g>
	</g>
	<g class="st1">
		<g>
			<path class="st2" d="M8.9,11c0.6,0,0.6-1,0-1C8.3,10,8.3,11,8.9,11L8.9,11z"/>
		</g>
	</g>
	<g class="st1">
		<g>
			<path class="st2" d="M9.3,11c0.6,0,0.6-1,0-1C8.7,10,8.7,11,9.3,11L9.3,11z"/>
		</g>
	</g>
</g>
<g id="final_layer">
	<rect y="4" class="st3" width="4" height="1"/>
	<rect x="1" y="5" class="st3" width="3" height="1"/>
	<rect x="4" y="6" class="st4" width="8" height="1"/>
	<rect x="4" y="7" class="st4" width="7" height="1"/>
	<rect x="5" y="8" class="st4" width="5" height="1"/>
	<rect x="4" y="3" class="st4" width="7" height="1"/>
	<rect x="3" y="6" class="st3" width="1" height="1"/>
	<rect x="5" y="2" class="st4" width="5" height="1"/>
	<rect x="4" y="4" class="st4" width="11" height="1"/>
	<rect x="4" y="5" class="st4" width="9" height="1"/>
	<rect x="5" y="6" width="1" height="1"/>
	<rect x="8" y="6" width="1" height="1"/>
	<rect x="7" y="9" class="st5" width="1" height="4"/>
	<rect x="7" y="11" class="st6" width="1" height="1"/>
	<rect x="6" y="9" class="st7" width="1" height="4"/>
	<rect x="5" y="9.9" class="st8" width="1" height="3.1"/>
	<rect x="4" y="10" class="st8" width="1" height="1"/>
	<rect x="5" y="13" class="st4" width="2" height="1"/>
	<rect x="8" y="13" class="st4" width="2" height="1"/>
	<rect x="3" y="10" class="st4" width="1" height="1"/>
	<rect x="5" y="9" class="st9" width="1" height="1"/>
	<rect x="3" y="11" class="st10" width="1" height="3"/>
	<rect x="8" y="9" class="st7" width="1" height="4"/>
	<rect x="10" y="9" class="st11" width="1" height="1"/>
	<rect x="9" y="9.9" class="st12" width="1" height="3.1"/>
	<rect x="9" y="9" class="st7" width="1" height="1"/>
	<rect x="10" y="10" class="st12" width="1" height="1"/>
	<rect x="10" y="11" class="st4" width="1" height="1"/>
</g>
</svg>
